<?xml version="1.0" encoding="utf-8"?>
<!-- Generator: Adobe Illustrator 24.1.0, SVG Export Plug-In . SVG Version: 6.00 Build 0)  -->
<svg version="1.1" id="Layer_2" xmlns="http://www.w3.org/2000/svg" xmlns:xlink="http://www.w3.org/1999/xlink" x="0px" y="0px"
	 viewBox="0 0 448 512" style="enable-background:new 0 0 448 512;" xml:space="preserve">
<g>
	<path d="M161.4,367.7L161.4,367.7l-124.3,0c-9.9-0.2-19.3,3.7-26.3,10.8c-7.1,7-11,16.4-10.8,26.3v38.8
		c-0.2,9.9,3.7,19.3,10.8,26.3c7,7.1,16.4,11,26.3,10.8h124.3c0.1,0,0.1,0,0.3,0c20.4-0.1,37-16.7,36.8-37.1v-38.8
		c0-0.1,0-0.1,0-0.3C198.4,384.1,181.8,367.5,161.4,367.7z M165.7,447.7c-0.8,0.8-2.1,1.7-4.1,1.8H37.1c-0.2,0-0.7,0-0.7,0
		c-1.2,0-2.4-0.5-3.4-1.5c-0.1-0.1-0.2-0.2-0.3-0.3c-1-1-1.5-2.2-1.5-3.5c0-0.2,0-0.4,0-0.6v-38.8c0-0.2,0-0.4,0-0.6
		c0-1.3,0.5-2.4,1.5-3.5c0.1-0.1,0.2-0.2,0.3-0.3c1-1,2.1-1.5,3.4-1.5c0.2,0,0.5,0,0.7,0c0,0,124.5,0,124.6,0c3.1,0,5.6,2.6,5.6,5.7
		c0,0,0,39.2,0,39.3C167.3,445.7,166.5,447,165.7,447.7z"/>
	<path d="M161.4,31.1H37.1c-9.9-0.2-19.3,3.7-26.3,10.8c-7.1,7-11,16.4-10.8,26.3V281c-0.2,9.9,3.7,19.3,10.8,26.3
		c7,7.1,16.4,11,26.3,10.8h124.2c20.4,0.2,37-16.4,37.1-36.8c0-0.2,0-0.2,0-0.3V68.2h0.1c0.2-9.9-3.7-19.3-10.8-26.3
		C180.7,34.8,171.3,30.9,161.4,31.1z M167.2,68.2v213c0,3.2-2.5,5.7-5.6,5.7c-0.1,0-124.6,0-124.6,0c-0.2,0-0.7,0-0.7,0
		c-1.2,0-2.4-0.5-3.4-1.5c-0.1-0.1-0.2-0.2-0.3-0.3c-1-1-1.5-2.2-1.5-3.5c0-0.2,0-0.4,0-0.6V68.2c0-0.2,0-0.4,0-0.6
		c0-1.3,0.5-2.4,1.5-3.5c0.1-0.1,0.2-0.2,0.3-0.3c1-1,2.1-1.5,3.4-1.5c0.2,0,0.5,0,0.7,0h124.3c0.2,0,0.6,0,0.6,0
		c1.3,0,2.5,0.5,3.5,1.5c0.1,0.1,0.2,0.2,0.3,0.3c0.8,0.8,1.3,1.6,1.4,2.6C167.2,67.2,167.2,67.7,167.2,68.2z"/>
	<path d="M447,319.9c0-0.1,0-0.1,0-0.3c-0.1-20.4-16.7-37-37.1-36.8H285.1c-0.1,0-0.1,0-0.3,0c-20.4,0.1-37,16.7-36.8,37.1v122.8
		c0,0.1,0,0.1,0,0.3c0.1,20.4,16.7,37,37.1,36.8h124.8c0.1,0,0.1,0,0.3,0c20.4-0.1,37-16.7,36.8-37.1h0V319.9z M414.2,446.8
		c-0.8,0.8-2.1,1.7-4.1,1.8l-125.4,0c-3,0-5.5-2.6-5.6-5.7c0,0,0-123.2,0-123.3c0-1.8,0.9-3.1,1.6-3.9c0.8-0.8,2.1-1.7,4.1-1.8
		c0,0,125.2,0,125.3,0c3.1,0,5.6,2.6,5.6,5.7c0,0,0,123.2,0,123.3C415.8,444.8,415,446.1,414.2,446.8z"/>
	<path d="M285.1,233.2h124.8c0.1,0,0.1,0,0.3,0c20.4-0.1,37-16.7,36.8-37.1h0V68.2c0.2-9.9-3.7-19.3-10.8-26.3
		c-7-7.1-16.4-11-26.3-10.8H285.1c-9.9-0.2-19.3,3.7-26.3,10.8c-7.1,7-11,16.4-10.8,26.3v127.9c0,0.1,0,0.1,0,0.3
		C248.1,216.8,264.7,233.4,285.1,233.2z M280.7,64.1c0.1-0.1,0.2-0.2,0.3-0.3c1-1,2.1-1.5,3.4-1.5c0.2,0,0.5,0,0.7,0h124.8
		c0.2,0,0.6,0,0.6,0c1.3,0,2.5,0.5,3.5,1.5c0.1,0.1,0.2,0.2,0.3,0.3c1,1,1.5,2.2,1.5,3.5c0,0.2,0,0.4,0,0.6c0,0,0,128.1,0,128.2
		c0,1.8-0.9,3.1-1.6,3.9c-0.8,0.8-2.1,1.7-4.1,1.8l-125.4,0c-3,0-5.5-2.6-5.6-5.7V68.2c0-0.2,0-0.4,0-0.6
		C279.1,66.3,279.7,65.1,280.7,64.1z"/>
</g>
</svg>
