<?xml version="1.0" encoding="utf-8"?>
<!-- Generator: Adobe Illustrator 24.1.0, SVG Export Plug-In . SVG Version: 6.00 Build 0)  -->
<svg version="1.1" id="Layer_1" xmlns="http://www.w3.org/2000/svg" xmlns:xlink="http://www.w3.org/1999/xlink" x="0px" y="0px"
	 viewBox="0 0 320 512" style="enable-background:new 0 0 320 512;" xml:space="preserve">
<path d="M178.1,256l136-136c1.1-1.1,1.1-2.9,0-4L300,101.9c-1.1-1.1-2.9-1.1-4,0l-136,136l-136-136c-1.1-1.1-2.9-1.1-4,0L5.9,116
	c-1.1,1.1-1.1,2.9,0,4l136,136L5.9,392c-1.1,1.1-1.1,2.9,0,4L20,410.1c1.1,1.1,2.9,1.1,4,0l136-136l136,136c1.1,1.1,2.9,1.1,4,0
	l14.1-14.1c1.1-1.1,1.1-2.9,0-4L178.1,256z"/>
</svg>
