<?xml version="1.0" encoding="utf-8"?>
<svg version="1.1" id="Layer_2_1_" xmlns="http://www.w3.org/2000/svg" xmlns:xlink="http://www.w3.org/1999/xlink" x="0px" y="0px"
	 viewBox="0 0 512 512" style="enable-background:new 0 0 512 512;" xml:space="preserve">
<path id="colomns" class="icon" d="M512,22.8c0.1-6.4-2.4-11.5-7-16c-4.5-4.6-10.6-7.1-17-7H387c-0.1,0-0.1,0-0.2,0
	c-13.2,0.1-23.9,9.8-23.8,23v465c-0.1,6.4,2.4,12.5,7,17c4.5,4.6,10.6,7.1,17,7h101c6.4,0.1,12.5-2.4,17-7c4.6-4.5,7.1-10.6,7-17
	V22.8z M149,487.8c0.1,6.4-2.4,12.5-7,17c-4.5,4.6-10.6,7.1-17,7H24c-6.4,0.1-12.5-2.4-17-7c-4.6-4.5-7.1-10.6-7-17v-464
	c-0.1-13.2,10.6-23.9,23.8-24c0.1,0,0.1,0,0.2,0h101l0,0c13.2,0,23.9,10.6,24,23.8c0,0.1,0,0.1,0,0.2V487.8z M331,487.8
	c0.1,6.4-2.4,12.5-7,17c-4.5,4.6-10.6,7.1-17,7H205c-6.4,0.1-12.5-2.4-17-7c-4.6-4.5-7.1-10.6-7-17V25.3
	c-0.1-13.2,10.6-24.9,23.8-25c0.1,0,0.1,0,0.2,0h102c13.2-0.1,23.9,11.6,24,24.8c0,0.1,0,0.1,0,0.2V487.8z"/>
</svg>
