<?xml version="1.0" encoding="utf-8"?>
<!-- Generator: Adobe Illustrator 24.2.0, SVG Export Plug-In . SVG Version: 6.00 Build 0)  -->
<svg version="1.1" id="Layer_1" xmlns="http://www.w3.org/2000/svg" xmlns:xlink="http://www.w3.org/1999/xlink" x="0px" y="0px"
	 viewBox="0 0 576 512" style="enable-background:new 0 0 576 512;" xml:space="preserve">
<style type="text/css">
	.st0{fill:#1D1D1B;}
</style>
<path class="st0" d="M447.1,196.2c-25.5-37.2-86.9-89.9-158.6-89.9S155.4,159,129.9,196.2C51.7,216.6,0,251.6,0,291.5
	c0,63,129.2,114,288.5,114s288.5-51,288.5-114C577,251.6,525.3,216.6,447.1,196.2z M288.5,135.8c74.3,0,134.5,67.5,134.5,87.2
	s-60.2,35.8-134.5,35.8S154,242.8,154,223S214.2,135.8,288.5,135.8z M213.8,342.1c-1.4,9.4-21.8,14.2-45.6,10.6
	c-23.8-3.5-41.9-14-40.5-23.4c1.4-9.4,21.8-14.2,45.6-10.6C197,322.2,215.2,332.7,213.8,342.1z M288.5,366.2
	c-24,0-43.5-7.7-43.5-17.2c0-9.5,19.5-17.2,43.5-17.2c24,0,43.5,7.7,43.5,17.2C332,358.5,312.5,366.2,288.5,366.2z M408.8,352.7
	c-23.8,3.5-44.2-1.2-45.6-10.6c-1.4-9.4,16.8-19.9,40.5-23.4s44.2,1.2,45.6,10.6C450.7,338.7,432.6,349.2,408.8,352.7z"/>
</svg>
