<?xml version="1.0" encoding="utf-8"?>
<svg version="1.1" id="Layer_1" xmlns="http://www.w3.org/2000/svg" xmlns:xlink="http://www.w3.org/1999/xlink" x="0px" y="0px"
	 viewBox="0 0 512 512" style="enable-background:new 0 0 512 512;" xml:space="preserve">
<path d="M256,160h-96v96h96V160z M256,352h96v-96h-96V352z M480,0H32C14.3,0,0,14.3,0,32v448c0,17.7,14.3,32,32,32h448
	c17.7,0,32-14.3,32-32V32C512,14.3,497.7,0,480,0z M448,160h-96v96h96v96h-96v96h-96v-96h-96v96H64v-96h96v-96H64v-96h96V64h96v96
	h96V64h96V160z"/>
</svg>
