<?xml version="1.0" encoding="utf-8"?>
<svg version="1.1" id="grid" class="icon" xmlns="http://www.w3.org/2000/svg" xmlns:xlink="http://www.w3.org/1999/xlink" x="0px" y="0px"
	 viewBox="0 0 512 512" style="enable-background:new 0 0 512 512;" xml:space="preserve">
<path class="icon" d="M121,149.3H28.3C12.8,149.3,0,136.6,0,121V28.3C0,12.8,12.8,0,28.3,0H121c15.6,0,28.3,12.8,28.3,28.3V121
	C149.3,136.6,136.6,149.3,121,149.3z"/>
<path class="icon" d="M302.3,149.3h-92.6c-15.6,0-28.3-12.8-28.3-28.3V28.3c0-15.6,12.8-28.3,28.3-28.3h92.6c15.6,0,28.3,12.8,28.3,28.3V121
	C330.7,136.6,317.9,149.3,302.3,149.3z"/>
<path class="icon" d="M483.7,149.3H391c-15.6,0-28.3-12.8-28.3-28.3V28.3C362.7,12.8,375.4,0,391,0h92.6C499.2,0,512,12.8,512,28.3V121
	C512,136.6,499.2,149.3,483.7,149.3z"/>
<path class="icon" d="M121,330.7H28.3C12.8,330.7,0,317.9,0,302.3v-92.6c0-15.6,12.8-28.3,28.3-28.3H121c15.6,0,28.3,12.8,28.3,28.3v92.6
	C149.3,317.9,136.6,330.7,121,330.7z"/>
<path class="icon" d="M302.3,330.7h-92.6c-15.6,0-28.3-12.8-28.3-28.3v-92.6c0-15.6,12.8-28.3,28.3-28.3h92.6c15.6,0,28.3,12.8,28.3,28.3v92.6
	C330.7,317.9,317.9,330.7,302.3,330.7z"/>
<path class="icon" d="M483.7,330.7H391c-15.6,0-28.3-12.8-28.3-28.3v-92.6c0-15.6,12.8-28.3,28.3-28.3h92.6c15.6,0,28.3,12.8,28.3,28.3v92.6
	C512,317.9,499.2,330.7,483.7,330.7z"/>
<path class="icon" d="M121,512H28.3C12.8,512,0,499.2,0,483.7V391c0-15.6,12.8-28.3,28.3-28.3H121c15.6,0,28.3,12.8,28.3,28.3v92.6
	C149.3,499.2,136.6,512,121,512z"/>
<path class="icon" d="M302.3,512h-92.6c-15.6,0-28.3-12.8-28.3-28.3V391c0-15.6,12.8-28.3,28.3-28.3h92.6c15.6,0,28.3,12.8,28.3,28.3v92.6
	C330.7,499.2,317.9,512,302.3,512z"/>
<path class="icon" d="M483.7,512H391c-15.6,0-28.3-12.8-28.3-28.3V391c0-15.6,12.8-28.3,28.3-28.3h92.6c15.6,0,28.3,12.8,28.3,28.3v92.6
	C512,499.2,499.2,512,483.7,512z"/>
</svg>
