<?xml version="1.0" encoding="utf-8"?>
<!-- Generator: Adobe Illustrator 24.1.3, SVG Export Plug-In . SVG Version: 6.00 Build 0)  -->
<svg version="1.1" id="Layer_1" xmlns="http://www.w3.org/2000/svg" xmlns:xlink="http://www.w3.org/1999/xlink" x="0px" y="0px"
	 viewBox="0 0 512 512" style="enable-background:new 0 0 512 512;" xml:space="preserve">
<path d="M504,20v160c0,6.6-5.4,12-12,12H332c-6.6,0-12-5.4-12-12v-10c0-6.6,5.4-12,12-12h114.3C410.7,89.1,338.9,42,256,42
	C137.3,42,42,138.3,42,256c0,118.7,96.3,214,214,214c55.1,0,105.2-20.8,143.1-54.9c4.7-4.3,12-4,16.5,0.5l7.1,7.1
	c4.9,4.9,4.6,12.8-0.5,17.4C378.2,479.8,319.9,504,256,504C119.2,504,8.2,393.2,8,256.4C7.8,120,118.8,8.4,255.2,8
	C346.8,7.7,426.8,57,470,130.6V20c0-6.6,5.4-12,12-12h10C498.6,8,504,13.4,504,20z"/>
<path d="M299.3,276.3c0-23.9-19.4-43.3-43.3-43.3s-43.3,19.4-43.3,43.3c0,16.7,9.5,31.2,23.3,38.4V367c0,11,9,20,20,20s20-9,20-20
	v-52.3C289.8,307.5,299.3,293,299.3,276.3z"/>
</svg>
