<?xml version="1.0" encoding="utf-8"?>
<svg version="1.1" id="lock-asterisks" xmlns="http://www.w3.org/2000/svg" xmlns:xlink="http://www.w3.org/1999/xlink" x="0px" y="0px"
	 viewBox="0 0 448 512" style="enable-background:new 0 0 448 512;" xml:space="preserve">
<path class="color0" d="M400,224h-16v-62.5C384,73.1,312.9,0.3,224.5,0C136-0.3,64,71.6,64,160v64H48c-26.5,0-48,21.5-48,48v192
	c0,26.5,21.5,48,48,48h352c26.5,0,48-21.5,48-48V272C448,245.5,426.5,224,400,224z M96,160c0-70.6,57.4-128,128-128
	s128,57.4,128,128v64H96V160z M400,480H48c-8.8,0-16-7.2-16-16V272c0-8.8,7.2-16,16-16h352c8.8,0,16,7.2,16,16v192
	C416,472.8,408.8,480,400,480z"/>
<path class="color0" d="M160.4,394.8l-32.9-19l32.9-19c1-0.6,1.4-1.9,0.8-2.9l-0.7-1.2c-0.6-1-1.9-1.4-2.9-0.8l-32.9,19v-38c0-1.2-0.9-2.1-2.1-2.1
	h-1.4c-1.2,0-2.1,0.9-2.1,2.1v38l-32.9-19c-1-0.6-2.3-0.2-2.9,0.8l-0.7,1.2c-0.6,1-0.2,2.3,0.8,2.9l32.9,19l-32.9,19
	c-1,0.6-1.4,1.9-0.8,2.9l0.7,1.2c0.6,1,1.9,1.4,2.9,0.8l32.9-19v38c0,1.2,0.9,2.1,2.1,2.1h1.4c1.2,0,2.1-0.9,2.1-2.1v-38l32.9,19
	c1,0.6,2.3,0.2,2.9-0.8l0.7-1.2C161.7,396.6,161.4,395.4,160.4,394.8z"/>
<path class="color0" d="M265.4,394.8l-32.9-19l32.9-19c1-0.6,1.4-1.9,0.8-2.9l-0.7-1.2c-0.6-1-1.9-1.4-2.9-0.8l-32.9,19v-38c0-1.2-0.9-2.1-2.1-2.1
	h-1.4c-1.2,0-2.1,0.9-2.1,2.1v38l-32.9-19c-1-0.6-2.3-0.2-2.9,0.8l-0.7,1.2c-0.6,1-0.2,2.3,0.8,2.9l32.9,19l-32.9,19
	c-1,0.6-1.4,1.9-0.8,2.9l0.7,1.2c0.6,1,1.9,1.4,2.9,0.8l32.9-19v38c0,1.2,0.9,2.1,2.1,2.1h1.4c1.2,0,2.1-0.9,2.1-2.1v-38l32.9,19
	c1,0.6,2.3,0.2,2.9-0.8l0.7-1.2C266.7,396.6,266.4,395.4,265.4,394.8z"/>
<path class="color0" d="M370.4,394.8l-32.9-19l32.9-19c1-0.6,1.4-1.9,0.8-2.9l-0.7-1.2c-0.6-1-1.9-1.4-2.9-0.8l-32.9,19v-38c0-1.2-0.9-2.1-2.1-2.1
	h-1.4c-1.2,0-2.1,0.9-2.1,2.1v38l-32.9-19c-1-0.6-2.3-0.2-2.9,0.8l-0.7,1.2c-0.6,1-0.2,2.3,0.8,2.9l32.9,19l-32.9,19
	c-1,0.6-1.4,1.9-0.8,2.9l0.7,1.2c0.6,1,1.9,1.4,2.9,0.8l32.9-19v38c0,1.2,0.9,2.1,2.1,2.1h1.4c1.2,0,2.1-0.9,2.1-2.1v-38l32.9,19
	c1,0.6,2.3,0.2,2.9-0.8l0.7-1.2C371.7,396.6,371.4,395.4,370.4,394.8z"/>
</svg>
