<?xml version="1.0" encoding="utf-8"?>
<!-- Generator: Adobe Illustrator 24.1.3, SVG Export Plug-In . SVG Version: 6.00 Build 0)  -->
<svg version="1.1" id="Layer_1" xmlns="http://www.w3.org/2000/svg" xmlns:xlink="http://www.w3.org/1999/xlink" x="0px" y="0px"
	 viewBox="0 0 448 512" style="enable-background:new 0 0 448 512;" xml:space="preserve">
<path d="M448,272v192c0,26.5-21.5,48-48,48H48c-26.5,0-48-21.5-48-48V272c0-26.5,21.5-48,48-48h16v-64C64,71.6,136-0.3,224.5,0
	C312.9,0.3,384,73.1,384,161.5V224h16C426.5,224,448,245.5,448,272z M96,224h256v-64c0-70.6-57.4-128-128-128S96,89.4,96,160V224z
	 M416,464V272c0-8.8-7.2-16-16-16H48c-8.8,0-16,7.2-16,16v192c0,8.8,7.2,16,16,16h352C408.8,480,416,472.8,416,464z"/>
<path d="M267.3,339.2c0-23.9-19.4-43.3-43.3-43.3s-43.3,19.4-43.3,43.3c0,16.7,9.5,31.2,23.3,38.4v52.3c0,11,9,20,20,20s20-9,20-20
	v-52.3C257.8,370.4,267.3,355.9,267.3,339.2z"/>
</svg>
