<?xml version="1.0" encoding="utf-8"?>
<svg version="1.1" id="Layer_2" xmlns="http://www.w3.org/2000/svg" xmlns:xlink="http://www.w3.org/1999/xlink" x="0px" y="0px"
	 viewBox="0 0 512 512" style="enable-background:new 0 0 512 512;" xml:space="preserve">
<path id="packery" class="icon" d="M149,23.8c0.1-6.4-2.4-12.5-7-17c-4.5-4.6-10.6-7.1-17-7H24c-6.4-0.1-12.5,2.4-17,7
	c-4.6,4.5-7.1,10.6-7,17v137.6c-0.1,6.4,2.4,12.5,7,17c4.5,4.6,10.6,7.1,17,7h101c13.2,0.1,23.9-10.6,24-23.8c0-0.1,0-0.1,0-0.2
	V23.8z M331,357.9c0.1,13.2-10.6,23.9-23.8,24c-0.1,0-0.1,0-0.2,0H205c-13.2,0.1-23.9-10.6-24-23.8c0-0.1,0-0.1,0-0.2V186.5
	c-0.1-13.2,10.6-23.9,23.8-24c0.1,0,0.1,0,0.2,0h102c13.2-0.1,23.9,10.6,24,23.8c0,0.1,0,0.1,0,0.2L331,357.9L331,357.9z M363,23.8
	c-0.1-6.4,2.4-12.5,7-17c4.5-4.6,10.6-7.1,17-7h101c6.4-0.1,12.5,2.4,17,7c4.6,4.5,7.1,10.6,7,17v155.9c0.1,13.2-10.6,23.9-23.8,24
	c-0.1,0-0.1,0-0.2,0H387c-13.2,0.1-23.9-10.6-24-23.8c0-0.1,0-0.1,0-0.2C363,179.7,363,23.8,363,23.8z M331,106.5
	c0.1,13.2-10.6,23.9-23.8,24c-0.1,0-0.1,0-0.2,0H205c-13.2,0.1-23.9-10.6-24-23.8c0-0.1,0-0.1,0-0.2V23.8c-0.1-6.4,2.4-12.5,7-17
	c4.5-4.6,10.6-7.1,17-7h102c6.4-0.1,12.5,2.4,17,7c4.6,4.5,7.1,10.6,7,17V106.5z M125,217.4c13.2-0.1,23.9,10.6,24,23.8
	c0,0.1,0,0.1,0,0.2v25.1c0.1,13.2-10.6,23.9-23.8,24c-0.1,0-0.1,0-0.2,0H24c-6.4,0.1-12.5-2.4-17-7c-4.6-4.5-7.1-10.6-7-17v-25.1
	c-0.1-6.4,2.4-12.5,7-17c4.5-4.6,10.6-7.1,17-7L125,217.4L125,217.4z M0,346.5c-0.1-6.4,2.4-12.5,7-17c4.5-4.6,10.6-7.1,17-7h101
	c13.2-0.1,23.9,10.6,24,23.8c0,0.1,0,0.1,0,0.2v142.3c0.1,13.2-10.6,22.9-23.8,23c-0.1,0-0.1,0-0.2,0H24c-6.4,0.1-12.5-2.4-17-7
	c-4.6-4.5-7.1-9.6-7-16C0,488.8,0,346.5,0,346.5z M387,363.6c-13.2,0.1-23.9-10.6-24-23.8c0-0.1,0-0.1,0-0.2v-80
	c-0.1-13.2,10.6-23.9,23.8-24c0.1,0,0.1,0,0.2,0h101c13.2-0.1,23.9,10.6,24,23.8c0,0.1,0,0.1,0,0.2v80c0.1,13.2-10.6,23.9-23.8,24
	c-0.1,0-0.1,0-0.2,0H387z M387,511.8c-13.2,0-23.9-10.6-24-23.8c0-0.1,0-0.1,0-0.2v-68.1c-0.1-13.2,10.6-23.9,23.8-24
	c0.1,0,0.1,0,0.2,0h101c13.2-0.1,23.9,10.6,24,23.8c0,0.1,0,0.1,0,0.2v68.1c0.1,13.2-10.6,23.9-23.8,24c-0.1,0-0.1,0-0.2,0
	L387,511.8L387,511.8z M331,486.3c0.1,13.2-10.6,24.9-23.8,25c-0.1,0-0.1,0-0.2,0H205c-13.2,0.1-23.9-11.6-24-24.8
	c0-0.1,0-0.1,0-0.2v-43.9c-0.1-13.2,10.6-23.9,23.8-24c0.1,0,0.1,0,0.2,0h102c13.2-0.1,23.9,10.6,24,23.8c0,0.1,0,0.1,0,0.2V486.3z"
	/>
</svg>
