<?xml version="1.0" encoding="utf-8"?>
<!-- Generator: Adobe Illustrator 24.2.1, SVG Export Plug-In . SVG Version: 6.00 Build 0)  -->
<svg version="1.1" id="Layer_2_1_" xmlns="http://www.w3.org/2000/svg" xmlns:xlink="http://www.w3.org/1999/xlink" x="0px" y="0px"
	 viewBox="0 0 512 512" style="enable-background:new 0 0 512 512;" xml:space="preserve">
<path d="M42.8,440c7,7.1,16.4,11,26.3,10.8h43v22.9H112c-0.2,9.9,3.7,19.3,10.8,26.3c7,7.1,16.4,11,26.3,10.8h293.8
	c9.9,0.2,19.3-3.7,26.3-10.8c7.1-7,11-16.4,10.8-26.3V98.3c0.2-9.9-3.7-19.3-10.8-26.3c-7-7.1-16.4-11-26.3-10.8H400V38.3
	c0.2-9.9-3.7-19.3-10.8-26.3c-7-7.1-16.4-11-26.3-10.8H69.2C48.8,1,32.2,17.6,32.1,38c0,0.2,0,0.2,0,0.3v375.4H32
	C31.8,423.6,35.7,433,42.8,440z M443,92.4c0.2,0,0.7,0,0.7,0c1.2,0,2.4,0.5,3.4,1.5c0.1,0.1,0.2,0.2,0.3,0.3c1,1,1.5,2.2,1.5,3.5
	c0,0.2,0,0.4,0,0.6v375.4c0,0.2,0,0.4,0,0.6c0,1.3-0.5,2.4-1.5,3.5c-0.1,0.1-0.2,0.2-0.3,0.3c-1,1-2.1,1.5-3.4,1.5
	c-0.2,0-0.5,0-0.7,0H149.2c-0.2,0-0.6,0-0.6,0c-1.3,0-2.5-0.5-3.5-1.5c-0.1-0.1-0.2-0.2-0.3-0.3c-0.8-0.8-1.3-1.6-1.4-2.6
	c-0.1-0.5-0.1-1-0.1-1.5V98.1c0-3.2,2.5-5.7,5.6-5.7C149,92.4,443,92.4,443,92.4z M63.3,38.1c0-3.2,2.5-5.7,5.6-5.7
	c0.1,0,294.1,0,294.1,0c0.2,0,0.7,0,0.7,0c1.2,0,2.4,0.5,3.4,1.5c0.1,0.1,0.2,0.2,0.3,0.3c1,1,1.5,2.2,1.5,3.5c0,0.2,0,0.4,0,0.6
	v22.9H149.2c-20.4-0.2-37,16.4-37.1,36.8c0,0.2,0,0.2,0,0.3v321.3H69.2c-0.2,0-0.6,0-0.6,0c-1.3,0-2.5-0.5-3.5-1.5
	c-0.1-0.1-0.2-0.2-0.3-0.3c-0.8-0.8-1.3-1.6-1.4-2.6c-0.1-0.5-0.1-1-0.1-1.5V38.1z"/>
</svg>
