<?xml version="1.0" encoding="utf-8"?>
<!-- Generator: Adobe Illustrator 24.2.1, SVG Export Plug-In . SVG Version: 6.00 Build 0)  -->
<svg version="1.1" id="Layer_2_1_" xmlns="http://www.w3.org/2000/svg" xmlns:xlink="http://www.w3.org/1999/xlink" x="0px" y="0px"
	 viewBox="0 0 448 512" style="enable-background:new 0 0 448 512;" xml:space="preserve">
<g>
	<path d="M370.9,31.1H77.1c-9.9-0.2-19.3,3.7-26.3,10.8c-7.1,7-11,16.4-10.8,26.3v375.4c-0.2,9.9,3.7,19.3,10.8,26.3
		c7,7.1,16.4,11,26.3,10.8h293.7c20.4,0.2,37-16.4,37.1-36.8c0-0.2,0-0.2,0-0.3V68.2h0.1c0.2-9.9-3.7-19.3-10.8-26.3
		C390.2,34.8,380.8,30.9,370.9,31.1z M376.7,68.2v375.6c0,3.2-2.5,5.7-5.6,5.7c-0.1,0-294.1,0-294.1,0c-0.2,0-0.7,0-0.7,0
		c-1.2,0-2.4-0.5-3.4-1.5c-0.1-0.1-0.2-0.2-0.3-0.3c-1-1-1.5-2.2-1.5-3.5c0-0.2,0-0.4,0-0.6V68.2c0-0.2,0-0.4,0-0.6
		c0-1.3,0.5-2.4,1.5-3.5c0.1-0.1,0.2-0.2,0.3-0.3c1-1,2.1-1.5,3.4-1.5c0.2,0,0.5,0,0.7,0h293.8c0.2,0,0.6,0,0.6,0
		c1.3,0,2.5,0.5,3.5,1.5c0.1,0.1,0.2,0.2,0.3,0.3c0.8,0.8,1.3,1.6,1.4,2.6C376.7,67.2,376.7,67.7,376.7,68.2z"/>
</g>
</svg>
