<?xml version="1.0" encoding="utf-8"?>
<svg version="1.1" id="Layer_2_1_" xmlns="http://www.w3.org/2000/svg" xmlns:xlink="http://www.w3.org/1999/xlink" x="0px" y="0px"
	 viewBox="0 0 512 512" style="enable-background:new 0 0 512 512;" xml:space="preserve">
<path id="rows" class="icon" d="M489,511.8c6.4,0.1,11.5-2.4,16-7c4.6-4.5,7.1-10.6,7-17v-101c0-0.1,0-0.1,0-0.2
	c-0.1-13.2-9.8-23.9-23-23.8H24c-6.4-0.1-12.5,2.4-17,7c-4.6,4.5-7.1,10.6-7,17v101c-0.1,6.4,2.4,12.5,7,17c4.5,4.6,10.6,7.1,17,7
	H489z M24,148.8c-6.4,0.1-12.5-2.4-17-7c-4.6-4.5-7.1-10.6-7-17v-101c-0.1-6.4,2.4-12.5,7-17c4.5-4.6,10.6-7.1,17-7h464
	c13.2-0.1,23.9,10.6,24,23.8c0,0.1,0,0.1,0,0.2v101l0,0c0,13.2-10.6,23.9-23.8,24c-0.1,0-0.1,0-0.2,0H24z M24,330.8
	c-6.4,0.1-12.5-2.4-17-7c-4.6-4.5-7.1-10.6-7-17v-102c-0.1-6.4,2.4-12.5,7-17c4.5-4.6,10.6-7.1,17-7h462.5
	c13.2-0.1,24.9,10.6,25,23.8c0,0.1,0,0.1,0,0.2v102c0.1,13.2-11.6,23.9-24.8,24c-0.1,0-0.1,0-0.2,0H24z"/>
</svg>
