<?xml version="1.0" encoding="utf-8"?>
<!-- Generator: Adobe Illustrator 24.1.0, SVG Export Plug-In . SVG Version: 6.00 Build 0)  -->
<svg version="1.1" id="Layer_1" xmlns="http://www.w3.org/2000/svg" xmlns:xlink="http://www.w3.org/1999/xlink" x="0px" y="0px"
	 viewBox="0 0 448 512" style="enable-background:new 0 0 448 512;" xml:space="preserve">
<path d="M352,320c-28.6,0-54.2,12.5-71.8,32.3l-95.5-59.7c9.6-23.4,9.7-49.8,0-73.2l95.5-59.7c17.6,19.8,43.2,32.3,71.8,32.3
	c53,0,96-43,96-96S405,0,352,0s-96,43-96,96c0,13,2.6,25.3,7.2,36.6l-95.5,59.7C150.2,172.5,124.6,160,96,160c-53,0-96,43-96,96
	s43,96,96,96c28.6,0,54.2-12.5,71.8-32.3l95.5,59.7c-4.7,11.3-7.2,23.6-7.2,36.6c0,53,43,96,96,96s96-43,96-96
	C448,363,405,320,352,320L352,320z"/>
</svg>
