<?xml version="1.0" encoding="utf-8"?>
<!-- Generator: Adobe Illustrator 24.1.0, SVG Export Plug-In . SVG Version: 6.00 Build 0)  -->
<svg version="1.1" id="Layer_1" xmlns="http://www.w3.org/2000/svg" xmlns:xlink="http://www.w3.org/1999/xlink" x="0px" y="0px"
	 viewBox="0 0 448 512" style="enable-background:new 0 0 448 512;" xml:space="preserve">
<g>
	<path d="M253.6,270.8c0,0,0.6-13.2-16.7-17l0,0c0,0,9.8-3.7,9.8-13.7c0,0,1.5-16.3-22.7-18.3h-26.8V290h30.7
		C227.9,290,253.6,290.1,253.6,270.8z M221.8,232.4c11.4,0.5,11,8.1,11,8.1c0,9.4-12.6,9.6-12.6,9.6h-9.3v-17.7l0,0H221.8z
		 M225.2,279.5h-14.4v-18.7h14.4c14.8-0.1,14.4,8.9,14.4,8.9C239.6,280.1,225.2,279.5,225.2,279.5z"/>
	<path d="M123.4,270.8c0,0,0.6-13.2-16.7-17v0c0,0,9.8-3.7,9.8-13.7c0,0,1.5-16.3-22.7-18.3H67V290h30.7
		C97.8,290,123.4,290.1,123.4,270.8z M80.6,232.4L80.6,232.4l11,0c11.4,0.5,11,8.1,11,8.1c0,9.4-12.6,9.6-12.6,9.6h-9.3V232.4z
		 M95,279.5H80.6v-18.7H95c14.8-0.1,14.4,8.9,14.4,8.9C109.4,280.1,95,279.5,95,279.5z"/>
	<path d="M338.2,287.4c26.9,9.5,50.1-2.8,50.1-2.8v-13.1c-17.3,9.9-30.1,8.5-30.1,8.5c-30.4-1.3-29.4-24.1-29.4-24.1
		c1.3-24.8,29.7-24.3,29.7-24.3c15.2,0.1,29,7.7,29,7.7v-12.6l0,0c-12.5-4.7-21.2-5.4-21.2-5.4c-14.5-1.2-22.5,1.5-22.5,1.5
		c-30.1,8.2-29.2,33.1-29.2,33.1C315.6,280.1,338.2,287.4,338.2,287.4z"/>
	<path d="M447.9,250.1c-0.3-182.1,0.4-165.3-7.3-180.6c-9.7-19.3-26.4-32.1-47.6-36.4c-7.9-1.6-332.7-1.3-340,0.3
		C27.7,39,8.1,57.9,1.8,82.6C0,89.7,0,93.2,0,256.3c0,164,0.1,166.7,1.9,173.4c1.8,6.7,6.2,16.4,10,22c3.1,4.6,11.4,12.6,17,16.4
		c6.7,4.5,13.9,7.8,22.3,10c6.1,1.7,14.2,1.8,172,1.8c163.2,0.1,165.7,0,172.9-1.8c28.1-7.1,47.6-29.1,51.1-57.5
		C447.9,414.6,448.1,365.9,447.9,250.1z M150.2,303.4H37.3v-95h112.9V303.4z M280.5,303.4H167.5v-95h112.9V303.4z M410.7,303.4
		H297.8v-95h112.9V303.4z"/>
</g>
</svg>
