<svg id="af642e43-3e81-4658-bb75-444178777645" data-name="Layer 1" xmlns="http://www.w3.org/2000/svg" viewBox="0 0 447.9735 447.887">
  <g>
    <path d="M389.7194,263.8474q0-10.4643-1.3428-13.6688c-.8967-2.1344-4.4067-3.1963-7.0222-3.1963q-3.8254,0-4.9606,2.7938-1.1388,2.8-1.1375,14.0767V307.48q0,10.8778,1.2891,13.9225,1.2969,3.0517,5.12,3.0478c2.6182,0,6.0712-1.0565,6.8655-3.1585q1.1871-3.1491,1.1886-15.136h0Z" transform="translate(0 -32.0395)"/>
    <path d="M274.3278,210.8394h0q-2.5412-1.4753-9.5536-1.4752V317.7283q9.2443,0,11.383-3.7151,2.1359-3.7124,2.1372-20.1965V229.8173q0-11.1939-.7133-14.35A6.7982,6.7982,0,0,0,274.3278,210.8394Z" transform="translate(0 -32.0395)"/>
    <path d="M447.9,250.1c-.3-182.1.4-165.3-7.3-180.6A66.8688,66.8688,0,0,0,393,33.1c-7.9-1.6-332.7-1.3-340,.3A67.4432,67.4432,0,0,0,1.8,82.6C0,89.7,0,93.2,0,256.3,0,420.3.1,423,1.9,429.7a85.9576,85.9576,0,0,0,10,22c3.1,4.6,11.4,12.6,17,16.4a71.7517,71.7517,0,0,0,22.3,10c6.1,1.7,14.2,1.8,172,1.8,163.2.1,165.7,0,172.9-1.8,28.1-7.1,47.6-29.1,51.1-57.5C447.9,414.6,448.1,365.9,447.9,250.1ZM59.7852,346.2142H16.901V181.13H59.7852Zm147.4793,0H169.8218l-.1351-111.4281L154.6886,346.2142h-26.754L112.1259,237.2123l-.1351,109.0019H74.4294V181.13h55.5992q2.4519,14.9917,5.1389,35.1839l6.1441,41.9384,9.9321-77.1223h56.0208ZM319.338,297.2424c0,14.7954-.8291,24.6927-2.2234,29.6774a22.3148,22.3148,0,0,1-7.2977,11.71,30.425,30.425,0,0,1-12.8637,5.9036q-7.66,1.6824-23.0686,1.6806v0H221.93V181.1292h31.9956c20.7558,0,32.6985.9537,40.0121,2.8532q10.975,2.8491,16.6922,9.3647a29.6315,29.6315,0,0,1,7.1465,14.5064c.9508,5.3281,1.5614,15.7979,1.5614,31.412ZM431.099,308.31q0,14.8491-2.0021,22.1176-2.0061,7.2708-9.4,12.6123a29.222,29.222,0,0,1-17.5623,5.3363c-4.86,0-11.1479-1.054-15.3574-3.1667a36.0291,36.0291,0,0,1-11.5532-9.5133l-2.6722,10.5185H333.9446V181.13h41.3121v53.7a34.0067,34.0067,0,0,1,11.4451-8.8568c4.2095-1.9453,10.5265-2.9261,15.4548-2.9261a37.7167,37.7167,0,0,1,14.7762,2.6479,21.248,21.248,0,0,1,9.5487,7.422,22.3822,22.3822,0,0,1,3.95,9.3539q.6651,4.5756.6676,19.5238Z" transform="translate(0 -32.0395)"/>
  </g>
</svg>
