<?xml version="1.0" encoding="utf-8"?>
<svg version="1.1" id="Layer_1" xmlns="http://www.w3.org/2000/svg" xmlns:xlink="http://www.w3.org/1999/xlink" x="0px" y="0px"
	 viewBox="0 0 384 512" style="enable-background:new 0 0 384 512;" xml:space="preserve">
<path class="off" d="M336,0H48C21.5,0,0,21.5,0,48v464l192-112l192,112V48C384,21.5,362.5,0,336,0z M352,456.3L192,363L32,456.3V48
	c0-8.8,7.2-16,16-16h288c8.8,0,16,7.2,16,16V456.3z"/>
<path class="on" d="M336,0H48C21.5,0,0,21.5,0,48v464l192-112l192,112V48C384,21.5,362.5,0,336,0z"/>
</svg>
