<?xml version="1.0" encoding="utf-8"?>
<svg version="1.1" id="Layer_1" xmlns="http://www.w3.org/2000/svg" xmlns:xlink="http://www.w3.org/1999/xlink" x="0px" y="0px"
	 viewBox="0 0 576 512" style="enable-background:new 0 0 576 512;" xml:space="preserve">
<path class="off" d="M544,272h-64V150.6l35.3-35.3c6.2-6.2,6.2-16.4,0-22.6c-6.2-6.2-16.4-6.2-22.6,0L457.4,128H417
	C417,57.3,359.8,0,289,0c-70.7,0-128,57.2-128,128h-42.4L75.3,84.7c-6.2-6.2-16.4-6.2-22.6,0c-6.2,6.2-6.2,16.4,0,22.6L96,150.6V272
	H32c-8.8,0-16,7.2-16,16c0,8.8,7.2,16,16,16h64v24c0,36.6,11.3,70.7,30.5,98.9l-57.8,57.8c-6.2,6.2-6.2,16.4,0,22.6
	c6.2,6.2,16.4,6.2,22.6,0l55.6-55.6C178.9,484,223.1,504,272,504h32c48.9,0,93.1-20,125.1-52.3l55.6,55.6c6.2,6.2,16.4,6.2,22.6,0
	c6.2-6.2,6.2-16.4,0-22.6l-57.8-57.8c19.2-28.2,30.5-62.3,30.5-98.9v-24h64c8.8,0,16-7.2,16-16C560,279.2,552.8,272,544,272z
	 M200.2,91.4c4.8,8.8,14.1,14.9,24.9,14.9c15.6,0,28.3-12.7,28.3-28.3c0-13.2-9-24.2-21.2-27.4C248.2,38.9,267.8,32,289,32
	c21.5,0,41.4,7.1,57.4,19c-11.3,3.7-19.5,14.3-19.5,26.9c0,15.6,12.7,28.3,28.3,28.3c9.8,0,18.4-5,23.5-12.6
	c4.1,10.7,6.3,22.2,6.3,34.3H193C193,115,195.6,102.7,200.2,91.4z M448,328c0,79.4-64.6,144-144,144V236c0-6.6-5.4-12-12-12h-8
	c-6.6,0-12,5.4-12,12v236c-79.4,0-144-64.6-144-144V160h320V328z"/>
<path class="on" d="M544,272h-64V150.6l35.3-35.3c6.2-6.2,6.2-16.4,0-22.6c-6.2-6.2-16.4-6.2-22.6,0L457.4,128H417
	C417,57.3,359.8,0,289,0c-70.7,0-128,57.2-128,128h-42.4L75.3,84.7c-6.2-6.2-16.4-6.2-22.6,0c-6.2,6.2-6.2,16.4,0,22.6L96,150.6V272
	H32c-8.8,0-16,7.2-16,16c0,8.8,7.2,16,16,16h64v24c0,36.6,11.3,70.7,30.5,98.9l-57.8,57.8c-6.2,6.2-6.2,16.4,0,22.6
	c6.2,6.2,16.4,6.2,22.6,0l55.6-55.6C178.9,484,223.1,504,272,504h32c48.9,0,93.1-20,125.1-52.3l55.6,55.6c6.2,6.2,16.4,6.2,22.6,0
	c6.2-6.2,6.2-16.4,0-22.6l-57.8-57.8c19.2-28.2,30.5-62.3,30.5-98.9v-24h64c8.8,0,16-7.2,16-16C560,279.2,552.8,272,544,272z
	 M225.1,106.2c-10.8,0-20.1-6-24.9-14.9c7.3-16.2,18.1-29.7,32-40.8c12.2,3.2,21.2,14.2,21.2,27.4
	C253.4,93.6,240.8,106.2,225.1,106.2z M305,503.9h-32V236c0-6.6,5.4-12,12-12h8c6.6,0,12,5.4,12,12V503.9z M355.1,106.2
	c-15.6,0-28.3-12.7-28.3-28.3c0-12.6,8.2-23.2,19.5-26.9C360.6,62,372,75.7,378.7,93.7C373.6,101.2,365,106.2,355.1,106.2z"/>
</svg>
