<svg id="a0cdee55-437e-4023-bffc-bd52383fd370" xmlns="http://www.w3.org/2000/svg" viewBox="0 0 512 448">
<path class="off" d="M324.3,64a8.1172,8.1172,0,0,1,7.5,5.2L353.9,128H464a16.047,16.047,0,0,1,16,16V432a16.047,16.047,0,0,1-16,16H48a16.047,16.047,0,0,1-16-16V144a16.047,16.047,0,0,1,16-16H158.2l20.1-53.6a16.0334,16.0334,0,0,1,15-10.4h131m0-32h-131a47.933,47.933,0,0,0-44.9,31.1L136,96H48A48.0124,48.0124,0,0,0,0,144V432a48.0124,48.0124,0,0,0,48,48H464a48.0124,48.0124,0,0,0,48-48V144a48.0124,48.0124,0,0,0-48-48H376L361.7,58a39.7681,39.7681,0,0,0-37.4-26ZM256,408A120,120,0,1,1,376,288,120.0951,120.0951,0,0,1,256,408Zm0-208a88,88,0,1,0,88,88A88.13,88.13,0,0,0,256,200Z" transform="translate(0 -32)"/>
<path class="on" d="M322,284v8a12.0353,12.0353,0,0,1-12,12H272v38a12.0353,12.0353,0,0,1-12,12h-8a12.0353,12.0353,0,0,1-12-12V304H202a12.0353,12.0353,0,0,1-12-12v-8a12.0353,12.0353,0,0,1,12-12h38V234a12.0353,12.0353,0,0,1,12-12h8a12.0353,12.0353,0,0,1,12,12v38h38A12.0353,12.0353,0,0,1,322,284Z" transform="translate(0 -32)"/>
</svg>
