<?xml version="1.0" encoding="utf-8"?>
<!-- Generator: Adobe Illustrator 24.2.0, SVG Export Plug-In . SVG Version: 6.00 Build 0)  -->
<svg version="1.1" id="Layer_1" xmlns="http://www.w3.org/2000/svg" xmlns:xlink="http://www.w3.org/1999/xlink" x="0px" y="0px"
	 viewBox="0 0 1517.8 1214.2" style="enable-background:new 0 0 1517.8 1214.2;" xml:space="preserve">
<style type="text/css">
	.st0{fill:none;}
	.st1{font-family:'MyriadPro-Regular';}
	.st2{font-size:80px;}
	.st3{font-size:40px;}
</style>
<g>
	<path d="M751.4,399.7c-4.7-4.7-12.3-4.7-17,0L636.1,498c-4.7,4.7-4.7,12.3,0,17l5.7,5.7c4.7,4.7,12.3,4.7,17,0l68.2-68.2v150.7
		c0,6.6,5.4,12,12,12h8c6.6,0,12-5.4,12-12V452.5l68.2,68.2c4.7,4.7,12.3,4.7,17,0l5.7-5.7c4.7-4.7,4.7-12.3,0-17L751.4,399.7
		L751.4,399.7z M1010.6,470c2.8-9.9,4.3-20.2,4.3-30.8c0-61.9-50.1-112-112-112c-16.7,0-32.9,3.6-48,10.8
		c-31.6-45-84.3-74.8-144-74.8c-94.4,0-171.7,74.5-175.8,168.2c-57,20-96.2,74.1-96.2,135.8c0,79.6,64.4,144,144,144h368
		c70.7,0,128-57.2,128-128C1078.9,536.2,1053.1,492.4,1010.6,470z M950.9,679.2h-368c-61.9,0-112-50.1-112-112
		c0-56.8,42.2-103.7,97-111c-0.7-5.6-1-11.3-1-17c0-79.5,64.5-144,144-144c60.3,0,111.9,37,133.4,89.6
		c14.6-15.7,35.4-25.6,58.6-25.6c44.2,0,80,35.8,80,80c0,18.5-6.3,35.6-16.9,49.2c45.9,7.2,80.9,46.9,80.9,94.8
		C1046.9,636.2,1003.9,679.2,950.9,679.2z"/>
	<rect x="270.1" y="793.4" class="st0" width="977.6" height="157.7"/>
	<text transform="matrix(1 0 0 1 389.0944 850.1948)"><tspan x="0" y="0" class="st1 st2">Drag &amp; Drop an image</tspan><tspan x="-5.3" y="64" class="st1 st3">or click to browse &amp; upload something pretty</tspan></text>
</g>
</svg>
