<?xml version="1.0" encoding="utf-8"?>
<svg version="1.1" id="users" xmlns="http://www.w3.org/2000/svg" xmlns:xlink="http://www.w3.org/1999/xlink" x="0px" y="0px"
	 viewBox="0 0 512 512" style="enable-background:new 0 0 512 512;" xml:space="preserve">
<path class="off" d="M416,224.1c44.2,0,80-35.8,80-80s-35.8-80-80-80s-80,35.8-80,80S371.8,224.1,416,224.1z M416,96.1c26.5,0,48,21.5,48,48
	s-21.5,48-48,48s-48-21.5-48-48S389.5,96.1,416,96.1z M192,256.1c61.9,0,112-50.1,112-112s-50.1-112-112-112S80,82.2,80,144.1
	S130.1,256.1,192,256.1z M192,64.1c44.1,0,80,35.9,80,80s-35.9,80-80,80s-80-35.9-80-80S147.9,64.1,192,64.1z M436,256.1h-40
	c-15.2,0-29.3,4.8-41.1,12.9c9.4,6.4,17.9,13.9,25.4,22.4c4.9-2.1,10.2-3.3,15.7-3.3h40c24.2,0,44,21.5,44,48c0,8.8,7.2,16,16,16
	s16-7.2,16-16C512,292,477.9,256.1,436,256.1z M272.1,276.1c-33.4,0-41.7,12-80.1,12s-46.7-12-80.1-12c-36.3,0-71.6,16.2-92.3,46.9
	C7.2,341.4,0,363.5,0,387.3v44.8c0,26.5,21.5,48,48,48h288c26.5,0,48-21.5,48-48v-44.8c0-23.8-7.2-45.9-19.6-64.3
	C343.7,292.3,308.4,276.1,272.1,276.1L272.1,276.1z M352,432.1c0,8.8-7.2,16-16,16H48c-8.8,0-16-7.2-16-16v-44.8
	c0-16.6,4.9-32.7,14.1-46.4c13.8-20.5,38.4-32.8,65.7-32.8c27.4,0,37.2,12,80.2,12s52.8-12,80.1-12s51.9,12.3,65.7,32.8
	c9.2,13.7,14.1,29.8,14.1,46.4v44.8H352z"/>
<path class="on" d="M416,224.1c44.2,0,80-35.8,80-80s-35.8-80-80-80s-80,35.8-80,80S371.8,224.1,416,224.1z M416,96.1c26.5,0,48,21.5,48,48
	s-21.5,48-48,48s-48-21.5-48-48S389.5,96.1,416,96.1z M192,256.1c61.9,0,112-50.1,112-112s-50.1-112-112-112S80,82.2,80,144.1
	S130.1,256.1,192,256.1z M436,256.1h-40c-15.2,0-29.3,4.8-41.1,12.9c9.4,6.4,17.9,13.9,25.4,22.4c4.9-2.1,10.2-3.3,15.7-3.3h40
	c24.2,0,44,21.5,44,48c0,8.8,7.2,16,16,16s16-7.2,16-16C512,292,477.9,256.1,436,256.1z M272.1,276.1c-33.4,0-41.7,12-80.1,12
	s-46.7-12-80.1-12c-36.3,0-71.6,16.2-92.3,46.9C7.2,341.4,0,363.5,0,387.3v44.8c0,26.5,21.5,48,48,48h288c26.5,0,48-21.5,48-48
	v-44.8c0-23.8-7.2-45.9-19.6-64.3C343.7,292.3,308.4,276.1,272.1,276.1L272.1,276.1z"/>
</svg>
