<?xml version="1.0" encoding="utf-8"?>
<svg version="1.1" id="users" xmlns="http://www.w3.org/2000/svg" xmlns:xlink="http://www.w3.org/1999/xlink" x="0px" y="0px"
	 viewBox="0 0 512 512" style="enable-background:new 0 0 512 512;" xml:space="preserve">
<path class="off" d="M256,256.1c61.9,0,112-50.1,112-112s-50.1-112-112-112s-112,50.1-112,112S194.1,256.1,256,256.1z M256,64.1
	c44.1,0,80,35.9,80,80s-35.9,80-80,80s-80-35.9-80-80S211.9,64.1,256,64.1z M336.1,276.1c-33.4,0-41.7,12-80.1,12s-46.7-12-80.1-12
	c-36.3,0-71.6,16.2-92.3,46.9C71.2,341.4,64,363.5,64,387.3v44.8c0,26.5,21.5,48,48,48h288c26.5,0,48-21.5,48-48v-44.8
	c0-23.8-7.2-45.9-19.6-64.3C407.7,292.3,372.4,276.1,336.1,276.1L336.1,276.1z M416,432.1c0,8.8-7.2,16-16,16H112
	c-8.8,0-16-7.2-16-16v-44.8c0-16.6,4.9-32.7,14.1-46.4c13.8-20.5,38.4-32.8,65.7-32.8c27.4,0,37.2,12,80.2,12s52.8-12,80.1-12
	s51.9,12.3,65.7,32.8c9.2,13.7,14.1,29.8,14.1,46.4v44.8H416z"/>
<path class="on" d="M256,256.1c61.9,0,112-50.1,112-112s-50.1-112-112-112s-112,50.1-112,112S194.1,256.1,256,256.1z M336.1,276.1
	c-33.4,0-41.7,12-80.1,12s-46.7-12-80.1-12c-36.3,0-71.6,16.2-92.3,46.9C71.2,341.4,64,363.5,64,387.3v44.8c0,26.5,21.5,48,48,48
	h288c26.5,0,48-21.5,48-48v-44.8c0-23.8-7.2-45.9-19.6-64.3C407.7,292.3,372.4,276.1,336.1,276.1L336.1,276.1z"/>
</svg>
