<?xml version="1.0" encoding="utf-8"?>
<!-- Generator: Adobe Illustrator 24.2.1, SVG Export Plug-In . SVG Version: 6.00 Build 0)  -->
<svg version="1.1" xmlns="http://www.w3.org/2000/svg" xmlns:xlink="http://www.w3.org/1999/xlink" x="0px" y="0px"
	 viewBox="0 0 489 496.6" style="enable-background:new 0 0 489 496.6;" xml:space="preserve">
<style type="text/css">
	.st0{fill:#D1D6DD;}
	.st1{fill:#232326;}
	.st2{fill:#1D1D1B;}
	.st3{display:none;opacity:0.1;}
	.st4{display:inline;}
	.st5{fill:#FF1D8E;}
</style>
<g id="f6e87752-807c-4b16-bdda-bde41af2792f">
	<polygon class="st0" points="149.6,371.3 145.5,371.3 145.5,339 134.3,339 134.3,349.5 127.8,349.5 127.8,327.2 119.7,327.2 
		119.7,323.1 109.8,323.1 109.8,327.6 108.8,327.6 108.8,322.1 120.7,322.1 120.7,326.2 128.8,326.2 128.8,348.5 133.3,348.5 
		133.3,338 146.5,338 146.5,370.3 148.6,370.3 148.6,316.7 156.3,316.7 156.3,312.1 171.8,312.1 171.8,316.7 179,316.7 179,313 
		197.6,313 197.6,336.7 202.9,336.7 202.9,332.1 208.4,332.1 208.4,333.1 203.9,333.1 203.9,337.7 196.6,337.7 196.6,314 180,314 
		180,317.7 170.8,317.7 170.8,313.1 157.3,313.1 157.3,317.7 149.6,317.7 	"/>
	<polygon class="st0" points="85.4,390.4 77.2,390.4 77.2,380.1 73.5,376.5 73.5,366.7 52.8,366.7 52.8,379 51.8,379 51.8,365.7 
		74.5,365.7 74.5,376 78.2,379.7 78.2,389.4 84.4,389.4 84.4,364.8 93,364.8 93,365.8 85.4,365.8 	"/>
	<rect x="38.6" y="382.1" class="st0" width="7.8" height="1"/>
	<polygon class="st0" points="451.7,404.3 450.7,404.3 450.9,392.2 443.2,392.7 443.2,376.5 435.5,368.8 427.2,377.1 427.2,390.8 
		421,390.8 421,372.7 411.6,372.7 411.6,381.7 410.6,381.7 410.6,371.7 422,371.7 422,389.8 426.2,389.8 426.2,376.7 435.5,367.4 
		444.2,376 444.2,391.6 451.9,391.2 	"/>
	<polygon class="st0" points="394.8,368.6 380.7,368.6 380.7,358.1 367.2,358.1 367.2,351.9 358.6,343.3 349.3,343.3 338.7,354 
		338,353.3 348.9,342.3 359.1,342.3 368.2,351.5 368.2,357.1 381.7,357.1 381.7,367.6 394.8,367.6 	"/>
	<polygon class="st0" points="249.5,429 221.8,429 222.4,353.1 218,353.1 218,359 208.3,359 208.3,358 217,358 217,352.1 
		223.4,352.1 223.4,357.2 222.8,428 248.5,428 249.1,351.7 266.3,351.7 266.3,333.9 281.8,333.9 281.8,339.4 305.7,339.4 
		305.7,340.4 280.8,340.4 280.8,334.9 267.3,334.9 267.3,352.7 250.1,352.7 	"/>
	<polygon class="st0" points="48.8,448 48.8,415.3 80.6,411.8 80.6,448 85.6,448 85.6,403.5 109.2,403.5 109.2,448 113.4,448 
		113.4,433.2 115.6,430.9 115.6,373.9 121.7,373.9 121.7,357.9 133.3,357.9 151.9,379.7 151.9,431.7 156,431.7 156,352.4 
		168.9,339.4 182.6,353.1 182.6,448 185.5,448 185.5,378.1 208.3,378.1 208.3,371.2 223.2,371.2 223.2,379.4 228.8,379.4 
		228.8,435.4 241.2,435.4 241.2,334.4 264.1,334.4 264.1,391.7 268.2,391.7 268.2,386.3 274.6,386.3 274.6,393.5 280.5,393.5 
		280.5,399 286.4,399 286.4,406.7 292.8,406.7 292.8,349 311,349 311,353.5 314.1,353.5 314.1,349 330.5,349 330.5,352.2 
		336.4,352.2 336.4,406.2 340.5,406.2 340.5,369 354.6,377 354.6,392.5 364.6,392.5 364.6,366.6 372.3,366.6 372.3,361.6 
		385.9,361.6 385.9,369.3 397.7,369.3 397.7,376.6 404.1,376.6 404.1,429.3 411.8,421.2 411.8,410.3 418.2,404 418.2,389 433.6,389 
		433.6,406.7 437.3,406.7 437.3,416.2 445.9,416.2 445.9,436.2 449.5,436.2 449.5,448 227.4,448 	"/>
	<path class="st1" d="M489,0H363.4h-15.8H327H140.4H0v227h489V0z M475.6,213.5h-462v-200h462V213.5z"/>
	<path class="st1" d="M406.3,267v-7.2h55.1V257H27.5v2.8h55.1v7.2H0v5.7h82.7v2.5h23.7v-2.5h50.6v2.9h-2.3v3.8h8.8v-3.8H161v-2.9
		h52.9v2.9h-2.3v3.8h8.8v-3.8h-2.3v-2.9h8.2v172.8h6V272.7h5v172.8h25.6V272.7h8.2v2.9h-2.3v3.8h8.8v-3.8h-2.3v-2.9H328v2.9h-2.3
		v3.8h8.8v-3.8h-2.3v-2.9h50.6v2.5h23.7v-2.5H489V267H406.3z M156.9,267h-50.6v-7.2h50.6V267z M213.9,267H161v-7.2h52.9V267z
		 M226.2,267h-8.2v-7.2h4.1v5.2h4.1V267z M236.2,267h-6v-2h6V267z M271,267h-8.2v-2h4.1v-5.2h4.1L271,267z M328,267h-52.9v-7.2H328
		V267z M382.7,267h-50.6v-7.2h50.6V267z"/>
	<rect x="27.5" y="243.5" class="st1" width="433.9" height="2.8"/>
	<rect x="27.5" y="236.8" class="st1" width="433.9" height="2.8"/>
	<rect x="27.5" y="230" class="st1" width="433.9" height="2.8"/>
	<rect x="27.5" y="250.2" class="st1" width="433.9" height="2.8"/>
	<path class="st2" d="M267.7,440.8c-7.2-21.4,6.9-48.5,14.7-62.8c-7.8,6.7-14.3,14.8-19.2,23.8L237.5,366l-5.3-5l-2.1-1.6
		c0,0-10.5-7.8-13.5-10.1c3.3,3.7,6.5,7.5,9.4,11.5V406c-5.6-11.8-14.6-21.7-25.8-28.5c9.4,8.2,16.3,23.6,20,38.2
		c-3.4-1.2-7-2-10.6-2.3c6.2,3.1,9.3,5.8,12.1,9.3c1.5,7.4,2.4,14.9,2.6,22.4c-0.8-1.9-12.2-14.2-30.5-20.5
		c25,21.4,24.7,40.5,24.7,40.5h27.9c0.5,0-2.3-9.1,5-2.9c0.5-3.4,2.4-10.3-2-15.9c4.9,1.2,7.2,12.2,7.6,18.8h15
		c-0.5-1.5-0.6-3.1-0.5-4.6c-3.4-2.8-6.2-3-10.1-5c3.8,0.5,7.1,0.5,10.7,2.4c1.2-5.6,2.3-10.7,3.1-12.8c-1.3-1.6-3-2.6-4.1-3.9
		c1.6,0.8,3.1,1.7,4.6,2.6c4.8-8.8,15.5-26.4,23.2-32.9C285.9,413.3,271.4,429.9,267.7,440.8z M237.5,415.3c-2,3.4-3.4,7.1-4.1,10.9
		c-0.4-0.3-0.8-0.6-1.2-0.9v-55c2.3,5.3,4,10.8,5.3,16.4V415.3z"/>
	<path class="st2" d="M316.6,468.5c0.2-2.9,0.7-5.7,1.6-8.5c1.7-1.3,3.6-2.3,7.4-3.5c-2.2,0.1-4.4,0.4-6.6,0.9
		c2.3-5.5,6.5-11.3,12.3-14.4c-7.1,2.7-15.6,7.4-19.2,16.4c-2.1,0.9-4.3,2-4.3,2s-0.5-2.5-4-5.5c1.3-7.4,4.6-14.7,17.4-23.4
		c-10.1,4.9-24.5,11.1-29,29.6c-2.2-6.3-9.2-13.6-16.6-18.3c-0.2,0.4-0.3,0.8-0.5,1.3c4.6,5.7,12.1,15.2,8.4,21.9
		c-1.5-2.7-6.6-6.6-11.5-9c-0.1,0.9-0.4,1.7-0.5,2.6c4.4,3.7,9.5,9.3,9.5,15.5H295c1.1,0,2.2-5.5,6-7c-1.7,4-2.4,6.9-1.3,6.9
		c0.3-3,7.4-5.2,6.6,0.1c5.2,0.7,13.7,0,13.7,0s-0.2-7.2,15.3-15.3C324.1,463.2,317.1,467.8,316.6,468.5L316.6,468.5z"/>
	<g class="st3">
		<path class="st4" d="M48,121.7l65.8-78.2h38.8v80.6h17.6v31h-17.6v29.4H113v-29.4H48V121.7z M79.4,124.1H113v-43L79.4,124.1z"/>
		<path class="st4" d="M243.2,41.5c36.6,0,61,24.2,61,71c0,40.2-15.4,75-61,75c-45.6,0-61.2-34.4-61.2-74.8
			C182.2,60.9,211,41.5,243.2,41.5z M262.6,114.7c0-14.8,0.8-42-19.8-42c-18.8,0-19.2,29-19.2,42.4c0,24.6,3.8,41.2,19.6,41.2
			C258,156.3,262.6,138.3,262.6,114.7z"/>
		<path class="st4" d="M356,135.5c-0.2,6.4,1.6,11.6,5,15.2c3.4,3.6,8.6,5.6,15,5.6c12.2,0,18.6-8.2,18.6-16.4
			c0-16.2-16-15.6-26-15.6V99.7c9.8,0.8,24.8-1.2,24.8-14.4c0-9.2-8.2-12.6-16.4-12.6c-9.8,0-17,5-18.2,15h-37.6
			c1.4-32.4,27.6-46.2,57-46.2c33.4,0,54.2,15.4,54.2,39.4c0,12.8-5,22.2-16.4,27.8c12.8,5,20.2,15.6,20.2,29.4
			c0,32.8-24.6,49.4-62.4,49.4c-32.8,0-57.6-17-57-52H356z"/>
	</g>
</g>
<g id="Layer_2">
	<g>
		<path d="M169.5,101c-0.3-2.9-2.1-4.6-5-4.6c-3.2,0-5.2,2.8-5.2,8.2c0,3.9,0.9,7.7,5.5,7.7c3,0,4.4-2.1,4.7-4.8h8.9
			c-0.8,7.3-6,11.6-13.4,11.6c-9.3,0-14.9-5.7-14.9-14.8c0-9.1,6.2-14.8,14-14.8c8.6,0,13.4,4.3,14.1,11.5H169.5z"/>
		<path d="M180.1,118.3l10.1-28.1h9.4l10.1,28.1h-9.2l-1.1-3.7h-9.2l-1.1,3.7H180.1z M194.8,98.7l-2.9,10.1h5.8L194.8,98.7z"/>
		<path d="M212.8,90.2h9.2V107c0,2.8,0.5,5.2,4.3,5.2c3.3,0,4.3-2.1,4.3-5.2V90.2h9.2v15.9c0,9-4.2,13-13.5,13
			c-8.7,0-13.5-3.3-13.5-13V90.2z"/>
		<path d="M243.8,90.2h25.8v7.4h-8.3v20.7h-9.2V97.6h-8.3V90.2z"/>
		<path d="M273.7,118.3V90.2h9.2v28.1H273.7z"/>
		<path d="M317,104.1c0,9.6-6.4,15-14.8,15c-8.8,0-14.7-5.5-14.7-15c0-8.8,6-14.6,14.7-14.6C312.2,89.5,317,96.7,317,104.1z
			 M296.7,104.1c0,3.6,1.1,8.1,5.5,8.1c4,0,5.5-3.4,5.5-8.1c0-3.8-1.6-7.9-5.6-7.8C297.9,96.3,296.7,100.6,296.7,104.1z"/>
		<path d="M339.9,105.6l-0.4-6.4v-8.9h8.8v28.1h-8.6l-10-15.3l0.4,6.4v8.9h-8.8V90.2h8.6L339.9,105.6z"/>
		<path d="M153.4,136.9v4.9h-4.6v-14.1h6.6c4.7,0,6.2,1.3,6.2,4c0,1.6-0.7,3-2.4,3.4c1.5,0.5,2.4,0.9,2.4,3.7c0,1.8-0.1,2.5,0.5,2.5
			v0.4h-4.7c-0.1-0.3-0.2-1.2-0.2-2.5c0-1.8-0.3-2.4-2.5-2.4H153.4z M153.4,133.8h1.8c1.4,0,2.2-0.4,2.2-1.3c0-1-0.8-1.5-1.9-1.5
			h-2.1V133.8z"/>
		<path d="M164.3,141.8v-14.1h11.5v3.3h-6.9v2h5.8v3.3h-5.8v2.2h7.1v3.3H164.3z"/>
		<path d="M185.6,131.8c-0.1-0.5-0.3-0.8-0.7-1s-0.7-0.3-1.2-0.3c-1,0-1.5,0.3-1.5,0.8c0,2.1,8.1,0.8,8.1,5.9c0,3.3-2.7,4.8-6.6,4.8
			c-3.7,0-6.1-2.2-6.2-4.7h4.4c0.1,0.5,0.4,0.9,0.8,1.1c0.4,0.2,0.9,0.4,1.3,0.4c1.2,0,1.9-0.4,1.9-1c0-2.1-8.1-0.7-8.1-6
			c0-3,2.6-4.5,6.1-4.5c3.9,0,5.7,2,6,4.5H185.6z"/>
		<path d="M191.6,127.7h12.9v3.7h-4.1v10.4h-4.6v-10.4h-4.1V127.7z"/>
		<path d="M210.9,136.9v4.9h-4.6v-14.1h6.6c4.7,0,6.2,1.3,6.2,4c0,1.6-0.7,3-2.4,3.4c1.5,0.5,2.4,0.9,2.4,3.7c0,1.8-0.1,2.5,0.5,2.5
			v0.4H215c-0.1-0.3-0.2-1.2-0.2-2.5c0-1.8-0.3-2.4-2.5-2.4H210.9z M210.9,133.8h1.8c1.4,0,2.2-0.4,2.2-1.3c0-1-0.8-1.5-1.9-1.5
			h-2.1V133.8z"/>
		<path d="M221.8,141.8v-14.1h4.6v14.1H221.8z"/>
		<path d="M238,133.1c-0.1-1.5-1.1-2.3-2.5-2.3c-1.6,0-2.6,1.4-2.6,4.1c0,2,0.4,3.8,2.8,3.8c1.5,0,2.2-1,2.4-2.4h4.4
			c-0.4,3.6-3,5.8-6.7,5.8c-4.6,0-7.5-2.9-7.5-7.4c0-4.6,3.1-7.4,7-7.4c4.3,0,6.7,2.1,7.1,5.7H238z"/>
		<path d="M243.7,127.7h12.9v3.7h-4.1v10.4h-4.6v-10.4h-4.1V127.7z"/>
		<path d="M258.7,141.8v-14.1h11.5v3.3h-6.9v2h5.8v3.3h-5.8v2.2h7.1v3.3H258.7z"/>
		<path d="M272.6,141.8v-14.1h6.2c4.5,0,7.3,2.1,7.3,6.7c0,5.3-2.9,7.3-7.5,7.3H272.6z M277.2,138.5h1c2.1,0,3.3-1.1,3.3-3.8
			c0-2.9-1-3.7-3.4-3.7h-0.9V138.5z"/>
		<path d="M293.2,141.8l5-14.1h4.7l5,14.1h-4.6l-0.5-1.9h-4.6l-0.5,1.9H293.2z M300.5,131.9l-1.4,5h2.9L300.5,131.9z"/>
		<path d="M314,136.9v4.9h-4.6v-14.1h6.6c4.7,0,6.2,1.3,6.2,4c0,1.6-0.7,3-2.4,3.4c1.5,0.5,2.4,0.9,2.4,3.7c0,1.8-0.1,2.5,0.5,2.5
			v0.4h-4.7c-0.1-0.3-0.2-1.2-0.2-2.5c0-1.8-0.3-2.4-2.5-2.4H314z M314,133.8h1.8c1.4,0,2.2-0.4,2.2-1.3c0-1-0.8-1.5-1.9-1.5H314
			V133.8z"/>
		<path d="M324.9,141.8v-14.1h11.5v3.3h-6.9v2h5.8v3.3h-5.8v2.2h7.1v3.3H324.9z"/>
		<path d="M337.7,141.8l5-14.1h4.7l5,14.1h-4.6l-0.5-1.9h-4.6l-0.5,1.9H337.7z M345,131.9l-1.4,5h2.9L345,131.9z"/>
	</g>
	<g>
		<path d="M130.4,135.6l-25-43.3c-1.2-2.1-4.2-2.1-5.4,0l-25,43.3c-1.2,2.1,0.3,4.7,2.7,4.7h50C130.1,140.3,131.6,137.7,130.4,135.6
			z M125.7,136.9h-46c-0.7,0-1.1-0.8-0.8-1.4l23-39.8c0.4-0.6,1.2-0.6,1.6,0l23,39.8C126.9,136.2,126.4,136.9,125.7,136.9z"/>
		<polygon points="99.2,114.9 100.8,124.2 104.5,124.2 106.3,114.9 106.3,109 99.2,109 		"/>
		<rect x="99.2" y="126.5" width="6.9" height="6.5"/>
	</g>
	<g>
		<path d="M425.3,135.6l-25-43.3c-1.2-2.1-4.2-2.1-5.4,0l-25,43.3c-1.2,2.1,0.3,4.7,2.7,4.7h50C425,140.3,426.5,137.7,425.3,135.6z
			 M420.5,136.9h-46c-0.7,0-1.1-0.8-0.8-1.4l23-39.8c0.4-0.6,1.2-0.6,1.6,0l23,39.8C421.7,136.2,421.3,136.9,420.5,136.9z"/>
		<polygon points="394,114.9 395.6,124.2 399.4,124.2 401.1,114.9 401.1,109 394,109 		"/>
		<rect x="394.1" y="126.5" width="6.9" height="6.5"/>
	</g>
	<g>
		<path class="st3" d="M402.7,193.7c19.1-1.2,38.3-9.1,52.9-23.7c31.8-31.8,31.8-83.3,0-115.1c-15.9-15.9-37-23.8-57.8-23.9l0,19.1
			c15.9,0,32.1,6.2,44.3,18.3c22,22,24.1,56.3,6.2,80.7l-49.9-49.8l0.6,27.7l35.7,35.7c-10.2,7.5-22.4,11.4-34.4,11.9L402.7,193.7z"
			/>
		<path class="st3" d="M96.3,174.5c-15.2-0.5-30.2-6.6-41.8-18.2c-22-22-24.1-56.3-6.2-80.7l49.6,49.5l0.6-26.4L61.8,62.1
			C72.8,54,86,50,99,50.1l0-19.2c-20.9-0.1-42,7.9-58,23.8c-31.8,31.8-31.8,83.3,0,115.1c14.7,14.7,33.7,22.6,53,23.7"/>
		<path class="st5" d="M488.8,219.8c0,0-16.6,0.3-27.1,0.3s-21.4-1.4-31-0.3c-16.3,0.6-25.9,5.2-25.9-4.1c0-11.7-4.9-37.7-4.9-48.5
			S394.8,1.1,400,0.4c4.6,3,10.2,11,18.8,0c5.6-1.2-1.1,0.7,11.6,3.6c3,0.7,7.5-3.8,10.7-3.8c3.5,0,5.4,3.6,9,3.6
			c4.1,0,7.4-3.4,11.3-3.4c3.5,0,8.3,2.8,11.5,2.8c4.1,0,6.2-3.2,8.5-3.2c8.6,0,5.3,0,7.3,0"/>
		<path class="st5" d="M0,0c3.1-0.1,7.2,2.6,7.2,2.6c7.1-0.4,2.7-2.5,8-2.6c2.3,0,5.6,4,9.7,4c3.2,0,6.8-3.6,10.3-3.6
			c3.9,0,5.6,3.4,9.7,3.4c3.6,0,7.1-3.6,10.6-3.6c3.2,0,5.5,4.5,8.5,5c6.2,0.9,7.4-5.5,13.8-4.7c9.6,9.8,14.7,2,18.8,0
			c5.1,0.7,0.1,156,0.1,166.8s-4.9,36.8-4.9,48.5c0,9.3-9.6,4.7-25.9,4.1c-9.6-1.1-20.6,0.3-31,0.3s-35-0.3-35-0.3"/>
		<path class="st0" d="M404.9,215.7c0.5-5.2,7.4-10.9,7.4-10.9s-6.9-4.4-9.3-21.4c-0.7-4.8-2-9.3-3-16
			C399.5,174.8,404.7,204.7,404.9,215.7z"/>
		<path class="st0" d="M97.8,123.6c-1,6.7-5.9,55-6.5,59.8c-2.4,17-8.8,21.4-8.8,26.1c6.6,2.3,8.1,2.3,9.3,6.3
			c0.1-5.4,3.4-22.9,4.9-43.3C98.2,151.3,98,127.3,97.8,123.6z"/>
	</g>
</g>
</svg>
