<svg xmlns="http://www.w3.org/2000/svg" viewBox="0 0 498.4783 485.8792"><g id="bdf328dd-aff7-4e58-8aa3-88d9675b03fe" data-name="billboard"><polygon points="120.299 379.655 116.95 379.655 116.95 353.718 107.934 353.718 107.934 362.121 102.765 362.121 102.765 344.221 96.219 344.221 96.219 340.933 88.294 340.933 88.294 344.549 87.49 344.549 87.49 340.129 97.023 340.129 97.023 343.417 103.569 343.417 103.569 361.317 107.13 361.317 107.13 352.914 117.754 352.914 117.754 378.851 119.496 378.851 119.496 335.745 125.678 335.745 125.678 332.092 138.121 332.092 138.121 335.745 143.863 335.745 143.863 332.823 158.852 332.823 158.852 351.818 163.139 351.818 163.139 348.165 167.542 348.165 167.542 348.969 163.943 348.969 163.943 352.622 158.048 352.622 158.048 333.627 144.667 333.627 144.667 336.549 137.317 336.549 137.317 332.896 126.482 332.896 126.482 336.549 120.299 336.549 120.299 379.655" style="fill:#d1d6dd"/><polygon points="68.654 395.004 62.031 395.004 62.031 386.731 59.121 383.809 59.121 376.009 42.468 376.009 42.468 385.835 41.664 385.835 41.664 375.205 59.925 375.205 59.925 383.478 62.835 386.4 62.835 394.2 67.85 394.2 67.85 374.474 74.799 374.474 74.799 375.278 68.654 375.278 68.654 395.004" style="fill:#d1d6dd"/><rect x="31.0357" y="388.3555" width="6.3016" height="0.8039" style="fill:#d1d6dd"/><polygon points="363.088 406.223 362.284 406.211 362.44 396.49 356.264 396.855 356.264 383.809 350.12 377.638 343.429 384.357 343.429 395.37 338.443 395.37 338.443 380.758 330.882 380.758 330.882 388.027 330.078 388.027 330.078 379.954 339.247 379.954 339.247 394.566 342.626 394.566 342.626 384.026 350.12 376.498 357.068 383.478 357.068 396.003 363.258 395.636 363.088 406.223" style="fill:#d1d6dd"/><polygon points="317.387 377.47 306.073 377.47 306.073 369.068 295.163 369.068 295.163 364.082 288.305 357.196 280.82 357.196 272.3 365.753 271.73 365.186 280.485 356.392 288.64 356.392 295.967 363.751 295.967 368.264 306.877 368.264 306.877 376.666 317.387 376.666 317.387 377.47" style="fill:#d1d6dd"/><polygon points="200.554 426.061 178.308 426.061 178.779 365.05 175.218 365.05 175.218 369.798 167.423 369.798 167.423 368.994 174.414 368.994 174.414 364.246 179.582 364.246 179.582 368.3 179.118 425.257 199.756 425.257 200.24 363.881 214.057 363.881 214.057 349.633 226.5 349.633 226.5 354.017 245.737 354.017 245.737 354.821 225.696 354.821 225.696 350.437 214.861 350.437 214.861 364.685 201.038 364.685 200.554 426.061" style="fill:#d1d6dd"/><polygon points="39.193 441.329 39.193 415.059 64.764 412.258 64.764 441.329 68.782 441.329 68.782 405.561 87.778 405.561 87.778 441.329 91.187 441.329 91.187 429.428 92.892 427.601 92.892 381.771 97.854 381.771 97.869 368.909 107.139 368.909 122.116 386.444 122.116 428.21 125.404 428.21 125.404 364.465 135.815 354.054 146.774 365.013 146.774 441.329 149.148 441.329 149.148 385.104 167.413 385.104 167.413 379.625 179.468 379.625 179.468 386.2 183.918 386.2 183.918 431.19 193.878 431.19 193.878 350.036 212.345 350.036 212.345 396.075 215.633 396.075 215.633 391.692 220.747 391.692 220.747 397.537 225.496 397.537 225.496 401.92 230.245 401.92 230.245 408.13 235.359 408.13 235.359 361.725 249.971 361.725 249.971 365.378 252.528 365.378 252.528 361.725 265.679 361.725 265.679 364.282 270.428 364.282 270.428 407.753 273.716 407.753 273.716 377.798 285.04 384.286 285.04 396.706 293.077 396.706 293.077 375.884 299.287 375.884 299.287 371.865 310.246 371.865 310.246 378.075 319.744 378.075 319.744 383.92 324.858 383.92 324.858 426.307 331.068 419.82 331.068 411.053 336.182 405.939 336.182 393.884 348.602 393.884 348.602 408.13 351.525 408.13 351.525 415.802 358.466 415.802 358.466 431.875 361.388 431.875 361.388 441.329 182.787 441.329 39.193 441.329" style="fill:#d1d6dd"/><polygon points="265.769 81.181 265.769 91.98 382.352 91.98 382.352 252.791 10.94 252.791 10.94 236.427 0.018 236.427 0.018 263.665 393.123 263.665 393.123 81.181 265.769 81.181" style="fill:#232326"/><path d="M335.9262,302.0305v-5.7651H380.26v-2.2739H31.4106v2.2739H75.7447v5.7651H9.2652v4.5478h66.48V308.61h19.013v-2.0312h40.6436v2.3329h-1.8862v3.018h7.0921v-3.018H138.721v-2.3329h42.53v2.3329h-1.8863v3.018h7.0922v-3.018h-1.8862v-2.3329h6.5643v138.923h4.8025V306.5783h4.04v138.923H220.536V306.5783H227.1v2.3329h-1.8862v3.018h7.0921v-3.018H230.42v-2.3329h42.53v2.3329h-1.8863v3.018h7.0922v-3.018H276.27v-2.3329h40.6436V308.61h19.0129v-2.0312h66.48v-4.5478Zm-200.5249,0H94.7577v-5.7651h40.6436Zm45.85,0h-42.53v-5.7651h42.53Zm9.884,0h-6.5643v-5.7651h3.27v4.1957h3.2938Zm8.039,0H194.33v-1.5694h4.8443Zm27.9265,0H220.536v-1.5694H223.83v-4.1957H227.1Zm45.85,0H230.42v-5.7651h42.53Zm43.9633,0H276.27v-5.7651h40.6436Z" transform="translate(-9.2652 -6.2093)" style="fill:#232326"/><rect x="22.1453" y="276.9296" width="348.8498" height="2.2739" style="fill:#232326"/><rect x="22.1453" y="271.5033" width="348.8498" height="2.2739" style="fill:#232326"/><rect x="22.1453" y="266.077" width="348.8498" height="2.2739" style="fill:#232326"/><rect x="22.1453" y="282.3559" width="348.8498" height="2.2739" style="fill:#232326"/><path d="M223.5583,447.9563a27.1587,27.1587,0,0,1,1.3033-6.8131,17.1009,17.1009,0,0,1,5.9837-2.7844,40.2161,40.2161,0,0,0-5.2727.7109c1.8366-4.4433,5.2135-9.0643,9.8938-11.5526-5.6875,2.192-12.56,5.9244-15.4628,13.1522-1.718.7109-3.4954,1.6-3.4954,1.6s-.4147-2.0143-3.1991-4.4433c1.0071-5.9837,3.6731-11.8488,13.9816-18.84-8.1165,3.91-19.6691,8.8866-23.3422,23.8161-1.7773-5.0357-7.4176-10.9664-13.342-14.6988-.1777.3555-.2628.6717-.4405,1.0271,3.7323,4.5619,9.7539,12.1906,6.7917,17.5818-1.1849-2.1328-5.2936-5.3079-9.2629-7.2629-.1185.7109-.2962,1.3626-.4147,2.0735,3.5546,2.9622,7.604,7.4407,7.604,12.4765H206.2c.8886,0,1.7773-4.4434,4.7988-5.6282-1.3627,3.1991-1.9551,5.5689-1.0664,5.5689.2369-2.429,5.9244-4.2063,5.3319.0593a69.9948,69.9948,0,0,0,11.0195,0s-.1778-5.806,12.2635-12.2636c-8.9459,1.955-14.5741,5.6282-14.9888,6.2206Z" transform="translate(-9.2652 -6.2093)" style="fill:#1d1d1b"/></g><g id="a4728a7b-a97a-4a32-a524-6a2d64af199b" data-name="crane"><path d="M429.5284,421.7611c.6578-4.1181-.4108-8.0181-.6551-12.0167-.0864-1.4152-.6522-2.0935-2.1025-2.0346-4.31.1749-8.6405-.4332-12.9406.3817l-70.2137,4.525c-5.3852-.021-10.77-.01-16.1556.0036-3.2453.008-4.0112.7488-4.0511,4.0465-.0454,3.7532-.0212,7.5072-.0264,11.2609-.0014.979-.4135,2.4329.0714,2.8553a3.2266,3.2266,0,0,1,.9688,1.3409H431.0487a4.44,4.44,0,0,0-.3707-1.2664A14.762,14.762,0,0,1,429.5284,421.7611Z" transform="translate(-9.2652 -6.2093)" style="fill:#ff1d8e"/><path d="M507.726,355.4884c-.0176-6.4536-.0234-6.454-6.4729-5.6358l-29.4273,1.1433c-4.2418-1.0348-8.5526-.2769-12.8251-.5041-.8606-.0457-2.0249.4464-2.508-.4005-.5415-.9494.4617-1.7838.8929-2.6336,1.1439-2.2545,2.1971-4.4954,5.2508-4.7954a1.5091,1.5091,0,0,0,1.0966-2.4381c-1.7909-3.0433-3.6157-5.882-7.6869-6.4924-2.6694-.4-3.9424-3.1971-5.8109-4.9221-3.6945-3.4106-7.1229-7.1085-10.6866-10.6621q-6.6455-6.6267-13.3346-13.2094c-.83-.8191-.5824-1.5364.0114-2.3685,1.0867-1.5229,2.1-3.0985,3.1319-4.66.775-1.1725.8351-2.4351-.3077-3.28-1.32-.9763-1.8953.2635-2.6784,1.1445-1.4447,1.6255-1.857,4.8011-3.8993,4.9294-1.7828.112-3.0624-2.6243-4.547-4.0954-11.7907-11.6837-23.4739-23.476-35.2029-35.2222-3.1622-3.1667-6.2893-6.3759-9.5879-9.3957-1.5838-1.45-1.5265-2.6287-.33-4.172.8444-1.089,1.5373-2.2973,2.2759-3.4661a1.7207,1.7207,0,0,0-.4439-2.5718c-1.0466-.7593-1.88-.2171-2.5241.6105a24.3154,24.3154,0,0,0-2.2142,3.2112c-.7868,1.44-1.638,1.7117-2.823.51-4.6735-4.7408-9.3272-9.5015-14.0221-14.2211-3.2654-3.2826-6.6011-6.4952-9.8785-9.7661-4.9981-4.988-9.9669-10.0054-14.96-14.9987-3.16-3.16-6.3473-6.2927-9.511-9.449q-7.7627-7.7447-15.5159-15.4988c-2.0181-2.0054-4.0169-4.0426-6.1707-5.8952-1.5812-1.36-2.1338-2.5405-.4711-4.2047l-4.4766-4.2111c-1.8042-1.6462-3.5216-3.387-5.2958-5.0668-.5837-.5525-1.0227-1.2105-.6285-1.9393.8369-1.5475-.1178-2.512-1.0405-3.4032-3.683-3.5573-7.4179-7.0609-11.14-10.5775-.7858-.7423-1.5979-1.3922-2.7668-.7365l-2.9845,1.5186c-2.785-1.8609-4.6725-4.3544-6.8836-6.4734C255.9886,136.07,250.818,130.7738,245.6,125.528q-4.9794-5.0059-9.8947-10.0757c-1.4417-1.4821-2.75-3.1382-5.1029-1.3741-.9384.7037-1.695-.0746-2.326-.7159-4.7283-4.8054-9.4213-9.6457-14.167-14.4338-3.3172-3.3468-6.7221-6.6064-10.0478-9.9448-3.7822-3.7966-7.5744-7.5862-11.252-11.4829-1.6377-1.7352-1.1345-6.4446.61-8.088l-11.726-12.2784L163.2705,76.51a1.6315,1.6315,0,0,1,.4652,2.1673c-1.2948,2.1974-.2846,3.8986,1.1473,5.4961q3.3384,3.7242,6.727,7.4032c1.3428,1.4635,2.3357,1.3513,2.9656-.643.7827-2.4774,1.5793-1.45,2.6627-.3093,4.3645,4.5966,8.7155,9.2076,13.1577,13.7285,6.4391,6.5529,12.9562,13.0292,19.4316,19.5465,1.1672,1.1747,1.9049,2.4014.6911,4.06a1.7315,1.7315,0,0,0,.0552,2.2611c2.1387,2.5609,4.2371,5.1554,6.348,7.7394.9107,1.1147,1.8941,1.5384,3.0594.3441,1.3579-1.3916,2.5415-.9632,3.7568.2624,3.3791,3.4082,6.8028,6.7723,10.199,10.1636q4.226,4.22,8.4271,8.4643c4.6712,4.7451,9.4191,9.42,13.9591,14.2877,5.57,5.9729,12.2,10.8011,15.9257,18.6746,4.3652,9.2256,10.1031,17.74,13.7969,27.416l7.8372-8.719a7.9555,7.9555,0,0,1,3.4288,2.2694q9.9938,10.0034,19.9857,20.0087c8.9475,8.9937,17.8442,18.038,26.8214,27.002,6.5081,6.4983,13.1455,12.8672,19.6632,19.3562,7.4317,7.3987,14.777,14.8843,22.1936,22.2983,4.944,4.9423,10.0112,9.7625,14.9038,14.7544,4.0826,4.1655,8.4456,8.0587,12.2312,12.5141q-16.0087-.02-32.0174-.03c-1.4967.0008-2.8982-.0134-3.9816-1.3359-.6747-.8237-1.7564-.7386-2.7427-.7385q-14.1925.0024-28.3852-.01a5.0117,5.0117,0,0,0-3.8351,1.2758c-1.27,1.3111-1.7308.432-2.202-.6592q-2.9556-6.8439-5.91-13.6879-7.7115-17.9647-15.4205-35.93a8.1117,8.1117,0,0,1-.97-4.9138c.3107-1.6522-.7013-2.8166-2.22-3.3843l-8.0284,2.8224a9.2725,9.2725,0,0,0,.818,5.0354c8.6585,20.8424,27.525,65.7678,27.525,65.7678L331.22,361.754l-.3719,40.6967c.0054,3.0239.5873,3.6668,3.6352,4.0334a3.5368,3.5368,0,0,1,2.4253.8662c1.82,1.814,3.9413,1.921,6.2318.5925.7791-.4517,1.3584-1.7786,2.4691-.9881l67.7791-1.5023c3.0433-.5518,5.3913-1.91,5.7118-5.371.114-1.2309.9573-1.39,1.9149-1.3715a14.3634,14.3634,0,0,0,6.5269-1.8046,3.6186,3.6186,0,0,0,2.4615-3.7359c-.0563-2.0289.2648-4.0657.3364-6.102a3.1244,3.1244,0,0,1,1.3687-2.6976,16.1921,16.1921,0,0,1,9.7055-3.3352c16.8888.1429,33.78.0488,50.6695.1116,1.9429.0072,3.681-.3294,4.6966-1.9889,1.1425-1.8667,2.6276-2.19,4.6859-2.2314,5.1278-.1039,6.2546-1.41,6.27-6.5043C507.7516,365.444,507.74,360.4662,507.726,355.4884ZM375.7974,328.48c-.0845.5868-.555.7695-1.069.8014-.8125.0507-1.6275.06-2.4413.09-9.8331.3643-19.6662.7295-29.7322,1.1031.3167-2.5915,1.5361-3.7677,4.1972-3.7374,8.7163.0993,17.4343.0306,26.1517.05a7.3418,7.3418,0,0,1,2.1488.3A1.1816,1.1816,0,0,1,375.7974,328.48Zm57.864,26.18q-7.3119,3.6182-14.2467,7.9471c-2.0189,1.2565-2.5244.9007-2.6971-1.6279-.4609-6.7454-.9671-13.4876-1.4311-20.2328a4.494,4.494,0,0,0-.9744-2.6777c-.88-1.0975-2.5225-2.41.28-3.3482.6539-.219.5709-1.1164.5609-1.7636a9.4273,9.4273,0,0,0-1.963-5.8437c2.0653,1.053,3.2752,3.0563,4.8834,4.5924,5.16,4.9283,10.0547,10.1337,15.092,15.192a9.2176,9.2176,0,0,1,2.1351,3.7916C435.8743,352.435,435.5594,353.7206,433.6614,354.66Z" transform="translate(-9.2652 -6.2093)" style="fill:#ff1d8e"/><path d="M122.4361,211.4582l-4.1681-2.6105c-4.3289-2.6308-4.3289-2.6308-10.1859.0058l-2.9235,1.445c-3.2222,1.9512-2.2306,4.7174-1.4472,7.3856,1.4234,4.8485,2.9563,9.6647,4.4015,14.507a5.3927,5.3927,0,0,0,2.1845,3.4113,2.4177,2.4177,0,0,1,.8865,3.6065c-2.074,2.8392-1.5577,5.697-.6178,8.6231.4663,1.4519.0169,2.5711-.5121,3.9252l1.3679,1.6755c.6589,1.1163.6828,2.4691,2.1,2.3608,1.4543-.1112,1.2367-1.5153,1.933-2.6343l1.588-1.0319c-.8131-1.814-1.1311-3.3138-.3128-5.0738a6.4589,6.4589,0,0,0-.9489-7.2928c-1.1364-1.4312-1.2662-3.0138.6021-4.1473a4.7878,4.7878,0,0,0,2.0362-2.3709,119.0079,119.0079,0,0,0,5.2353-17.0431A4.5779,4.5779,0,0,0,122.4361,211.4582Z" transform="translate(-9.2652 -6.2093)" style="fill:#ff1d8e"/><polygon points="333.452 330.66 363.787 330.053 363.787 363.423 337.092 390.118 327.385 390.118 327.385 356.133 333.452 330.66" style="fill:#d1d6dd"/><path d="M414.8727,330.6206q.088.3721.1479.7535Q414.9611,330.9927,414.8727,330.6206Z" transform="translate(-9.2652 -6.2093)" style="fill:#232326"/><polygon points="403.925 320.903 403.925 320.903 403.925 320.904 403.925 320.903" style="fill:#232326"/><path d="M415.0389,331.5264c.0295.2079.0572.4164.0749.6282C415.0962,331.9428,415.0683,331.7344,415.0389,331.5264Z" transform="translate(-9.2652 -6.2093)" style="fill:#232326"/><path d="M271.4084,146.05c.0649-.0287.1319-.0655.1946-.0862C271.54,145.9846,271.4733,146.0214,271.4084,146.05Z" transform="translate(-9.2652 -6.2093)" style="fill:#232326"/><path d="M413.19,327.1136a8.9578,8.9578,0,0,1,1.6807,3.4988A8.9447,8.9447,0,0,0,413.19,327.1136Z" transform="translate(-9.2652 -6.2093)" style="fill:#232326"/><path d="M413.0535,326.9933c.0185.0217.0387.0418.0572.0635h0C413.0923,327.035,413.072,327.015,413.0535,326.9933Z" transform="translate(-9.2652 -6.2093)" style="fill:#232326"/><path d="M271.8209,145.916a1.78,1.78,0,0,1,.1783-.0358A1.78,1.78,0,0,0,271.8209,145.916Z" transform="translate(-9.2652 -6.2093)" style="fill:#232326"/><path d="M330.8484,402.4507l.3719-40.6968-.3515,27.722S330.8407,398.1257,330.8484,402.4507Z" transform="translate(-9.2652 -6.2093)" style="fill:#232326"/><path d="M273.2536,146.2843c.0356.0251.0723.0462.1075.0727C273.3259,146.3305,273.2892,146.3094,273.2536,146.2843Z" transform="translate(-9.2652 -6.2093)" style="fill:#232326"/><path d="M272.57,145.9448c.0489.0141.1.0223.1473.0406C272.6691,145.9671,272.6185,145.9589,272.57,145.9448Z" transform="translate(-9.2652 -6.2093)" style="fill:#232326"/><path d="M273.5746,146.5318c.0305.0258.0618.0491.0921.0757C273.6364,146.581,273.6051,146.5576,273.5746,146.5318Z" transform="translate(-9.2652 -6.2093)" style="fill:#232326"/><path d="M106.0488,48.892q-.1845,79.1907-.3414,158.3812a10.9854,10.9854,0,0,1-.0521,1.71c-.0745.4634-.1773,1.1218-.4967,1.3153l2.9235-1.445c-.54-.8156-.2727-1.7329-.2726-2.59q.0053-70.977.0543-141.954c.0038-4.81.1515-9.6205.2605-14.43.0137-.6047-.28-1.4559.5279-1.7093.6985-.2189,1.1527.47,1.6194.9026,2.3074,2.14,3.7617,2.4642,6.5521.8873,1.773-1.0018,2.1768-.1369,2.4289,1.27a11.0444,11.0444,0,0,1,.0512,1.954c-.0282,12.8085.14,25.6212-.1317,38.4245-.55,25.9394-.0787,51.8834-.5184,77.819-.221,13.0432-.1183,26.0885-.3857,39.42l4.1681,2.6105c-1.378-1.1454-1.4439-2.3949-1.3638-3.8884.4453-8.3028.9065-16.605,1.3014-24.91q1.0047-21.134,1.932-42.2718c.7259-16.6184,1.36-33.241,2.157-49.8558.1323-2.7594-.2725-5.7169,1.7413-8.1658a1.9037,1.9037,0,0,0-.2363-2.6884,3.8775,3.8775,0,0,1-1.1622-3.5573c.3738-4.4715-.14-8.8743,1.1993-13.4528,1.4353-4.9065,1.0436-10.395-3.481-14.3785a12.0434,12.0434,0,0,1-1.7347-2.054c-.4842-.6743-1.6271-1.5569-.7046-2.2245.9161-.6631,2.6466-.773,3.2041.5843,1.0323,2.513,3.1416,2.5363,4.8754,1.9053,3.1457-1.1449,4.7022.8175,6.4135,2.5721,4.4843,4.5979,8.863,9.2987,13.3369,13.9069,4.4144,4.5469,8.8837,9.0407,13.3561,13.5308l18.4236-19.3755L193.42,69.4128c.7477-.7041,1.137-.1472,1.5951.3325,6.3974,6.6992,12.82,13.3746,19.1888,20.1008,7.1537,7.555,14.2257,15.1875,21.3965,22.7259,5.8844,6.186,11.89,12.2564,17.7884,18.4291,4.8273,5.0519,9.5763,10.1783,14.3563,15.2752a1.2856,1.2856,0,0,1,.4678,1.3858l2.88-1.4655a1.3238,1.3238,0,0,1-1.6719-.4595q-8.1243-8.5947-16.2568-17.1819c-4.7627-5.006-9.57-9.97-14.3359-14.9724-3.4651-3.637-6.8957-7.3069-10.3416-10.9621l.4246-.3472q11.8826,11.53,23.7726,23.0514c5.0935,4.9056,10.3033,9.6907,15.3836,14.61,7.588,7.3469,15.0995,14.7726,22.6653,22.1425,1.1669,1.1367,2.4543,2.1493,3.6773,3.2291,1.1681,1.0313,1.0559,2.041.02,3.1324-.5429.5719-.9536.6015-1.3033.4231l3.419,3.2163a21.1641,21.1641,0,0,0,1.9171-2.6025c6.4256,6.1686,12.7541,12.3432,19.1964,18.3967,5.0337,4.73,10.2193,9.298,15.3181,13.9592,5.34,4.8817,10.632,9.8164,15.993,14.6749,3.7966,3.4407,7.6924,6.7716,11.51,10.19,5.4471,4.8784,10.8467,9.81,16.2974,14.6845,3.6387,3.2541,7.3414,6.4366,10.9969,9.6722,5.8374,5.1671,11.636,10.3783,17.4948,15.521,5.439,4.7743,10.9537,9.4622,16.4013,14.2268,5.626,4.9207,11.2,9.9011,16.8185,14.83,3.5434,3.1087,7.1294,6.1688,10.6921,9.2555q11.6988,10.1364,23.4,20.27c2.2692,1.9566,4.62,3.8184,7.1813,5.9274-7.0552,1.9087-12.3109,8.4115-7.9365,19.9122L500.04,349.9c-.528-.0618-.9488-.2944-.9541-.9516-.0179-2.21-1.4578-4.0089-1.5118-6.1148-.049-1.91-.9133-2.7441-2.6927-2.618a2.8989,2.8989,0,0,1-3.1267-2.1553c-.9324-2.3126-2.7409-3.7231-4.772-5.0531-2.31-1.5125-5.1373-1.85-7.2766-3.8376-4.225-3.925-8.7112-7.5688-13.0919-11.3259-3.7645-3.2287-7.5556-6.4267-11.2936-9.6858-5.6948-4.9653-11.3379-9.99-17.0333-14.9544-3.9226-3.4192-7.9322-6.7389-11.84-10.1745-8.7909-7.7282-17.5351-15.51-26.3131-23.2526-6.8282-6.0229-13.6868-12.0112-20.5159-18.033-3.2335-2.8514-6.4367-5.7374-9.641-8.6218-5.5-4.9511-10.9782-9.9258-16.4866-14.8671-5.2065-4.67-10.483-9.2631-15.6515-13.9748q-10.9881-10.0169-21.8546-20.1668c-3.6245-3.3789-6.9544-7.1-10.7622-10.2491-3.67-3.0355-5.9879-7.2514-10.0344-10.038-4.0381-2.7809-7.3118-6.6826-10.8759-10.1391-4.9564-4.8068-9.8448-9.6837-14.8121-14.4789-3.6267-3.501-7.37-6.8806-10.9969-10.382-6.4863-6.2627-12.9093-12.5911-19.3859-18.8639-5.0233-4.8653-10.0941-9.6812-15.1324-14.5308q-8.0826-7.78-16.145-15.5808c-3.2173-3.102-6.5042-6.1344-9.6513-9.3057-4.98-5.0179-9.87-10.1242-14.7954-15.1965-3.2859-3.3841-6.59-6.7509-9.8434-10.1664q-9.1659-9.6234-18.2815-19.2947c-3.1812-3.3633-6.3124-6.7751-9.5359-10.0971-2.7773-2.8623-5.5242-5.7783-8.5351-8.3807a5.1455,5.1455,0,0,0-6.2122-.3079c-1.0977.6673-1.8925,1.6634-3.4147,1.272-.8323-.214-1.2583.5426-.9662,1.2413.988,2.3631-.71,3.175-2.2224,4.1521a21.1632,21.1632,0,0,0-3.67,2.8242c-.6462.6534-1.5148,1.5547-2.5573.9389a2.01,2.01,0,0,0-2.9464.5185c-.9874,1.108-.7069,2.05.0522,3.0547.3659.4845.6189.9891.1276,1.5357a1.3337,1.3337,0,0,1-1.5259.3433c-2.7535-.72-3.9849.3777-3.3913,3.2033.4577,2.1778-.4794,3.6493-1.9378,4.9237-2.421,2.1156-4.6284,10.093-3.3613,13.0372A11.5545,11.5545,0,0,1,106.0488,48.892Zm33.3167-25.223a30.7262,30.7262,0,0,0,2.8364-9.2364l35.7326,37.5185a12.5353,12.5353,0,0,0-7.5368,4.5227c-.671.8835-1.3171.3035-1.847-.2008-2.2356-2.1281-4.4807-4.2485-6.6539-6.44-3.4834-3.512-6.9073-7.083-10.3665-10.6189-2.3265-2.3781-4.6492-4.7606-7.0172-7.097a19.4431,19.4431,0,0,0-3.14-2.6991C138.5347,27.6268,137.994,26.6424,139.3655,23.669ZM120.9087,138.1845c.0335-18.2738-.0375-36.5492.2032-54.8205q.19-14.4341.333-28.8682c.0073-.6327-.4406-1.7208.5649-1.8119.865-.0784,1.2924.9072,1.5274,1.6918A2.2432,2.2432,0,0,1,123.34,56.5c-2.2178,2.5629-.6736,4.9514.4133,7.2356a7.1064,7.1064,0,0,1,.8887,3.46c-.1961,4.5551-.4729,9.1771-.2314,13.6617.4759,8.8376-.4407,17.5748-.7633,26.3473-.6079,16.5343-1.5154,33.0573-2.2652,49.5866-.1848,4.0737-.334,8.149-.48,12.2245Q120.896,153.6,120.9087,138.1845Z" transform="translate(-9.2652 -6.2093)" style="fill:#232326"/><path d="M307.3967,270.4648l8.0284-2.8224a3.6957,3.6957,0,0,1-2.1623-2.4187c-5.9116-14.3891-11.8962-28.7481-17.8343-43.1263-1.424-3.4481-2.8682-6.8959-4.0846-10.4189l-5.298,5.8942c5.983,15.6722,12.7419,31.0479,19.1539,46.5567C306.067,266.2272,307.6464,268.4747,307.3967,270.4648Z" transform="translate(-9.2652 -6.2093)" style="fill:#232326"/><path d="M272.2056,145.8855a1.6092,1.6092,0,0,1,.1636.0067C272.3163,145.8841,272.26,145.8882,272.2056,145.8855Z" transform="translate(-9.2652 -6.2093)" style="fill:#232326"/><path d="M324.2771,431.7905l-.0128-.0219Z" transform="translate(-9.2652 -6.2093)" style="fill:#232326"/><path d="M324.0747,431.4592c-.0237-.0336-.0545-.0672-.08-.1008C324.02,431.392,324.0508,431.4256,324.0747,431.4592Z" transform="translate(-9.2652 -6.2093)" style="fill:#232326"/><path d="M272.9137,146.08c.0441.0224.0895.04.1327.065C273.0032,146.12,272.9578,146.1025,272.9137,146.08Z" transform="translate(-9.2652 -6.2093)" style="fill:#232326"/><path d="M323.4548,430.7828a4.3054,4.3054,0,0,1,.35.3415A4.21,4.21,0,0,0,323.4548,430.7828Z" transform="translate(-9.2652 -6.2093)" style="fill:#232326"/><path d="M431.0484,432.1225a5.8076,5.8076,0,0,0-.1331-.621C430.97,431.7033,431.0131,431.9109,431.0484,432.1225Z" transform="translate(-9.2652 -6.2093)" style="fill:#232326"/><path d="M152.813,351.0425c-1.8279.0139-2.8207-.5637-3.407-2.3484-.8093-2.4633-1.845-4.86-2.7743-7.2822-4.0274-10.4984-7.8589-21.0718-11.7695-31.615q-7.5672-20.4021-15.14-40.802a2.8339,2.8339,0,0,1-.3365-2.1039c1.93-5.3355-.2554-10.1063-2.343-14.7637l-1.588,1.0319a34.3775,34.3775,0,0,1,2.6661,9.1587c.13.8352.5159,1.8228-.568,2.3822-1.0011.5165-1.4527-.3258-2.0269-.8688-1.6744-1.5836-3.2953-1.6385-4.7906.2358-.4384.5493-.8536,1-1.6232.62-.7648-.3774-.6684-1.02-.5349-1.6822a53.8175,53.8175,0,0,1,2.8446-9.5721l-1.3679-1.6755c-1.9309,4.9425-4.7567,9.7721-2.814,15.4614a3.2251,3.2251,0,0,1-.3323,1.8745q-7.3641,19.9538-14.7721,39.8911c-4.6987,12.5928-9.4843,25.1533-14.1679,37.7517-1.3465,3.6218-1.7984,4.1372-5.6478,4.2585-2.114.0666-3.1669.882-3.06,3.1152.1015,2.1167.014,4.2422.0187,6.3639.0087,3.8912.098,3.99,3.9751,3.99q40.1445.0055,80.2889.0013c.4895,0,.9791-.0175,1.4685-.0143a1.98,1.98,0,0,0,2.2567-2.247c.0013-2.2032.016-4.4064.0183-6.6095C157.291,351.12,157.2574,351.0088,152.813,351.0425Zm-8.32-.045q-15.6568.0222-31.3139.006-15.4125.0021-30.8247-.002c-3.15-.0028-3.3363-.3354-2.431-3.4393,4.18-14.3305,10.091-28.0372,15.1455-42.0521,4.2-11.6469,8.6465-23.205,12.9345-34.8206.4964-1.3448.9254-2.5548,2.4382-3.11a2.7691,2.7691,0,0,0,1.3474-1.346c.9156-1.9377,1.3936-1.327,2.9055-.2253,5.626,4.1,6.0149,10.7377,8.2456,16.3628,5.793,14.6076,11.0967,29.4107,16.5,44.1707,2.5994,7.1,5.6871,14.0346,7.3891,21.4514C147.4288,350.6039,147.2378,350.9936,144.4929,350.9975Z" transform="translate(-9.2652 -6.2093)" style="fill:#232326"/><path d="M492.93,487.1748c-1.47-1.2332-4.9743-1.452-2.4549-4.77.1631-.2146.0624-.6369.068-.9629.1443-8.3388-.4332-16.6764,1.558-24.9631.8748-3.641.3024-7.6321.3632-11.4646.0129-.8123.0439-1.7263-.7852-2.19-1.2626-.7069-1.1267-1.8676-1.128-3-.0057-4.8962-.2293-9.8062.0675-14.6843.25-4.1043-2.2111-5.2957-5.7069-3.5237a1.5136,1.5136,0,0,1-.1111-.4685c.2011-2.359-1.0779-3.2684-3.2305-3.2456-2.15.0227-3.0792,1.1547-2.9117,3.2938.0694.8867.185,2.02-.6865,2.4724-2.08,1.0809-1.6921,2.7682-1.2692,4.4291.5951,2.3364.2986,4.7083.4951,7.0537.2032,2.4269-.8018,3.026-3.0935,3.0116-12.6466-.08-25.294-.02-37.9411-.0079-4.3629.0043-4.3522.0032-4.8933-4.1867-.0779-.604-.12-1.2378-.2211-1.8436H324.4236l0-.0008c.5308,1.47-.4381,2.96-.5449,4.4392-.1709,2.37-1.404,3.0089-3.7248,2.982q-15.7863-.1829-31.5756.0056c-2.5479.0338-3.3558-.7759-3.1063-3.2154.1042-1.0185.6246-2.5321-.8427-2.9936-1.69-.5315-1.4258-1.6314-1.38-2.89.1206-3.3417.1616-6.6869.1861-10.0312.0144-1.9567-.6758-3.3362-2.9536-3.3442-2.4288-.0085-3.3617.8222-3.42,3.3862-.15,6.6719.3247,13.3614-.6216,20.0111-.1549,1.0878.2427,2.4843-1.54,2.4645-1.3521-.015-3.17.63-3.1213-1.8412.0082-.4132-.1318-.8882-.5866-.9744-1.6506-.3127-1.3532-1.5759-1.3557-2.6822-.0112-4.7329.0014-9.466-.0171-14.1988-.0041-1.05.0738-2.1656-1.2037-2.6762-3.1283-1.25-5.35.1873-5.3729,3.5435-.0285,4.2431.0037,8.4866-.0036,12.73-.0017.9856.0726,2.0946-1.3627,2.1324-1.39.0365-2.7154.0741-2.5886,2.01.0891,1.3593-.5256,2.8949.4544,4.0406,2.8362,3.3159,1.83,6.8619.8205,10.4294-.3028,1.0694-1.1373,2.2189.7716,2.6259a.8645.8645,0,0,1,.75.8579c-.1958,2.3189,1.243,4.31,1.1252,6.6787-.2144,4.3143-.067,8.6469-.0548,12.9718.002.7312-.19,1.662.1739,2.1594,1.84,2.5149.1262,3.246-1.8058,3.9512a6.4522,6.4522,0,0,0-1.1209.4872c-.65.39-1.8114.46-1.5513,1.5506.2231.9357,1.2259.5995,1.901.6089,2.9368.0405,5.8751.0522,8.8115-.002.8256-.0151,2.0914.4406,2.3367-.6794.2483-1.1334-1.0808-1.26-1.8445-1.5708-2.2283-.9066-4.6951-1.5591-2.6888-4.8484.2932-.4808.0718-1.2813.0724-1.9339.0038-4.4882.0415-8.9768-.0117-13.4643-.0268-2.261,1.339-4.0739,1.8816-6.1567.3008-1.1545,1.7939-1.79,3.4182-1.7658,5.1037.0762,5.1047-.0154,5.105,4.9958,0,4.08-.0067,8.16.0091,12.24.0028.73-.1629,1.6465.2,2.1578,1.8027,2.5441.0743,3.2411-1.8709,3.9046a5.9044,5.9044,0,0,0-.9043.3732c-.7318.3957-2.0383.381-1.7762,1.6055.2247,1.05,1.3522.6669,2.1045.6813,2.5285.0482,5.0608.0847,7.5868-.0081,1.1478-.0423,2.9916.6583,3.2933-.6412.3926-1.6916-1.7179-1.5693-2.7794-2.0386-1.8114-.8009-3.4376-1.3778-1.7986-3.8143.3939-.5854.22-1.5861.2229-2.3961.0174-4.6512.1042-9.3054-.0295-13.9528-.0682-2.3706.7913-3.0869,3.1336-3.0676q17.8679.1468,35.7375-.0032c2.36-.0207,3.1132.69,3.0439,3.0531a114.8494,114.8494,0,0,0,1.3931,22.67c.4637,2.7266.9932,5.46,2.7721,7.7506a2.5,2.5,0,0,0,1.7241,1.2225c3.1641.2729,6.3157.7092,9.5117.2029a3.7932,3.7932,0,0,0,2.8633-1.9721c1.4883-2.4194,1.9118-5.602,4.9481-6.9536.3585-.16.4941-.8146.7385-1.2366,1.8388-3.1748,2.4142-6.7307,3.0352-10.2608.2163-1.2295.5372-1.4548,1.9059-1.2649,2.1951.3048,4.8888,1.7441,6.3777-1.4994.1325-.2888.8634-.4189,1.3189-.4246,3.0185-.0384,6.0377-.0056,9.0564-.0339,1.0336-.01,1.4385.4036,1.4558,1.4545.0323,1.9548.1743,3.9082.2908,5.8609.18,3.0171,1.8262,4.777,4.4662,4.8,2.4324.0211,4.2089-1.709,4.5085-4.5611a21.3968,21.3968,0,0,0,.0768-4.399c-.25-2.4216.6051-3.0526,3.097-3.27,7.7815-.68,15.3014,1.6491,23.0014,1.58,1.1985-.0108,1.9662.6038,1.9282,1.7318-.1885,5.5784,3.8672,9.7152,4.96,14.8553a3.1179,3.1179,0,0,0,3.0151,2.4587c1.946.1888,3.8963.358,5.8487.4487,4.6374.2154,7.3712-2.0022,7.82-6.9346.6089-6.6927,2.3119-13.3151,1.739-20.1018-.1774-2.102.56-2.8676,2.7454-2.8553q20.9283.1182,41.8574.0016c2.21-.0123,2.81.8274,2.7575,2.8906-.1115,4.4037-.038,8.8122-.0322,13.2188.0059,4.4093.0121,4.4114-3.4187,7.5723-.29.2674-.746.4443-.5185.95.2006.4464.6654.4234,1.0578.4264,2.774.0209,5.5487-.0048,8.3218.0523.6384.013,1.4862-.3782,1.9371.6558l-5.4588,3.54c4.1808.7388,7.7687.5134,11.34.5581.7418.0094,1.8905.3754,2.0671-.68C494.6473,487.6579,493.4647,487.6236,492.93,487.1748ZM378.14,476.6684c-.6473.8875-1.4339,2.051-2.6557,1.74a2.8832,2.8832,0,0,1-2.212-2.3725,32.4664,32.4664,0,0,1-.1225-6.5387c.2385-2.08,2.1541-1.1206,3.3756-1.2656,1.0754-.1277,2.1983-.0425,2.2121,1.5088.008.891.0015,1.7821.0015,2.9962C378.6409,473.849,379.0665,475.3973,378.14,476.6684Zm106.5655,4.6379c-.8981-.24-2.2959-.5838-1.6975-1.8486,1.457-3.0789.564-6.2622.7287-9.3847.1713-3.25.0381-6.5153.0381-10.1552,2.3447,3.318,1.8482,6.6891,1.8636,9.9762.0157,3.3452.0312,6.69-.0009,10.0353C485.6312,480.5263,486.08,481.6745,484.705,481.3063Z" transform="translate(-9.2652 -6.2093)" style="fill:#232326"/><path d="M411.4231,407.218c-.3353-1.5878.8912-1.5707,1.9658-1.7656L345.61,406.9547c1.2137.8637.2678,1.8825-.1189,2.8257a1.0153,1.0153,0,0,0-.0153.7147c.6216,1.42.2025,1.8855-.6022,2.04l67.332-4.3394A1.1433,1.1433,0,0,1,411.4231,407.218Z" transform="translate(-9.2652 -6.2093)" style="fill:#232326"/><path d="M343.6165,412.6165a6.7882,6.7882,0,0,0,1.2569-.081Z" transform="translate(-9.2652 -6.2093)" style="fill:#232326"/><path d="M323.8048,431.1243c.0711.0779.13.1561.19.2341C323.9345,431.28,323.8763,431.2022,323.8048,431.1243Z" transform="translate(-9.2652 -6.2093)" style="fill:#232326"/><path d="M430.9153,431.5015a3.4187,3.4187,0,0,0-.2373-.6442A3.6278,3.6278,0,0,1,430.9153,431.5015Z" transform="translate(-9.2652 -6.2093)" style="fill:#232326"/><polygon points="421.783 425.913 421.783 425.914 421.783 425.914 421.783 425.913" style="fill:#232326"/><path d="M324.2643,431.7686a2.89,2.89,0,0,0-.19-.3094A2.9331,2.9331,0,0,1,324.2643,431.7686Z" transform="translate(-9.2652 -6.2093)" style="fill:#232326"/><path d="M324.4233,432.1229a2.622,2.622,0,0,0-.1462-.3324A2.6954,2.6954,0,0,1,324.4233,432.1229Z" transform="translate(-9.2652 -6.2093)" style="fill:#232326"/><path d="M413.83,408.0915l-1.6248.1046A3.6452,3.6452,0,0,0,413.83,408.0915Z" transform="translate(-9.2652 -6.2093)" style="fill:#232326"/><path d="M272.7169,145.9854a2.0756,2.0756,0,0,1,.1968.0948A2.1,2.1,0,0,0,272.7169,145.9854Z" transform="translate(-9.2652 -6.2093)" style="fill:#232326"/><path d="M271.9992,145.88a1.5032,1.5032,0,0,1,.2064.0053A1.5032,1.5032,0,0,0,271.9992,145.88Z" transform="translate(-9.2652 -6.2093)" style="fill:#232326"/><path d="M271.603,145.9639a1.7065,1.7065,0,0,1,.2179-.0479A1.7276,1.7276,0,0,0,271.603,145.9639Z" transform="translate(-9.2652 -6.2093)" style="fill:#232326"/><path d="M501.2531,349.8526,500.04,349.9A5.2409,5.2409,0,0,0,501.2531,349.8526Z" transform="translate(-9.2652 -6.2093)" style="fill:#232326"/><path d="M272.3692,145.8922a1.6447,1.6447,0,0,1,.2.0526A1.6447,1.6447,0,0,0,272.3692,145.8922Z" transform="translate(-9.2652 -6.2093)" style="fill:#232326"/><path d="M293.1268,168.8616l-1.0576-.9948A5.9021,5.9021,0,0,0,293.1268,168.8616Z" transform="translate(-9.2652 -6.2093)" style="fill:#232326"/><polygon points="403.925 320.904 403.925 320.903 403.925 320.903 403.925 320.904" style="fill:#232326"/><path d="M418.0733,331.7052c-1.6082-1.5361-2.8181-3.5393-4.8833-4.5923C415.2551,328.166,416.4651,330.1691,418.0733,331.7052Z" transform="translate(-9.2652 -6.2093)" style="fill:#232326"/><path d="M273.0464,146.1452c.07.0414.1386.091.2072.1391C273.185,146.2362,273.1168,146.1865,273.0464,146.1452Z" transform="translate(-9.2652 -6.2093)" style="fill:#232326"/><path d="M415.0206,331.3741c.0079.05.0111.102.0183.1523C415.0318,331.476,415.0285,331.4243,415.0206,331.3741Z" transform="translate(-9.2652 -6.2093)" style="fill:#232326"/><path d="M413.1107,327.0568q-16.0088-.02-32.0173-.03,16.0086-.0081,32.0174.03Z" transform="translate(-9.2652 -6.2093)" style="fill:#232326"/><path d="M415.1138,332.1546q.0328.3966.0391.8019Q415.1466,332.5512,415.1138,332.1546Z" transform="translate(-9.2652 -6.2093)" style="fill:#232326"/><path d="M414.8711,330.6124l.0016.0082Z" transform="translate(-9.2652 -6.2093)" style="fill:#232326"/><path d="M400.88,314.5427c4.0627,4.1452,8.4011,8.0225,12.1739,12.4506C409.2808,322.5651,404.9423,318.6878,400.88,314.5427Z" transform="translate(-9.2652 -6.2093)" style="fill:#232326"/><path d="M273.6667,146.6075c.1.0879.1991.1794.2976.2725C273.8658,146.7869,273.7667,146.6953,273.6667,146.6075Z" transform="translate(-9.2652 -6.2093)" style="fill:#232326"/><path d="M273.3611,146.357c.0722.0546.1427.115.2135.1748C273.5038,146.472,273.4333,146.4116,273.3611,146.357Z" transform="translate(-9.2652 -6.2093)" style="fill:#232326"/><path d="M291.25,211.4177c.03.0874.0635.1735.0936.2608l2.5392-2.8248C291.5294,208.1959,290.4614,209.1082,291.25,211.4177Z" transform="translate(-9.2652 -6.2093)" style="fill:#232326"/><path d="M271.4084,146.05a2.2288,2.2288,0,0,0-.2109.0934l-.1042.0531c.0212-.0111.0415-.017.0629-.0295A2.33,2.33,0,0,1,271.4084,146.05Z" transform="translate(-9.2652 -6.2093)" style="fill:#232326"/></g></svg>