<?xml version="1.0" encoding="utf-8"?>
<svg version="1.1" class="image" xmlns="http://www.w3.org/2000/svg" xmlns:xlink="http://www.w3.org/1999/xlink" x="0px" y="0px"
	 viewBox="0 0 362.1 503.8" style="enable-background:new 0 0 362.1 503.8;" xml:space="preserve">
<style type="text/css">
	.st0{fill:#FF1D8E;}
	.st1{fill:#1D1D1B;}
	.st2{fill-rule:evenodd;clip-rule:evenodd;fill:#1D1D1B;}
</style>
<g>
	<path class="st0" d="M275.9,170.2c0-6.2-5-11.2-11.2-11.2s-11.2,5-11.2,11.2c0,6.2,5,11.2,11.2,11.2
		C270.9,181.4,275.9,176.4,275.9,170.2L275.9,170.2C275.9,170.2,275.9,170.2,275.9,170.2z"/>
	<path class="st0" d="M330.5,162h-36.3h-16.8c3,4.9,3,11,0,15.9h24.9v27.6c0,3.2,2.6,5.9,5.9,5.9l22.3,0c3.2,0,5.9-2.6,5.9-5.9
		l0-37.6C336.4,164.6,333.8,162,330.5,162z"/>
</g>
<g id="a93d1b4c-89cd-49c8-9269-4388fbab0f26">
	<path class="st1" d="M2.6,202.6c0,0,0.1,0,0.1,0c0.8,0,1.4-0.6,1.5-1.4c0.4-3.9,0.9-7.9,1.5-11.8c0.1-0.8-0.4-1.6-1.2-1.7
		c-0.8-0.1-1.6,0.4-1.7,1.2l0,0c-0.6,3.9-1.1,8-1.5,12C1.2,201.8,1.8,202.5,2.6,202.6C2.6,202.6,2.6,202.6,2.6,202.6z M5,184.8
		c0.1,0,0.2,0,0.3,0c0.7,0,1.3-0.5,1.5-1.2c0.8-3.9,1.7-7.8,2.7-11.6c0.2-0.8-0.3-1.6-1.1-1.8c-0.8-0.2-1.6,0.3-1.8,1
		c-1,3.8-2,7.8-2.8,11.8C3.6,183.9,4.2,184.7,5,184.8C5,184.8,5,184.8,5,184.8L5,184.8z M2,220.6L2,220.6c0.8,0,1.5-0.7,1.5-1.5l0,0
		c0-0.5,0-1.1,0-1.6c0-3.4,0.1-6.9,0.3-10.3c0-0.8-0.6-1.5-1.4-1.6c-0.8,0-1.5,0.6-1.6,1.4c-0.2,3.4-0.3,7-0.3,10.4
		c0,0.5,0,1.1,0,1.6C0.5,219.9,1.2,220.6,2,220.6z M6.2,256.2c0.8-0.2,1.3-1,1.2-1.8c-0.8-3.8-1.5-7.7-2.1-11.7
		c-0.1-0.8-0.9-1.4-1.7-1.3s-1.4,0.9-1.3,1.7c0.6,4,1.3,8,2.1,11.9C4.6,255.8,5.4,256.3,6.2,256.2C6.2,256.2,6.2,256.2,6.2,256.2
		L6.2,256.2z M12.1,271.5c-1.2-3.7-2.4-7.5-3.4-11.4c-0.2-0.8-1-1.3-1.8-1.1c-0.8,0.2-1.3,1-1.1,1.8l0,0c1,3.9,2.2,7.8,3.4,11.6
		c0.3,0.8,1.1,1.2,1.9,0.9C11.9,273.1,12.3,272.3,12.1,271.5L12.1,271.5z M3.2,238.5c0.8-0.1,1.4-0.8,1.3-1.7
		c-0.4-3.9-0.7-7.9-0.9-11.8c0-0.8-0.7-1.5-1.5-1.5s-1.5,0.7-1.5,1.5c0,0,0,0,0,0c0.2,4,0.5,8.1,0.9,12c0.1,0.8,0.7,1.3,1.5,1.3
		C3.1,238.5,3.2,238.5,3.2,238.5z M68.5,336.4c-3.6-1.7-7.1-3.6-10.4-5.6c-0.7-0.4-1.6-0.2-2.1,0.5c-0.4,0.7-0.2,1.6,0.5,2.1
		c3.4,2.1,7,4,10.7,5.8c0.7,0.4,1.6,0.1,2-0.7S69.3,336.8,68.5,336.4C68.6,336.4,68.5,336.4,68.5,336.4z M119.8,350.3
		c-4-0.4-7.9-0.9-11.8-1.6c-0.8-0.1-1.6,0.4-1.7,1.2s0.4,1.6,1.2,1.7c3.9,0.7,8,1.2,12,1.6c0.1,0,0.1,0,0.1,0c0.8,0,1.5-0.7,1.5-1.5
		C121.2,351,120.6,350.3,119.8,350.3z M102.2,347.6c-3.9-0.8-7.8-1.8-11.5-2.8c-0.8-0.2-1.6,0.2-1.9,1c-0.2,0.8,0.2,1.6,1,1.9
		c3.8,1.1,7.8,2.1,11.7,2.9c0.1,0,0.2,0,0.3,0c0.8,0,1.5-0.7,1.5-1.5C103.4,348.4,102.9,347.7,102.2,347.6L102.2,347.6z
		 M109.6,313.6c0.8,0,1.5-0.7,1.5-1.5c0-0.4-0.2-0.8-0.4-1.1c-2.8-2.8-5.3-5.8-7.6-8.9c-0.5-0.7-1.4-0.8-2.1-0.3
		c-0.7,0.5-0.8,1.4-0.3,2.1c2.4,3.3,5,6.4,7.9,9.3C108.9,313.4,109.2,313.6,109.6,313.6L109.6,313.6z M91.2,283.2
		c0.8,0,1.5-0.7,1.5-1.5c0-0.2,0-0.3-0.1-0.4c-1.2-3.7-2-7.6-2.4-11.4c-0.1-0.8-0.8-1.4-1.7-1.3c-0.8,0.1-1.4,0.8-1.3,1.7
		c0.5,4.1,1.3,8.1,2.6,12C89.9,282.8,90.5,283.2,91.2,283.2z M88.2,265.5L88.2,265.5c0.9,0,1.5-0.7,1.5-1.5c0-0.5,0-1,0-1.5
		c0-3.4,0.3-6.8,0.8-10.1c0.1-0.8-0.4-1.6-1.2-1.7c-0.8-0.1-1.6,0.4-1.7,1.2c-0.6,3.5-0.8,7-0.8,10.6c0,0.5,0,1.1,0,1.6
		C86.8,264.9,87.4,265.5,88.2,265.5z M155.4,350.2c-3.9,0.4-7.9,0.6-11.9,0.8c-0.8,0-1.5,0.7-1.4,1.6c0,0.8,0.7,1.4,1.5,1.4l0.1,0
		c4-0.1,8.1-0.4,12-0.8c0.8-0.1,1.4-0.8,1.3-1.7C156.9,350.8,156.2,350.2,155.4,350.2L155.4,350.2z M139.7,330.9
		c-3.6-1.7-7.1-3.5-10.4-5.5c-0.7-0.4-1.6-0.2-2.1,0.5c-0.4,0.7-0.2,1.6,0.5,2c3.5,2.1,7.1,4,10.7,5.7c0.8,0.3,1.6,0,2-0.7
		S140.5,331.3,139.7,330.9L139.7,330.9z M137.6,351.1h-0.2c-3.9,0-7.8-0.1-11.7-0.4c-0.8-0.1-1.5,0.6-1.6,1.4s0.6,1.5,1.4,1.6
		c3.9,0.3,7.9,0.4,11.9,0.4h0.2c0.8,0,1.5-0.7,1.5-1.5S138.4,351.1,137.6,351.1L137.6,351.1z M124.7,324.3c0.5-0.7,0.3-1.6-0.4-2.1
		c0,0,0,0,0,0c-3.3-2.2-6.4-4.6-9.3-7.2c-0.6-0.5-1.6-0.5-2.1,0.2c-0.5,0.6-0.5,1.5,0.1,2.1c3,2.7,6.3,5.1,9.6,7.4
		C123.3,325.2,124.2,325,124.7,324.3C124.7,324.3,124.7,324.3,124.7,324.3z M9.2,167.4c0.8,0.2,1.6-0.2,1.9-1c0,0,0,0,0,0
		c1.2-3.8,2.5-7.5,4-11.2c0.3-0.8-0.1-1.6-0.9-1.9c-0.8-0.3-1.6,0.1-1.9,0.8c-1.5,3.7-2.9,7.5-4.1,11.4C8,166.3,8.5,167.1,9.2,167.4
		z M37.2,314.5c-2.1-2.1-4-4.3-5.9-6.6c-0.5-0.7-1.5-0.8-2.1-0.3s-0.8,1.5-0.3,2.1c0,0,0,0,0,0c1.9,2.4,3.9,4.7,6.1,6.8
		c0.7,0.7,1.4,1.4,2.2,2.1c0.6,0.6,1.6,0.5,2.1-0.1c0.6-0.6,0.5-1.5-0.1-2.1C38.6,315.9,37.9,315.2,37.2,314.5z M30.3,159.6
		c0.8-0.3,1.2-1.1,1-1.9c-1.2-3.7-2.2-7.6-3.1-11.4c-0.2-0.8-1-1.3-1.8-1.2s-1.3,1-1.2,1.8c0,0,0,0,0,0c0.8,4,1.9,7.9,3.2,11.7
		C28.6,159.4,29.5,159.9,30.3,159.6C30.3,159.6,30.3,159.6,30.3,159.6z M21.6,293.2c-0.4-0.7-1.3-1-2-0.6c-0.7,0.4-1,1.3-0.6,2
		c0,0,0,0,0,0c2,3.5,4.1,7,6.4,10.3c0.5,0.7,1.4,0.8,2.1,0.4s0.8-1.4,0.4-2.1C25.6,300,23.5,296.6,21.6,293.2z M53.1,327.6
		c-3.3-2.2-6.4-4.6-9.4-7.1c-0.6-0.5-1.6-0.5-2.1,0.2c-0.5,0.6-0.5,1.6,0.2,2.1c3.1,2.6,6.3,5.1,9.7,7.3c0.7,0.5,1.6,0.3,2.1-0.4
		C54,329,53.8,328.1,53.1,327.6L53.1,327.6z M72.3,216.4c0.5-0.7,0.3-1.6-0.4-2.1c0,0,0,0,0,0c-3.2-2.3-6.3-4.7-9.2-7.4
		c-0.6-0.6-1.6-0.5-2.1,0.1c-0.6,0.6-0.5,1.6,0.1,2.1c3,2.7,6.2,5.3,9.5,7.6C70.8,217.3,71.8,217.1,72.3,216.4z M85,343
		c-3.8-1.3-7.5-2.7-11.1-4.2c-0.8-0.3-1.6,0-2,0.8c-0.3,0.8,0,1.6,0.8,2c3.6,1.6,7.5,3,11.3,4.3c0.8,0.3,1.6-0.2,1.9-0.9
		S85.8,343.3,85,343C85,343,85,343,85,343L85,343z M18.8,287.9c-1.7-3.5-3.3-7.1-4.7-10.8c-0.3-0.8-1.1-1.2-1.9-0.9
		c-0.8,0.3-1.2,1.1-0.9,1.9c0,0,0,0,0,0c1.5,3.8,3.1,7.6,4.8,11.1c0.4,0.7,1.3,1,2,0.7C18.9,289.6,19.2,288.7,18.8,287.9L18.8,287.9
		z M88,225c0.3-0.8,0-1.6-0.8-2c-3.6-1.6-7.1-3.4-10.4-5.4c-0.7-0.4-1.6-0.2-2.1,0.5c-0.4,0.7-0.2,1.6,0.5,2.1
		c3.5,2.1,7.1,4,10.8,5.6C86.8,226.1,87.7,225.7,88,225C88,225,88,225,88,225L88,225z M112.5,82.5c-0.1,0.8,0.6,1.5,1.4,1.6
		c0,0,0,0,0,0c3.9,0.3,7.8,0.9,11.5,1.9c0.1,0,0.2,0,0.4,0c0.8,0,1.5-0.7,1.5-1.5c0-0.7-0.5-1.3-1.1-1.5c-4-1-8-1.6-12.1-1.9
		C113.3,81,112.6,81.6,112.5,82.5z M101.2,12.2c0.2,0,0.4,0,0.6-0.1c3.6-1.5,7.4-2.8,11.1-3.9c0.8-0.2,1.3-1,1-1.8
		c-0.2-0.8-1-1.3-1.8-1c0,0,0,0,0,0c-3.9,1.1-7.7,2.5-11.4,4c-0.8,0.3-1.1,1.2-0.8,2C100.1,11.8,100.6,12.2,101.2,12.2L101.2,12.2z
		 M91.7,84.3c-0.2-0.8-1-1.3-1.8-1.1c0,0,0,0,0,0c-3.9,1-7.8,2.2-11.6,3.6c-0.8,0.3-1.2,1.2-0.9,1.9c0.3,0.8,1.2,1.2,1.9,0.9
		c0,0,0,0,0,0c3.7-1.4,7.4-2.6,11.2-3.5C91.4,85.9,91.9,85.1,91.7,84.3C91.7,84.3,91.7,84.3,91.7,84.3z M156.3,337.3
		c-3.8-1.2-7.6-2.6-11.1-4c-0.8-0.3-1.6,0-2,0.8c-0.3,0.8,0,1.6,0.8,2c0,0,0,0,0,0c3.6,1.5,7.5,2.9,11.4,4.1c0.8,0.2,1.6-0.2,1.9-1
		C157.5,338.4,157.1,337.5,156.3,337.3z M95.9,82c-0.8,0.1-1.4,0.9-1.2,1.7c0.1,0.7,0.7,1.3,1.5,1.3c0.1,0,0.2,0,0.3,0
		c3.9-0.7,7.8-1,11.7-1.1c0.8,0,1.5-0.7,1.5-1.5c0,0,0,0,0,0c0-0.8-0.7-1.5-1.5-1.5C103.9,80.9,99.9,81.3,95.9,82z M92.6,285.9
		c-0.8,0.3-1.1,1.2-0.8,2c1.2,2.9,2.6,5.8,4.1,8.6c0.4,0.8,0.9,1.6,1.4,2.3c0.4,0.7,1.4,0.9,2.1,0.5c0.7-0.4,0.9-1.4,0.5-2.1l0,0
		c-0.4-0.7-0.9-1.5-1.3-2.2c-1.5-2.7-2.8-5.4-4-8.2C94.3,286,93.4,285.6,92.6,285.9z M85.2,20.2c0.3,0,0.5-0.1,0.8-0.2
		c3.4-2,6.8-3.9,10.4-5.6c0.8-0.3,1.1-1.2,0.7-2c-0.3-0.8-1.2-1.1-2-0.7c0,0,0,0,0,0c-3.7,1.7-7.2,3.6-10.7,5.7
		c-0.7,0.4-0.9,1.3-0.5,2.1C84.2,19.9,84.7,20.2,85.2,20.2L85.2,20.2z M94.6,233.5c-0.8-0.3-1.6,0-2,0.8c0,0,0,0,0,0
		c-1.6,3.7-2.9,7.6-3.9,11.6c-0.2,0.8,0.3,1.6,1.1,1.8c0.8,0.2,1.6-0.3,1.8-1.1c1-3.8,2.2-7.5,3.7-11.1
		C95.8,234.7,95.4,233.8,94.6,233.5C94.6,233.5,94.6,233.5,94.6,233.5L94.6,233.5z M118.3,6.7c0.1,0,0.2,0,0.3,0
		c3.8-0.9,7.7-1.6,11.6-2.1c0.8-0.1,1.4-0.9,1.3-1.7c-0.1-0.8-0.9-1.4-1.7-1.3c-4,0.5-8,1.3-11.9,2.2c-0.8,0.2-1.3,1-1.1,1.8
		C117,6.2,117.6,6.7,118.3,6.7L118.3,6.7z M15.5,150.5c0.8,0.3,1.6,0,2-0.7c0,0,0,0,0,0c1.6-3.6,3.5-7.2,5.4-10.5
		c0.4-0.7,0.1-1.6-0.6-2c-0.7-0.4-1.6-0.1-2,0.6c-2,3.5-3.8,7.1-5.5,10.8C14.4,149.3,14.7,150.2,15.5,150.5
		C15.5,150.5,15.5,150.5,15.5,150.5z M188.8,10.1c3.7,1.1,7.5,2.4,11.2,3.8c0.8,0.3,1.6-0.1,1.9-0.9c0.3-0.8-0.1-1.6-0.9-1.9
		c0,0,0,0,0,0c-3.8-1.4-7.7-2.7-11.4-3.9c-0.8-0.2-1.6,0.2-1.9,1C187.5,9,188,9.9,188.8,10.1C188.8,10.1,188.8,10.1,188.8,10.1
		L188.8,10.1z M205.9,16.2c1.8,0.7,3.6,1.5,5.5,2.3c0.8,0.3,1.6,0,2-0.8s0-1.6-0.8-2c0,0,0,0,0,0c-1.9-0.8-3.7-1.6-5.6-2.4
		c-0.8-0.3-1.6,0.1-2,0.8C204.8,15.1,205.2,15.9,205.9,16.2L205.9,16.2z M136,3.9c0,0,0.1,0,0.1,0c3.9-0.3,7.8-0.5,11.8-0.4
		c0.8,0,1.5-0.7,1.5-1.5c0-0.8-0.7-1.5-1.5-1.5c-4.1-0.1-8.1,0.1-12.1,0.4c-0.8,0.1-1.4,0.8-1.4,1.6C134.6,3.3,135.2,3.9,136,3.9
		L136,3.9z M130.1,85.7c-0.3,0.8,0.1,1.6,0.9,1.9c3.7,1.3,7.3,2.9,10.7,4.8c0.7,0.4,1.6,0.1,2-0.6c0.4-0.7,0.1-1.6-0.6-2
		c-3.6-2-7.3-3.7-11.1-5C131.2,84.5,130.4,84.9,130.1,85.7L130.1,85.7z M153.9,3.7c3.9,0.2,7.8,0.6,11.8,1.2c0.1,0,0.1,0,0.2,0
		c0.8,0,1.5-0.7,1.5-1.5c0-0.7-0.5-1.4-1.3-1.5c-4-0.6-8.1-1-12-1.2c-0.8,0-1.5,0.6-1.6,1.4C152.4,3,153,3.7,153.9,3.7L153.9,3.7z
		 M171.5,5.9c3.8,0.7,7.7,1.6,11.6,2.6c0.8,0.2,1.6-0.3,1.8-1.1c0.2-0.8-0.3-1.6-1.1-1.8c-3.9-1-7.9-1.9-11.8-2.7
		c-0.8-0.2-1.6,0.4-1.7,1.2C170.1,5,170.7,5.7,171.5,5.9L171.5,5.9z M36.8,72.4c0.7,0.4,1.6,0.1,2-0.7c0,0,0,0,0,0
		c1.8-3.5,3.7-7,5.8-10.3c0.4-0.7,0.2-1.6-0.5-2.1c-0.7-0.4-1.6-0.2-2,0.5c-2.1,3.4-4.1,7-5.9,10.6C35.8,71.2,36.1,72.1,36.8,72.4
		C36.8,72.4,36.8,72.4,36.8,72.4z M42.5,109.2c-2.9,2.8-5.7,5.7-8.4,8.7c-0.6,0.6-0.5,1.6,0.1,2.1c0.6,0.6,1.6,0.5,2.1-0.1
		c0,0,0,0,0-0.1c2.6-3,5.3-5.8,8.2-8.5c0.6-0.6,0.6-1.5,0-2.1C44,108.7,43.1,108.7,42.5,109.2L42.5,109.2z M45.7,56.9
		c0.7,0.5,1.6,0.3,2.1-0.4c2.2-3.3,4.6-6.4,7.1-9.5c0.5-0.6,0.4-1.6-0.2-2.1c-0.6-0.5-1.6-0.4-2.1,0.2c-2.5,3.1-5,6.4-7.3,9.7
		C44.9,55.5,45.1,56.4,45.7,56.9z M24.3,124.4L24.3,124.4c0.8,0,1.5-0.7,1.5-1.5c0-3.6,0.3-7.3,0.7-10.9l0.1-0.9
		c0.1-0.8-0.5-1.6-1.3-1.7c-0.8-0.1-1.6,0.5-1.7,1.3c0,0,0,0,0,0l-0.1,0.9c-0.5,3.7-0.7,7.5-0.8,11.2
		C22.8,123.7,23.4,124.4,24.3,124.4C24.3,124.4,24.3,124.4,24.3,124.4z M44.7,191c0.5,0.7,1.4,0.8,2.1,0.3c0.7-0.5,0.8-1.4,0.3-2.1
		c-2.3-3.2-4.4-6.5-6.3-10c-0.4-0.7-1.3-1-2.1-0.5c-0.7,0.4-0.9,1.3-0.6,2C40.2,184.3,42.3,187.7,44.7,191L44.7,191z M30.1,89.1
		c0.8,0.3,1.6-0.2,1.9-0.9c0,0,0,0,0,0c1.3-3.7,2.7-7.4,4.3-11c0.3-0.8,0-1.6-0.8-2c-0.8-0.3-1.6,0-2,0.8l0,0
		c-1.6,3.7-3.1,7.5-4.4,11.3C28.9,88,29.3,88.8,30.1,89.1z M25.8,106.5c0.8,0.2,1.6-0.4,1.7-1.2c0,0,0,0,0,0
		c0.7-3.8,1.6-7.7,2.7-11.5c0.2-0.8-0.2-1.6-1-1.9s-1.6,0.2-1.9,1l0,0c-1.1,3.9-2.1,7.9-2.8,11.8C24.4,105.6,25,106.3,25.8,106.5
		C25.8,106.5,25.8,106.5,25.8,106.5z M57.6,43c0.4,0,0.8-0.2,1.1-0.5c2.6-2.9,5.4-5.8,8.3-8.4c0.6-0.6,0.7-1.5,0.1-2.1
		c-0.6-0.6-1.5-0.7-2.1-0.1l0,0c-3,2.7-5.8,5.6-8.5,8.6c-0.6,0.6-0.5,1.6,0.1,2.1C56.9,42.9,57.3,43,57.6,43L57.6,43z M70.6,30.6
		c0.3,0,0.7-0.1,1-0.3c3-2.5,6.2-4.9,9.5-7.1c0.7-0.5,0.9-1.4,0.4-2.1c-0.5-0.7-1.4-0.9-2.1-0.4c0,0,0,0,0,0
		c-3.3,2.2-6.6,4.7-9.7,7.3c-0.6,0.5-0.7,1.5-0.2,2.1C69.7,30.4,70.1,30.6,70.6,30.6L70.6,30.6z M58.8,98.3
		c-0.5-0.7-1.4-0.9-2.1-0.4c0,0,0,0,0,0c-3.4,2.2-6.6,4.7-9.7,7.3c-0.6,0.5-0.7,1.5-0.2,2.1c0.5,0.6,1.5,0.7,2.1,0.2c0,0,0,0,0,0
		c3-2.5,6.2-4.9,9.4-7.1C59.1,100,59.3,99,58.8,98.3C58.8,98.3,58.8,98.3,58.8,98.3z M72.7,89.2c-0.6,0.3-1.3,0.6-1.9,0.9
		c-3,1.4-6,3-8.9,4.7c-0.7,0.4-1,1.3-0.5,2.1c0.4,0.7,1.3,1,2.1,0.5c2.8-1.6,5.7-3.2,8.6-4.6c0.6-0.3,1.2-0.6,1.9-0.9
		c0.8-0.3,1.1-1.2,0.8-2S73.4,88.8,72.7,89.2L72.7,89.2z M50.7,194c-0.5-0.6-1.5-0.8-2.1-0.2s-0.8,1.5-0.2,2.1l0,0
		c2.5,3.2,5.2,6.2,8,9.1c0.6,0.6,1.5,0.6,2.1,0s0.6-1.5,0-2.1c0,0,0,0,0,0C55.7,200,53.1,197.1,50.7,194z M30.4,164.4
		c1.4,3.8,3.1,7.5,4.9,11.1c0.4,0.7,1.3,1,2,0.7c0.7-0.4,1-1.3,0.7-2c-1.8-3.5-3.4-7.1-4.8-10.8c-0.3-0.8-1.2-1.2-1.9-0.9
		S30.1,163.6,30.4,164.4L30.4,164.4L30.4,164.4z M32.4,122.4c-0.7-0.5-1.6-0.4-2.1,0.3c-1.5,2-3,4-4.4,6.1c-0.1-0.8-0.8-1.4-1.7-1.3
		c-0.8,0.1-1.4,0.8-1.3,1.6c0.1,1.4,0.1,2.7,0.3,4.1c-0.1,0.3,0,0.6,0.1,0.9c0.2,2.3,0.5,4.7,0.9,7c0.1,0.8,0.9,1.4,1.7,1.3
		c0.8-0.1,1.4-0.9,1.3-1.7c0,0,0,0,0,0c-0.4-2.3-0.6-4.6-0.9-6.9c2-3.2,4.2-6.2,6.4-9.2C33.2,123.8,33,122.9,32.4,122.4
		C32.4,122.4,32.4,122.4,32.4,122.4z M321.8,191.8c-0.4-0.7-1.3-1-2-0.6c-0.7,0.4-1,1.3-0.6,2c0,0,0,0,0,0c1.9,3.4,3.7,6.9,5.2,10.6
		c0.3,0.8,1.2,1.2,1.9,0.9c0.8-0.3,1.2-1.2,0.9-1.9c0,0,0,0,0,0C325.6,199,323.8,195.3,321.8,191.8L321.8,191.8z M109.6,231.7
		c1.7,0.1,3.3,0.2,5,0.2h0c2.4,0,4.8-0.1,7.2-0.4c0.8-0.1,1.4-0.9,1.3-1.7c-0.1-0.8-0.8-1.4-1.6-1.3c-2.3,0.3-4.6,0.4-6.9,0.4
		c-1.6,0-3.2-0.1-4.8-0.2c-0.5,0-1,0.2-1.3,0.6c0,0.6,0,1.2,0,1.8C108.8,231.5,109.2,231.7,109.6,231.7z M115.4,204.5
		c-0.6-0.6-1.5-0.6-2.1,0c-1.7,1.7-3.3,3.4-4.9,5.2c0,1.5,0,3.1,0,4.6c2.2-2.7,4.5-5.2,6.9-7.7C116,206,116,205.1,115.4,204.5z
		 M226.1,156.6c-3.3,2.4-6.4,5-9.4,7.7c-0.6,0.6-0.7,1.5-0.1,2.1c0.6,0.6,1.5,0.7,2.1,0.1c0,0,0,0,0,0c2.9-2.7,5.9-5.2,9.1-7.5
		c0.1-0.1,0.2-0.2,0.3-0.2c-0.1-0.7-0.2-1.5-0.3-2.2C227.3,156.2,226.6,156.3,226.1,156.6L226.1,156.6z M167.2,116.2
		c0.5,0.7,1.4,0.9,2.1,0.4c0.7-0.5,0.9-1.4,0.4-2.1l0,0c-2-2.9-4.1-5.7-6.4-8.4c-1.2,0.1-2.4,0.2-3.5,0.4c0.1,0.1,0.1,0.3,0.2,0.4
		C162.6,109.9,165,113,167.2,116.2z M201.8,183.5c-1.9,3.6-3.5,7.4-4.7,11.3c-0.2,0.8,0.2,1.6,1,1.9s1.6-0.2,1.9-1
		c1.2-3.7,2.7-7.3,4.5-10.7c0.4-0.7,0.1-1.6-0.6-2S202.2,182.8,201.8,183.5L201.8,183.5z M202.7,179.1c0.7,0,1.3,0,2,0.1
		c0,0.8,0.7,1.5,1.5,1.5c0.5,0,0.9-0.3,1.2-0.7c0.1-0.2,0.3-0.4,0.4-0.6c2.3,0.1,4.5,0.3,6.7,0.6c0.8,0.1,1.6-0.5,1.6-1.3
		s-0.5-1.6-1.3-1.6c-1.6-0.2-3.3-0.3-5-0.4c1.5-2,3.1-3.9,4.8-5.7c0.6-0.6,0.5-1.6-0.1-2.1c-0.6-0.6-1.6-0.5-2.1,0.1
		c-2.2,2.4-4.2,4.9-6.1,7.5c-1.2-0.1-2.4-0.1-3.5-0.2c-0.8,0-1.5,0.6-1.6,1.4C201.2,178.4,201.9,179.1,202.7,179.1L202.7,179.1z
		 M319.2,290.1c-0.4,0.7-0.1,1.6,0.7,2s1.6,0.1,2-0.7c0,0,0,0,0,0c1.7-3.5,3.2-7.1,4.5-10.8h-3.2C322,283.9,320.6,287.1,319.2,290.1
		L319.2,290.1z M92.4,225.2c-0.8-0.3-1.6,0.1-1.9,0.9c-0.3,0.8,0.1,1.6,0.9,1.9l0,0c1.1,0.4,2.3,0.8,3.4,1.1
		c-0.2,0.7,0.1,1.4,0.8,1.7c0.2,0.1,0.4,0.2,0.6,0.2v-4.6C95,226.1,93.7,225.7,92.4,225.2z M266.8,290.4c-0.5,0.7-0.3,1.6,0.4,2.1
		c0.7,0.5,1.6,0.3,2.1-0.4c2.3-3.3,4.5-6.8,6.4-10.3c0.2-0.4,0.2-0.9,0.1-1.3H273C271.1,284,269,287.3,266.8,290.4L266.8,290.4z
		 M148.4,93c-0.7-0.5-1.6-0.3-2.1,0.4c-0.5,0.7-0.3,1.6,0.4,2.1c0.7,0.5,1.4,0.9,2,1.4c1.3-0.3,2.6-0.6,3.9-0.8
		C151.2,95,149.8,94,148.4,93z M182.3,153c-0.8,0.1-1.4,0.8-1.4,1.6c0.2,2.4,0.4,4.9,0.4,7.3c0,1.5,0,2.9-0.1,4.4
		c0,0.8,0.6,1.5,1.4,1.6c0,0,0.1,0,0.1,0c0.8,0,1.4-0.6,1.5-1.4c0.1-1.5,0.1-3.1,0.1-4.6c0-2.5-0.1-5.1-0.4-7.6
		C183.8,153.5,183.1,152.9,182.3,153C182.3,153,182.3,153,182.3,153L182.3,153z M259.7,170.2c0,2.8,2.3,5.1,5.1,5.1
		c2.8,0,5.1-2.3,5.1-5.1c0-2.8-2.3-5.1-5.1-5.1c0,0,0,0,0,0C262,165.1,259.7,167.4,259.7,170.2C259.7,170.2,259.7,170.2,259.7,170.2
		z M217.2,253c-1.6-1-3.1-2.2-4.5-3.5c-0.6-0.6-1.6-0.5-2.1,0.1c-0.5,0.6-0.5,1.5,0.1,2.1c1.5,1.4,3.2,2.7,4.9,3.8
		c0.7,0.4,1.6,0.2,2.1-0.5C218.1,254.3,217.9,253.4,217.2,253L217.2,253L217.2,253z M220.6,177.7c-0.8-0.1-1.6,0.5-1.7,1.3
		s0.5,1.6,1.3,1.7c2.9,0.4,5.7,0.9,8.4,1.5v-3.1C226,178.6,223.3,178.1,220.6,177.7L220.6,177.7z M182.3,170.9
		c-0.8-0.1-1.6,0.5-1.7,1.3c-0.2,1.6-0.5,3.2-0.9,4.8c-0.3-0.2-0.6-0.3-1-0.3c-4,0.3-8,0.8-12,1.3c-0.8,0.1-1.4,0.8-1.3,1.7
		c0.1,0.8,0.8,1.4,1.7,1.3c0,0,0,0,0,0c3.9-0.5,7.9-1,11.8-1.3c0,0,0.1,0,0.1,0c-0.3,1.3-0.7,2.6-1.1,3.9c-0.3,0.8,0.2,1.6,1,1.9
		c0.8,0.3,1.6-0.2,1.9-1c1.3-3.9,2.2-7.9,2.8-11.9C183.7,171.8,183.1,171,182.3,170.9C182.3,170.9,182.3,170.9,182.3,170.9z
		 M177.9,188.2c-0.8-0.3-1.6,0-2,0.8c0,0,0,0,0,0c-1.5,3.6-3.4,7-5.6,10.2c-0.5,0.7-0.3,1.6,0.4,2.1c0.7,0.5,1.6,0.3,2.1-0.4
		c0,0,0,0,0,0c2.3-3.4,4.3-7,5.9-10.7C179,189.5,178.6,188.6,177.9,188.2C177.9,188.2,177.9,188.2,177.9,188.2z M196.8,179
		L196.8,179c0.8,0,1.5-0.7,1.5-1.5s-0.7-1.5-1.5-1.5h-0.5c-3.8,0-7.7,0.1-11.5,0.3c-0.8,0-1.5,0.8-1.4,1.6c0,0.8,0.7,1.4,1.5,1.4
		c0,0,0.1,0,0.1,0c3.8-0.2,7.7-0.3,11.4-0.3L196.8,179z M195.9,214.5L195.9,214.5c0.8,0,1.5-0.7,1.5-1.5c0,0,0,0,0,0l0-0.6
		c0-3.7,0.4-7.3,1.1-11c0.2-0.8-0.4-1.6-1.2-1.8c-0.8-0.2-1.6,0.4-1.8,1.2c0,0,0,0,0,0c-0.8,3.8-1.1,7.7-1.1,11.5l0,0.7
		C194.4,213.8,195.1,214.5,195.9,214.5L195.9,214.5z M166.8,203.9c-2.5,3-5.3,5.8-8.2,8.3c-0.6,0.5-0.7,1.5-0.2,2.1
		c0.5,0.6,1.5,0.7,2.1,0.2c3.1-2.6,6-5.5,8.6-8.7c0.5-0.6,0.4-1.6-0.2-2.1C168.2,203.2,167.3,203.3,166.8,203.9L166.8,203.9
		L166.8,203.9z M173,347.6c-3.9,0.8-7.8,1.4-11.7,1.9c-0.8,0.1-1.4,0.9-1.3,1.7c0.1,0.8,0.9,1.4,1.7,1.3c4-0.5,8-1.2,11.9-2
		c0.8-0.2,1.3-0.9,1.2-1.8C174.6,348,173.8,347.5,173,347.6L173,347.6z M200.4,230.1c-1.3-3.7-2.1-7.5-2.6-11.3
		c-0.1-0.8-0.8-1.4-1.7-1.3c-0.8,0.1-1.4,0.8-1.3,1.7c0,0,0,0,0,0c0.5,4.1,1.4,8.1,2.7,12c0.2,0.6,0.8,1,1.4,1
		c0.8,0,1.5-0.7,1.5-1.5C200.4,230.4,200.4,230.2,200.4,230.1L200.4,230.1z M129.4,193.2c-0.5-0.7-1.4-0.8-2.1-0.4
		c-3.3,2.3-6.5,4.8-9.5,7.5c-0.6,0.5-0.7,1.5-0.2,2.1c0.5,0.6,1.5,0.7,2.1,0.2c0,0,0,0,0,0c2.9-2.6,6-5,9.3-7.3
		C129.7,194.8,129.9,193.9,129.4,193.2C129.4,193.2,129.4,193.2,129.4,193.2z M162.5,180.1c-0.1-0.8-0.9-1.4-1.7-1.2c0,0,0,0,0,0
		c-1.1,0.2-2.3,0.4-3.4,0.6c-2.9,0.5-5.7,1.2-8.5,2.2c-0.8,0.3-1.2,1.1-0.9,1.9s1.1,1.2,1.9,0.9c2.6-0.9,5.3-1.6,8-2.1
		c1.1-0.2,2.2-0.4,3.4-0.6C162.1,181.7,162.6,181,162.5,180.1C162.5,180.1,162.5,180.1,162.5,180.1L162.5,180.1z M175.4,131.8
		c0.3,0.8,1.2,1.1,2,0.8c0.8-0.3,1.1-1.2,0.8-1.9c-1.5-3.8-3.3-7.4-5.3-11c-0.4-0.7-1.3-0.9-2.1-0.5c-0.7,0.4-0.9,1.3-0.5,2
		C172.2,124.6,173.9,128.2,175.4,131.8L175.4,131.8z M133.2,192.3c0.3,0,0.5-0.1,0.8-0.2c3.3-2,6.8-3.9,10.4-5.4
		c0.8-0.3,1.1-1.2,0.8-2c-0.3-0.8-1.2-1.1-2-0.8c-3.7,1.6-7.3,3.5-10.8,5.6c-0.7,0.4-0.9,1.4-0.5,2.1
		C132.2,192,132.6,192.3,133.2,192.3L133.2,192.3z M138.5,224.2c-3.6,1.5-7.4,2.6-11.2,3.4c-0.8,0.2-1.3,1-1.2,1.8s1,1.3,1.8,1.2
		c4-0.8,7.9-2,11.7-3.5c0.8-0.3,1.1-1.2,0.8-2C140.1,224.3,139.2,223.9,138.5,224.2L138.5,224.2z M153.9,215.8
		c-3.2,2.3-6.6,4.3-10,6.1c-0.7,0.4-1.1,1.3-0.7,2s1.3,1.1,2,0.7c0,0,0,0,0,0c3.6-1.8,7.1-3.9,10.4-6.3c0.7-0.5,0.8-1.4,0.4-2.1
		C155.5,215.4,154.5,215.3,153.9,215.8L153.9,215.8z M177.4,137.4c1.2,3.7,2.1,7.6,2.8,11.4c0.1,0.8,0.9,1.4,1.7,1.3
		c0.8-0.1,1.4-0.9,1.3-1.7c0,0,0,0,0,0c-0.7-4-1.7-8-2.9-11.8c-0.3-0.8-1.1-1.2-1.9-1C177.6,135.7,177.1,136.6,177.4,137.4
		C177.4,137.3,177.4,137.4,177.4,137.4L177.4,137.4z M202.6,235.5c-0.4-0.7-1.2-1.1-2-0.7c-0.7,0.4-1.1,1.2-0.7,2
		c1.8,3.7,4,7.2,6.6,10.4c0.5,0.6,1.5,0.7,2.1,0.2s0.7-1.5,0.2-2.1l0,0C206.3,242.3,204.2,239,202.6,235.5L202.6,235.5z M293.5,95.1
		H164.4c-3.9,0-7.9,0.4-11.8,1c1.8,1.4,3.6,2.9,5.2,4.5c0.6,0.6,0.7,1.5,0.1,2.1c-0.6,0.6-1.5,0.7-2.1,0.1c0,0,0,0,0,0
		c-2.2-2.1-4.6-4.1-7.1-5.9c-30.7,7.3-52.4,34.7-52.4,66.3v63.2l0,0c1.5-2.7,3.2-5.4,5-8c0.5-0.7,1.4-0.8,2.1-0.4
		c0.7,0.5,0.8,1.4,0.4,2.1c-1.6,2.3-3.1,4.6-4.4,7c1.5,0.3,3,0.6,4.4,0.9c0.8,0.1,1.4,0.9,1.2,1.7c-0.1,0.8-0.9,1.4-1.7,1.2
		c-1.8-0.3-3.6-0.7-5.4-1.1c-0.1,0.1-0.1,0.2-0.2,0.3c-0.3,0.5-0.8,0.8-1.4,0.8v39c-0.2,5.6,4.2,10.3,9.8,10.5c0.3,0,0.5,0,0.8,0
		H273c0-0.1,0.1-0.1,0.1-0.2c0.4-0.7,1.3-1,2-0.6c0.3,0.2,0.6,0.5,0.7,0.8h47.4c0.2-0.5,0.4-1,0.5-1.4c0.3-0.8,1.1-1.2,1.9-0.9
		s1.2,1.1,0.9,1.9c0,0,0,0,0,0c-0.1,0.2-0.1,0.3-0.2,0.4h24.8c5.8,0,10.5-4.7,10.5-10.4c0,0,0-0.1,0-0.1V163.2
		C361.6,125.6,331.2,95.1,293.5,95.1z M264.8,148c0.2-0.8,1-1.3,1.8-1.2c4,0.8,7.9,2.1,11.7,3.7c0.8,0.3,1.1,1.2,0.8,2
		c-0.3,0.8-1.2,1.1-2,0.8c-3.6-1.6-7.3-2.7-11.1-3.5C265.1,149.6,264.6,148.8,264.8,148L264.8,148z M275.9,170.2
		c0,6.2-5,11.2-11.2,11.2c-6.2,0-11.2-5-11.2-11.2c0-6.2,5-11.2,11.2-11.2C270.9,159.1,275.9,164.1,275.9,170.2
		C275.9,170.2,275.9,170.2,275.9,170.2L275.9,170.2z M248.1,146.7c4.1-0.7,8.2-1,12.3-0.6c0.8,0.1,1.4,0.8,1.4,1.6
		c-0.1,0.8-0.8,1.4-1.6,1.4c0,0,0,0,0,0c-3.9-0.3-7.7-0.1-11.5,0.6c-0.1,0-0.2,0-0.3,0c-0.8,0-1.5-0.7-1.5-1.5
		C246.9,147.4,247.4,146.8,248.1,146.7L248.1,146.7z M231,153.3c3.5-2.1,7.3-3.9,11.2-5.1c0.8-0.3,1.6,0.2,1.9,1
		c0.3,0.8-0.2,1.6-1,1.9c0,0,0,0,0,0c-3.7,1.2-7.2,2.8-10.5,4.8c-0.7,0.4-1.6,0.2-2.1-0.5C230,154.7,230.2,153.8,231,153.3
		C230.9,153.3,230.9,153.3,231,153.3L231,153.3z M233.6,181.7c-0.2,0.8-1,1.3-1.8,1.1c0,0,0,0,0,0c-1.1-0.2-2.1-0.5-3.2-0.7v81.2
		c0,3.5-2,6.4-5.6,6.4c-19.5,0-84.3-0.3-108-0.3c-4.6,0-6.5-1-6.5-5.9c0-7.6,0-19.4-0.1-32.5c-0.4-0.5-0.4-1.3,0-1.8
		c0-4.9,0-10,0-15.1c-0.3,0.4-0.6,0.7-0.9,1.1c-0.5,0.7-1.4,0.8-2.1,0.3c-0.7-0.5-0.8-1.4-0.3-2.1c0,0,0,0,0,0
		c1-1.3,2.1-2.6,3.3-3.9c-0.1-16.3-0.1-32.4-0.1-43.6c0-29.8,21.8-55.1,51.3-59.5c-0.3-0.6-0.1-1.3,0.3-1.7c0.6-0.6,1.6-0.5,2.1,0.1
		c0,0,0,0,0,0c0.4,0.4,0.7,0.8,1.1,1.2c1.7-0.2,3.5-0.2,5.3-0.2c29.5,0,54.7,21.5,59.4,50.7c0.7,0.5,0.9,1.4,0.4,2
		c0,0.1-0.1,0.1-0.1,0.2c0.3,2.4,0.4,4.8,0.5,7.3v13c1.3,0.3,2.6,0.5,3.9,0.8C233.3,180.1,233.8,180.9,233.6,181.7
		C233.6,181.7,233.6,181.7,233.6,181.7L233.6,181.7z M250.7,187.4c-0.3,0.8-1.2,1.1-2,0.8c0,0,0,0,0,0c-3.6-1.5-7.4-2.8-11.1-3.9
		c-0.8-0.2-1.3-1.1-1-1.9c0.2-0.8,1.1-1.3,1.9-1l0,0c3.9,1.1,7.7,2.4,11.5,4C250.6,185.7,251,186.6,250.7,187.4
		C250.7,187.4,250.7,187.4,250.7,187.4L250.7,187.4z M266.3,196.2c-0.5,0.7-1.4,0.8-2.1,0.4c-0.8-0.6-1.6-1.1-2.5-1.6
		c-2.5-1.6-5-3-7.7-4.3c-0.7-0.4-1.1-1.3-0.7-2s1.3-1.1,2-0.7c2.7,1.3,5.4,2.8,7.9,4.4c0.9,0.6,1.7,1.1,2.6,1.7
		C266.6,194.6,266.8,195.5,266.3,196.2C266.3,196.2,266.3,196.2,266.3,196.2L266.3,196.2z M268.8,200.1c-0.6-0.5-0.7-1.5-0.2-2.1
		c0.5-0.6,1.5-0.7,2.1-0.2c0,0,0,0,0,0c3.1,2.7,5.9,5.7,8.3,9c0.5,0.7,0.3,1.6-0.3,2.1c-0.7,0.5-1.6,0.3-2.1-0.3l0,0
		C274.4,205.5,271.7,202.7,268.8,200.1L268.8,200.1z M283.2,265.5c-1.4,3.8-3.1,7.5-4.9,11.1c-0.4,0.7-1.3,1-2,0.7
		c-0.7-0.4-1-1.3-0.7-2c1.8-3.5,3.4-7.1,4.8-10.8c0.3-0.8,1.2-1.2,1.9-0.9S283.5,264.7,283.2,265.5L283.2,265.5z M280.3,211.5
		c0.7-0.4,1.6-0.1,2,0.6c0,0,0,0,0,0c2,3.6,3.5,7.4,4.6,11.4c0.2,0.8-0.2,1.6-1,1.8s-1.6-0.2-1.8-1c0,0,0,0,0,0
		c-1-3.7-2.4-7.4-4.3-10.7C279.4,212.8,279.6,211.9,280.3,211.5L280.3,211.5z M287.9,247.9c-0.6,4-1.6,8-2.8,11.9
		c-0.2,0.8-1.1,1.2-1.9,1s-1.2-1.1-1-1.9c0,0,0,0,0,0c1.2-3.7,2.1-7.6,2.7-11.4c0.1-0.8,0.9-1.4,1.7-1.3
		C287.5,246.3,288,247.1,287.9,247.9L287.9,247.9z M288.6,241.8c-0.1,0.8-0.7,1.4-1.5,1.4c0,0-0.1,0-0.1,0c-0.8-0.1-1.5-0.8-1.4-1.6
		c0,0,0,0,0,0c0.1-1.3,0.1-2.6,0.1-3.9c0-2.6-0.2-5.2-0.5-7.7c-0.1-0.8,0.5-1.6,1.3-1.7c0.8-0.1,1.6,0.5,1.7,1.3
		c0.4,2.7,0.6,5.4,0.6,8.2C288.7,239.1,288.7,240.5,288.6,241.8L288.6,241.8z M330.9,262.7c-0.7,4-1.7,8-2.8,11.8
		c-0.2,0.8-1.1,1.3-1.9,1s-1.3-1.1-1-1.9c1.1-3.7,2-7.6,2.7-11.5c0.1-0.8,0.9-1.4,1.7-1.2C330.5,261,331,261.8,330.9,262.7
		C330.9,262.6,330.9,262.6,330.9,262.7L330.9,262.7z M331.8,256.7c-0.1,0.8-0.9,1.4-1.7,1.3c-0.8-0.1-1.4-0.9-1.3-1.7c0,0,0,0,0,0
		c0.5-3.9,0.9-7.9,1.1-11.8c0-0.8,0.7-1.5,1.6-1.4c0.8,0,1.5,0.7,1.4,1.6c0,0,0,0,0,0C332.8,248.6,332.4,252.7,331.8,256.7
		L331.8,256.7z M331.6,240.1L331.6,240.1c-0.8,0-1.5-0.7-1.5-1.5c0-4-0.2-8-0.6-11.8c-0.1-0.8,0.5-1.6,1.3-1.6
		c0.8-0.1,1.6,0.5,1.6,1.3c0.4,3.9,0.6,8,0.6,12.1C333.1,239.4,332.4,240.1,331.6,240.1C331.6,240.1,331.6,240.1,331.6,240.1
		L331.6,240.1z M336.4,205.5c0,3.2-2.6,5.9-5.9,5.9h-0.8c0.8,3,1.4,6,1.9,9.1c0.1,0.8-0.4,1.6-1.2,1.7c-0.1,0-0.2,0-0.2,0
		c-0.7,0-1.4-0.5-1.5-1.3c-0.5-3.2-1.2-6.4-2.1-9.6h-18.4c-3.2,0-5.9-2.6-5.9-5.9c0,0,0,0,0,0v-27.6h-24.9c3-4.9,3-11,0-15.9h14.3
		c-3-2.3-6.2-4.3-9.5-6.1c-0.7-0.4-1-1.3-0.6-2c0.4-0.7,1.3-1,2-0.6c0,0,0,0,0,0c3.6,2,7,4.2,10.2,6.6c0.7,0.5,0.8,1.4,0.3,2.1
		c0,0,0,0,0,0h36.3c3.2,0,5.9,2.6,5.9,5.9L336.4,205.5z M263.2,338C263.2,337.9,263.2,337.9,263.2,338l0,0.9
		C263.3,338.6,263.3,338.3,263.2,338z M311.5,176.8c-0.5-0.6-1.5-0.7-2.1-0.2c-0.6,0.5-0.7,1.4-0.2,2.1c2.5,3.1,4.8,6.3,6.9,9.6
		c0.4,0.7,1.4,0.9,2.1,0.4c0.7-0.4,0.9-1.4,0.4-2.1C316.5,183.2,314.1,179.9,311.5,176.8z M228.2,345.4c-0.1-0.6-0.4-1-1-1.2v2.8
		C227.8,346.7,228.2,346.1,228.2,345.4L228.2,345.4z M231.1,345.1c0.1,0.7,0.7,1.2,1.4,1.3v-3c0,0,0,0-0.1,0
		C231.6,343.5,231,344.2,231.1,345.1L231.1,345.1z M298.6,163.7c-0.6-0.5-1.6-0.5-2.1,0.1c-0.5,0.6-0.5,1.6,0.1,2.1l0,0
		c3,2.6,5.8,5.3,8.4,8.3c0.6,0.6,1.5,0.6,2.1,0.1c0.6-0.6,0.6-1.5,0.1-2.1C304.6,169.2,301.7,166.4,298.6,163.7z M190.9,347.1
		c1-0.2,1.7-1.3,1.4-2.3c-0.2-0.9-1.1-1.6-2-1.5c-0.6,0.2-1.2,0.4-1.8,0.5c-3.1-0.3-6.1-0.7-9.1-1.2c-0.8-0.1-1.6,0.4-1.7,1.3
		c-0.1,0.8,0.4,1.6,1.2,1.7c0.6,0.1,1.3,0.2,1.9,0.3c-0.7,0.2-1.4,0.3-2,0.5c-0.8,0.2-1.3,1-1.1,1.8c0.2,0.8,1,1.3,1.8,1.1
		c3.1-0.7,6.2-1.5,9.3-2.4C189.5,347,190.2,347.1,190.9,347.1z M173,344.6c0.1,0,0.2,0,0.3,0c0.8,0,1.5-0.7,1.5-1.5
		c0-0.7-0.5-1.3-1.2-1.5c-3.9-0.8-7.8-1.7-11.6-2.7c-0.8-0.2-1.6,0.3-1.8,1.1c-0.2,0.8,0.3,1.6,1.1,1.8
		C165,342.9,169,343.8,173,344.6L173,344.6z M265.4,297.1c0.5-0.7,0.4-1.6-0.3-2.1c-0.6-0.4-1.4-0.4-1.9,0.1v4.8
		C263.9,298.9,264.7,298,265.4,297.1z M214.7,344.9c-0.8,0-1.5,0.7-1.4,1.6c0,0.8,0.7,1.4,1.5,1.4l0.1,0c0.4,0,0.8,0,1.3-0.1v-3
		C215.6,344.8,215.1,344.8,214.7,344.9L214.7,344.9z M212.2,335c-0.8,0.3-1.1,1.2-0.8,2c0.3,0.8,1.2,1.1,2,0.8c0,0,0,0,0,0
		c0.9-0.4,1.7-0.8,2.6-1.2v-3.4C214.8,333.7,213.5,334.3,212.2,335L212.2,335z M227.2,344.2v-15.8c-0.1-0.3-0.1-0.7,0-1v-41.4H216
		v47.2c2.3-1.1,4.5-2.3,6.7-3.5c0.7-0.4,1.6-0.2,2,0.6s0.2,1.6-0.6,2l0,0c-2.6,1.5-5.4,2.9-8.1,4.3v8.4c3.5-0.1,7-0.4,10.5-0.7
		C226.8,344,227,344.1,227.2,344.2L227.2,344.2z M207,337.3c-3.6,1.5-7.3,2.9-11.1,4.2c-0.8,0.3-1.2,1.1-0.9,1.9s1.1,1.2,1.9,0.9
		c0,0,0,0,0,0c3.8-1.3,7.6-2.8,11.3-4.3c0.8-0.3,1.1-1.2,0.8-2C208.7,337.3,207.8,337,207,337.3C207,337.3,207,337.3,207,337.3
		L207,337.3z M267.7,337.9c0.2,0,0.4,0,0.5-0.1c3.9-1.4,7.6-3,11.2-4.7c0.7-0.4,1.1-1.2,0.7-2c-0.4-0.7-1.2-1.1-2-0.7l0,0
		c-3.5,1.6-7.1,3.2-10.9,4.6c-0.8,0.3-1.2,1.1-0.9,1.9C266.5,337.5,267.1,337.9,267.7,337.9L267.7,337.9z M208.2,344.9
		c-3.7,0-7.4-0.1-11.1-0.3c-0.8,0-1.5,0.6-1.6,1.4c0,0.8,0.6,1.5,1.4,1.6c3.7,0.2,7.5,0.3,11.3,0.3l0.8,0c0.8,0,1.5-0.7,1.5-1.5
		c0-0.8-0.7-1.5-1.5-1.5h0L208.2,344.9z M284.1,330.6c0.2,0,0.5-0.1,0.7-0.2c2.2-1.2,4.3-2.4,6.4-3.7c1.3-0.8,2.7-1.7,4-2.7
		c0.7-0.5,0.8-1.4,0.3-2.1c-0.5-0.7-1.4-0.8-2.1-0.3c-1.2,0.9-2.5,1.8-3.8,2.6c-2,1.2-4.1,2.5-6.2,3.6c-0.7,0.4-1,1.3-0.6,2
		C283,330.3,283.5,330.6,284.1,330.6L284.1,330.6z M300,320.3c3.1-2.6,6-5.5,8.7-8.6c0.5-0.6,0.4-1.6-0.2-2.1
		c-0.6-0.5-1.5-0.5-2.1,0.1c-2.6,3-5.4,5.7-8.3,8.2c-0.6,0.5-0.7,1.5-0.2,2.1C298.4,320.7,299.3,320.8,300,320.3
		C300,320.3,300,320.3,300,320.3L300,320.3z M293,162.6c0.5,0,0.9-0.2,1.2-0.6h-2.4c0.1,0.1,0.2,0.2,0.4,0.3
		C292.4,162.5,292.7,162.6,293,162.6z M227.3,328.6c0.4,0.7,1.4,0.9,2.1,0.5c0,0,0,0,0,0c1-0.6,2.1-1.3,3.1-2v-3.6
		c-1.5,1-3.1,2-4.7,3c-0.3,0.2-0.5,0.4-0.6,0.8v1C227.2,328.4,227.3,328.5,227.3,328.6z M273.2,479c1.2-5.6,3.2-11,5.8-16.2
		c-1.3-1.6-2.6-3-3.7-4.3c1.6,0.8,3.1,1.7,4.6,2.6c4.8-8.8,11.2-16.7,18.9-23.2c-12.9,2.4-27.4,19-31.1,29.9
		c-7.2-21.4,6.9-48.5,14.7-62.8c-7.8,6.7-14.3,14.7-19.2,23.8v-89.9c-0.2,0.4-0.5,0.8-1,0.9c-3.8,1.2-7.7,2.3-11.6,3.2
		c-0.8,0.2-1.6-0.3-1.8-1.1c-0.2-0.8,0.3-1.6,1.1-1.8c3.9-0.9,7.7-2,11.4-3.2c0.8-0.2,1.6,0.2,1.9,0.9v-38.1
		c-1.8,2.2-3.7,4.4-5.7,6.5c-0.6,0.6-1.5,0.6-2.1,0.1c-0.6-0.6-0.6-1.5-0.1-2.1c2.7-2.9,5.3-5.9,7.7-9c0.1-0.1,0.1-0.1,0.2-0.2v-8.3
		l-30.7-0.2v37c1.8-1.2,3.5-2.4,5.1-3.6c0.7-0.5,1.6-0.3,2.1,0.3c0.5,0.7,0.3,1.6-0.3,2.1c-2.2,1.6-4.6,3.3-6.9,4.8v16.3
		c3.9-0.5,7.8-1.2,11.6-1.9c0.8-0.2,1.6,0.4,1.8,1.2c0.2,0.8-0.4,1.6-1.2,1.8c-3.9,0.8-7.9,1.5-11.9,2c-0.1,0-0.1,0-0.2,0
		c0,0-0.1,0-0.1,0v54.3c-1.7-2.3-3.5-4.3-5.3-6.3V347c-0.1,0-0.3,0.1-0.4,0.1c-3.6,0.4-7.2,0.6-10.8,0.7v36
		c-3.3-2.7-6.4-5.2-9.4-7.5c3.3,3.7,6.5,7.5,9.4,11.5V433c-5.6-11.8-14.6-21.7-25.8-28.5c9.4,8.2,16.3,23.6,20,38.2
		c-3.4-1.2-7-2-10.6-2.3c6.2,3.1,9.3,5.8,12.1,9.3c1.5,7.4,2.4,14.9,2.6,22.4c-0.8-1.9-12.2-14.2-30.5-20.5
		c25,21.4,24.7,40.5,24.7,40.5h32.9c0.5,0,2.7-9.1,10-2.9c0.5-3.4-2.6-10.3-7-15.9c4.9,1.2,12.2,12.2,12.6,18.8h15
		c0-3.2,0.3-6.3,0.8-9.5c-3.4-2.8-7.1-5.2-11-7.2C265.6,475.9,269.6,477.1,273.2,479z M232.5,442.3c-2,3.4-3.4,7.1-4.1,10.9
		c0,0-0.4-0.4-1.2-0.9v-45c2.3,5.3,4,10.8,5.3,16.4L232.5,442.3z M244.2,318.6c-0.6,0.5-1.6,0.4-2.1-0.2c-0.5-0.6-0.4-1.6,0.2-2.1
		c3.1-2.5,6.1-5.1,8.9-7.8c0.6-0.6,1.5-0.6,2.1,0c0.6,0.6,0.6,1.5,0,2.1l0,0C250.4,313.4,247.3,316.1,244.2,318.6L244.2,318.6z
		 M328.9,208.6c-0.2-0.8-1.1-1.2-1.9-1c-0.8,0.2-1.2,1.1-1,1.9l0.2,0.7c0.1,0.4,0.2,0.8,0.3,1.2h3.1c-0.2-0.7-0.4-1.4-0.6-2
		L328.9,208.6z M311.3,307.6c0.5,0,0.9-0.2,1.2-0.6c2.4-3.3,4.6-6.7,6.6-10.2c0.4-0.7,0.2-1.6-0.6-2c-0.7-0.4-1.6-0.2-2,0.6
		c0,0,0,0,0,0c-1.9,3.4-4,6.7-6.4,9.9c-0.5,0.7-0.4,1.6,0.3,2.1C310.6,307.5,310.9,307.6,311.3,307.6L311.3,307.6z M332.4,492.7
		c0.2-3.9,1-7.7,2.2-11.5c2.3-1.8,4.9-3.1,10.1-4.7c-3,0.2-5.9,0.6-8.9,1.2c3.1-7.5,8.8-15.3,16.7-19.5c-9.6,3.7-21.2,10-26.1,22.2
		c-2.9,1.2-5.9,2.7-5.9,2.7s-0.7-3.4-5.4-7.5c1.7-10.1,6.2-20,23.6-31.8c-13.7,6.6-33.2,15-39.4,40.2c-3-8.5-9.5-16.6-19.5-22.9
		c-0.3,0.6-0.6,1.1-0.9,1.7c6.3,7.7,13.6,18.7,8.6,27.8c-2-3.6-7.7-8.3-14.4-11.6c-0.2,1.2-0.5,2.3-0.7,3.5c6,5,11.6,11.9,11.6,20.4
		h19.1c1.5,0,3-7.5,8.1-9.5c-2.3,5.4-3.3,9.4-1.8,9.4c0.4-4.1,10-7.1,9,0.1c7,0.9,18.6,0,18.6,0s-0.3-9.8,20.7-20.7
		C342.6,485.5,333.1,491.7,332.4,492.7L332.4,492.7z"/>
	<g>
		<path class="st2" d="M222,27.7c2.1,1.3,8.6,3.4,9.9,1.3s-3.1-7.5-5.1-8.8c-2.1-1.3-4.8-0.7-6.1,1.4
			C219.3,23.6,219.9,26.3,222,27.7z"/>
		<path class="st2" d="M232.8,29.4c3.4,0,6.1-1.5,6.4-6.3c0.4-5.3,0.8-12.4-3.1-12.7c-3.2-0.2-7,4.3-8.4,8.8
			C230.4,21.6,234.1,26.9,232.8,29.4z"/>
		<path class="st2" d="M232.6,29.6c-1.6,2.3-7.8,0.9-11.1-0.7c-3.7,3.1-6.3,8.7-4.8,11.6c1.8,3.4,8.1,0,12.8-2.5
			C233.8,35.8,234,32.7,232.6,29.6z"/>
		<path class="st2" d="M247.2,30.7C247.2,30.7,247.2,30.7,247.2,30.7c-0.2-0.4-0.7-0.6-1.1-0.4c0,0,0,0,0,0l-3.6,1.5
			c0,0-2.4-1.8-3.3-2.4c-0.5-0.4-1.3-0.5-1.9-0.3c-1,0.7-2.1,1.2-3.3,1.3c0.4,1.1,0.4,2.3,0.2,3.5c0,0.7,0.4,1.3,1.1,1.6
			c0.9,0.6,3.6,2,3.6,2l0.1,3.9c0,0.5,0.4,0.8,0.9,0.8c0.5,0,0.8-0.4,0.8-0.9l-0.1-4.3c0-0.4-0.2-0.7-0.5-0.9c0,0-2.9-1.4-3.9-1.9
			l0-0.3c2.1-0.2,2.8-1.2,2.1-3.2l0.3-0.1c0.9,0.7,3.4,2.8,3.4,2.8c0.3,0.2,0.7,0.2,1,0.1l3.9-1.7C247.2,31.6,247.4,31.1,247.2,30.7
			z"/>
		<path class="st2" d="M239.4,28c0.3,0.2,0.7,0.2,1,0.1l3.9-1.7c0.4-0.2,0.6-0.7,0.4-1.1c-0.2-0.4-0.7-0.6-1.1-0.4l-3.6,1.5
			l-0.4-0.3l-0.8,1.5L239.4,28z"/>
		<path class="st2" d="M234.5,36.5c-0.1-0.2-0.2-0.3-0.4-0.4l-0.5-0.3l-1.1,1.3l0.5,0.3l0.1,3.9c0,0.5,0.4,0.8,0.9,0.8
			c0.5,0,0.8-0.4,0.8-0.9l-0.1-4.3C234.7,36.9,234.6,36.7,234.5,36.5z"/>
		<path class="st2" d="M217.2,29.5c0.1,0.2,0.3,0.4,0.5,0.4l1.9-0.5c0.2-0.1,0.3-0.4,0.2-0.9c-0.1-0.4-0.4-0.7-0.6-0.7l-1.2,0.3
			c0,0,0,0,0,0l-2.4-1.7c-0.3-0.2-0.6-0.2-1-0.1l-4.5,1.2c-0.4,0.2-0.6,0.7-0.4,1.1c0.2,0.4,0.7,0.6,1.1,0.4l4.1-1l2.1,1.5
			C217.1,29.5,217.2,29.5,217.2,29.5z"/>
		<path class="st2" d="M222.5,14.8c0.1,0.2,0.2,0.3,0.3,0.4l2.5,1.5c0,0,0,0,0.1,0l0.2,1.2c0,0.2,0.4,0.3,0.8,0.2
			c0.4-0.1,0.8-0.3,0.7-0.5l-0.3-1.9c0-0.2-0.2-0.3-0.5-0.3c0-0.1-0.1-0.1-0.2-0.1L224,14l-0.8-4.2c0-0.4-0.3-0.8-0.8-0.8
			s-0.8,0.3-0.8,0.8c0,0,0,0,0,0l0.8,4.5C222.4,14.5,222.4,14.6,222.5,14.8z"/>
	</g>
</g>
</svg>
