<svg id="f6e87752-807c-4b16-bdda-bde41af2792f" data-name="Layer 2" xmlns="http://www.w3.org/2000/svg" viewBox="0 0 489.0444 496.5865"><path d="M392.4707,153.4437c-2.017,0-3.6522,2.08-3.6522,4.6457v33.0231h-32.003V158.0894c0-2.5658-1.6352-4.6457-3.6523-4.6457s-3.0931,1.4587-3.6523,3.148v116.43H396.123V158.0894C396.123,155.5236,394.4878,153.4437,392.4707,153.4437Zm-3.6522,44.105v23.5638h-32.003V197.5487Zm-32.003,75.4726V257.5487h32.003v15.4726Zm0-21.9088V227.5487h32.003v23.5638Z" transform="translate(-11.4778 -4.5671)" style="fill:#d1d6dd"/><polygon points="149.646 371.284 145.479 371.284 145.479 339.021 134.263 339.021 134.263 349.473 127.834 349.473 127.834 327.206 119.691 327.206 119.691 323.116 109.832 323.116 109.832 327.615 108.832 327.615 108.832 322.116 120.691 322.116 120.691 326.206 128.834 326.206 128.834 348.473 133.263 348.473 133.263 338.021 146.479 338.021 146.479 370.284 148.646 370.284 148.646 316.663 156.337 316.663 156.337 312.119 171.814 312.119 171.814 316.663 178.958 316.663 178.958 313.028 197.602 313.028 197.602 336.657 202.936 336.657 202.936 332.113 208.413 332.113 208.413 333.113 203.936 333.113 203.936 337.657 196.602 337.657 196.602 314.028 179.958 314.028 179.958 317.663 170.814 317.663 170.814 313.119 157.337 313.119 157.337 317.663 149.646 317.663 149.646 371.284" style="fill:#d1d6dd"/><polygon points="85.402 390.378 77.163 390.378 77.163 380.087 73.544 376.452 73.544 366.749 52.827 366.749 52.827 378.973 51.827 378.973 51.827 365.749 74.544 365.749 74.544 376.04 78.163 379.675 78.163 389.378 84.402 389.378 84.402 364.84 93.045 364.84 93.045 365.84 85.402 365.84 85.402 390.378" style="fill:#d1d6dd"/><rect x="38.6067" y="382.1074" width="7.8389" height="1" style="fill:#d1d6dd"/><polygon points="451.661 404.334 450.661 404.318 450.855 392.227 443.173 392.681 443.173 376.452 435.529 368.775 427.207 377.134 427.207 390.833 421.004 390.833 421.004 372.656 411.598 372.656 411.598 381.698 410.598 381.698 410.598 371.656 422.004 371.656 422.004 389.833 426.207 389.833 426.207 376.722 435.529 367.357 444.173 376.04 444.173 391.62 451.873 391.164 451.661 404.334" style="fill:#d1d6dd"/><polygon points="394.811 368.566 380.738 368.566 380.738 358.115 367.166 358.115 367.166 351.913 358.635 343.347 349.324 343.347 338.725 353.991 338.016 353.286 348.908 342.347 359.052 342.347 368.166 351.501 368.166 357.115 381.738 357.115 381.738 367.566 394.811 367.566 394.811 368.566" style="fill:#d1d6dd"/><polygon points="249.477 429.011 221.804 429.011 222.39 353.116 217.962 353.116 217.962 359.023 208.264 359.023 208.264 358.023 216.962 358.023 216.962 352.116 223.39 352.116 223.39 357.16 222.812 428.011 248.485 428.011 249.088 351.662 266.275 351.662 266.275 333.939 281.753 333.939 281.753 339.393 305.683 339.393 305.683 340.393 280.753 340.393 280.753 334.939 267.275 334.939 267.275 352.662 250.08 352.662 249.477 429.011" style="fill:#d1d6dd"/><polygon points="48.754 448.004 48.754 415.325 80.563 411.841 80.563 448.004 85.561 448.004 85.561 403.511 109.191 403.511 109.191 448.004 113.432 448.004 113.432 433.199 115.552 430.927 115.552 373.917 121.725 373.917 121.744 357.918 133.275 357.918 151.905 379.73 151.905 431.684 155.995 431.684 155.995 352.389 168.946 339.438 182.578 353.071 182.578 448.004 185.532 448.004 185.532 378.063 208.253 378.063 208.253 371.247 223.248 371.247 223.248 379.427 228.784 379.427 228.784 435.391 241.173 435.391 241.173 334.44 264.146 334.44 264.146 391.711 268.235 391.711 268.235 386.258 274.597 386.258 274.597 393.528 280.504 393.528 280.504 398.981 286.412 398.981 286.412 406.706 292.774 406.706 292.774 348.981 310.95 348.981 310.95 353.525 314.131 353.525 314.131 348.981 330.49 348.981 330.49 352.162 336.397 352.162 336.397 406.237 340.487 406.237 340.487 368.975 354.574 377.045 354.574 392.495 364.571 392.495 364.571 366.593 372.296 366.593 372.296 361.595 385.928 361.595 385.928 369.32 397.743 369.32 397.743 376.59 404.105 376.59 404.105 429.317 411.83 421.248 411.83 410.342 418.192 403.98 418.192 388.984 433.642 388.984 433.642 406.706 437.277 406.706 437.277 416.249 445.911 416.249 445.911 436.243 449.546 436.243 449.546 448.004 227.376 448.004 48.754 448.004" style="fill:#d1d6dd"/><path d="M500.5,4.5671H11.5v227h489ZM487.1016,218.04H25.0862V18H487.1016Z" transform="translate(-11.4778 -4.5671)" style="fill:#232326"/><path d="M417.8255,271.5671v-7.1714h55.1492v-2.8286H39.0253v2.8286H94.1745v7.1714H11.4778v5.6572H94.1745v2.5267h23.651v-2.5267h50.5584v2.9021h-2.3464v3.7541H174.86v-3.7541h-2.3463v-2.9021h52.9048v2.9021h-2.3464v3.7541h8.8222v-3.7541h-2.3463v-2.9021h8.1657V450.0366h5.974V277.2243h5.026V450.0366h25.5733V277.2243h8.1657v2.9021H280.106v3.7541h8.8222v-3.7541h-2.3463v-2.9021h52.9047v2.9021H337.14v3.7541h8.8222v-3.7541h-2.3464v-2.9021h50.5584v2.5267h23.651v-2.5267h82.6967v-5.6572Zm-249.4416,0H117.8255v-7.1714h50.5584Zm57.0343,0H172.5134v-7.1714h52.9048Zm12.2952,0h-8.1657v-7.1714h4.0683v5.2191h4.0974Zm10,0h-6.026v-1.9523h6.026Zm34.739,0h-8.1657v-1.9523h4.0973v-5.2191h4.0684Zm57.0342,0H286.5819v-7.1714h52.9047Zm54.6879,0H343.6161v-7.1714h50.5584Z" transform="translate(-11.4778 -4.5671)" style="fill:#232326"/><rect x="27.5475" y="243.5" width="433.9493" height="2.8286" style="fill:#232326"/><rect x="27.5475" y="236.75" width="433.9493" height="2.8286" style="fill:#232326"/><rect x="27.5475" y="230" width="433.9493" height="2.8286" style="fill:#232326"/><rect x="27.5475" y="250.25" width="433.9493" height="2.8286" style="fill:#232326"/><path d="M25.15,217.8078V17.79H394.739s.2829,20.1938.2829,30.6224-1.4147,21.421-.2829,31.0041c.5659,16.3476,5.2241,25.9307-4.1173,25.9307-11.6715,0-37.7376,4.9325-48.4895,4.9325s-46.332,5.0029-46.9894-.1409c2.4965-16.1363-9.57-80.963-5.093-93.5761,0,28.82-1.6976,201.2448-1.6976,201.2448" transform="translate(-11.4778 -4.5671)" style="fill:#ff1d8e"/><path d="M390.65,105.2543c-5.2088-.4927-10.8752-7.3909-10.8752-7.3909s-4.4393,6.9035-21.3985,9.2915c-4.761.67-9.2915,2.0413-15.9786,3.0267C349.7182,110.604,379.5987,105.4655,390.65,105.2543Z" transform="translate(-11.4778 -4.5671)" style="fill:#d1d6dd"/><path d="M279.1283,445.4024c-7.2-21.4,6.9-48.5,14.7-62.8a83.5145,83.5145,0,0,0-19.2,23.8l-25.7-35.8035-5.3-4.9642-2.0526-1.6036s-10.5475-7.8288-13.5475-10.1287a147.2723,147.2723,0,0,1,9.4,11.5v45.2a67.0293,67.0293,0,0,0-25.8-28.5c9.4,8.2,16.3,23.6,20,38.2a42.7106,42.7106,0,0,0-10.6-2.3c6.2,3.1,9.3,5.8,12.1,9.3a130.345,130.345,0,0,1,2.6,22.4c-.8-1.9-12.2-14.2-30.5-20.5,25,21.4,24.7,40.5,24.7,40.5h27.9c.5,0-2.3-9.1,5-2.9.5-3.4,2.4-10.3-2-15.9,4.9,1.2,7.2,12.2,7.6,18.8h15a12.76,12.76,0,0,1-.51-4.6147c-3.4-2.8-6.2362-2.9977-10.1362-4.9977,3.8.5,7.052.5183,10.652,2.4184,1.2-5.6,2.3-10.7244,3.074-12.8361-1.3-1.6-2.9519-2.5776-4.0519-3.8776,1.6.8,3.1,1.7,4.6,2.6,4.8-8.8,15.4722-26.3923,23.1722-32.8923C297.3283,417.9024,282.8283,434.5023,279.1283,445.4024Zm-30.2-25.5a33.5513,33.5513,0,0,0-4.1,10.9,7.3313,7.3313,0,0,0-1.2-.9v-55a95.0537,95.0537,0,0,1,5.3,16.4Z" transform="translate(-11.4778 -4.5671)" style="fill:#1d1d1b"/><path d="M328.0462,473.0906a33.7787,33.7787,0,0,1,1.6213-8.4751c1.695-1.3266,3.6111-2.2846,7.4433-3.4638a50.0263,50.0263,0,0,0-6.5589.8844c2.2845-5.5272,6.4852-11.2755,12.3073-14.3708-7.0749,2.7268-15.6237,7.37-19.2348,16.3606-2.1372.8844-4.3481,1.99-4.3481,1.99s-.5159-2.5057-3.98-5.5272c1.2529-7.4433,4.5692-14.7393,17.3924-23.4354-10.0964,4.8639-24.4672,11.0544-29.0364,29.6259-2.2109-6.2642-9.227-13.6416-16.5966-18.2844-.2211.4421-.327.8354-.5481,1.2776,4.6429,5.6747,12.1334,15.1644,8.4485,21.8708-1.4739-2.6531-6.5848-6.6028-11.5225-9.0347-.1474.8843-.3684,1.695-.5158,2.5793,4.4217,3.6848,9.459,9.2558,9.459,15.52h14.076c1.1054,0,2.2109-5.5272,5.9694-7.0011-1.695,3.98-2.432,6.9274-1.3265,6.9274.2947-3.0215,7.37-5.2324,6.6326.0737,5.1588.6633,13.7076,0,13.7076,0s-.2211-7.2222,15.2551-15.2551c-11.1282,2.4319-18.1294,7.0011-18.6452,7.7381Z" transform="translate(-11.4778 -4.5671)" style="fill:#1d1d1b"/><path d="M392.9787,152.4094c-1.9776.1724-3.2124,2.3893-2.7518,4.9874l4.1325,23.3127c-11.5456.5307-22.5692.5242-34.1161,0-.8782-9.3251-1.3174-13.9876-2.1957-23.3127-.2447-2.5981-2.0812-4.815-4.1056-4.9874s-3.51,1.7615-3.3154,4.3553q12.7374,169.5013,25.4748,339.0027c.1949,2.5937,3.4961,5.0192,7.3669,5.3488s6.8048-1.5646,6.56-4.1626L387.56,470.75a529.5969,529.5969,0,0,0,58.214,0c1.8581,10.4816,2.7871,15.7224,4.6451,26.2039.4606,2.5981,3.9089,4.4924,7.69,4.1627s6.4241-2.7551,5.915-5.3488q-33.2741-169.5013-66.5483-339.0027C396.9671,154.171,394.9563,152.237,392.9787,152.4094Zm2.536,34.8173c1.6919,9.5441,2.5379,14.3162,4.23,23.86a261.9534,261.9534,0,0,1-36.64,0c-.8989-9.5441-1.3484-14.3161-2.2473-23.86C372.5872,187.7593,383.7859,187.7659,395.5147,187.2267Zm-14.29,216.2509c-.8989-9.5441-1.3483-14.3162-2.2472-23.86a360.5617,360.5617,0,0,0,50.6423,0c1.6919,9.5441,2.5378,14.3162,4.23,23.86A478.7631,478.7631,0,0,1,381.2244,403.4776Zm53.78,6.5172,4.23,23.86a501.7109,501.7109,0,0,1-55.1487,0c-.8989-9.5441-1.3483-14.3161-2.2472-23.86A483.6766,483.6766,0,0,0,435.0045,409.9948ZM378.3634,373.1c-.8989-9.5441-1.3484-14.3161-2.2473-23.86a342.6072,342.6072,0,0,0,48.1185,0c1.6918,9.5441,2.5378,14.3161,4.23,23.86A356.7089,356.7089,0,0,1,378.3634,373.1Zm-2.8611-30.3774c-.8989-9.5441-1.3483-14.3162-2.2472-23.86a442.2845,442.2845,0,0,0,45.5945,0c1.6918,9.5441,2.5378,14.3161,4.23,23.86A338.7392,338.7392,0,0,1,375.5023,342.7227Zm-2.861-30.3775c-.8989-9.5441-1.3484-14.3161-2.2473-23.86a417.8056,417.8056,0,0,0,43.0706,0c1.6919,9.5441,2.5378,14.3162,4.23,23.86A437.0543,437.0543,0,0,1,372.6413,312.3452ZM369.78,281.9677q-1.6005-16.9929-3.2009-33.986a283.8991,283.8991,0,0,0,39.7054,0l6.0246,33.986A412.5473,412.5473,0,0,1,369.78,281.9677Zm-3.8147-40.5032c-.8989-9.5441-1.3484-14.3162-2.2473-23.86a265.8367,265.8367,0,0,0,37.1815,0l4.23,23.86A280.0158,280.0158,0,0,1,365.9655,241.4645Zm20.9811,222.768c-.8989-9.5441-1.3484-14.3161-2.2473-23.86a506.6757,506.6757,0,0,0,55.69,0c1.6918,9.5441,2.5377,14.3161,4.23,23.86A524.7064,524.7064,0,0,1,386.9466,464.2325Z" transform="translate(-11.4778 -4.5671)" style="fill:#232326"/></svg>