<?xml version="1.0" encoding="utf-8"?>
<svg version="1.1" id="Layer_1" xmlns="http://www.w3.org/2000/svg" xmlns:xlink="http://www.w3.org/1999/xlink" x="0px" y="0px"
	 viewBox="0 0 512 512" style="enable-background:new 0 0 512 512;" xml:space="preserve">
<path class="off" d="M496.7,226.3c5.5-22.3,2.8-49.9-9.6-69.4c4.3-23.8-3.1-49.4-18.2-67.1C470.7,35.9,437.8,0,378.5,0
	c-3.4,0-35.5,0-41,0C260.6,0,195.9,40,160,40h-10.8c-5.6-5-13-8-21.2-8H32C14.3,32,0,46.3,0,64v256c0,17.7,14.3,32,32,32h96
	c17.7,0,32-14.3,32-32v-12.5c0.9,0.3,1.7,0.5,2.4,0.9c21.6,11.6,57.6,68.9,81.2,92.4c9.9,9.9,13.1,26.4,16.5,44
	c5.7,29.3,16.8,67.2,46.8,67.2c59.6,0,82.9-34.7,82.9-93.1c0-30.9-12-52.4-20.7-69.8h70.1c40.7,0,72.7-34.9,72.7-72.6
	C512,256,506.6,239.2,496.7,226.3L496.7,226.3z M128,320H32V64h96V320z M439.3,317.1h-112c0,40.7,30.5,59.6,30.5,101.8
	c0,25.6,0,61.1-50.9,61.1c-20.4-20.4-10.2-71.3-40.7-101.8c-28.6-28.6-71.3-101.8-101.8-101.8H160V72.7h4.4
	c34.7,0,101.8-40.7,173.1-40.7c3.5,0,37.4,0,40.7,0c38.3,0.4,65.5,18.4,57.2,71c16.4,8.8,28.5,39.2,15,62c21.6,11,21.6,59,5.6,70.7
	c16,4.4,24.1,20.4,24,40.7C479.9,296.7,462,317.1,439.3,317.1z M104,272c0,13.3-10.7,24-24,24s-24-10.7-24-24s10.7-24,24-24
	S104,258.7,104,272z"/>
<path class="on" d="M0,49.9v240c0,13.3,10.7,24,24,24h80c13.3,0,24-10.7,24-24v-240c0-13.3-10.7-24-24-24H24C10.7,25.9,0,36.6,0,49.9z
	 M40,249.9c0-13.3,10.7-24,24-24s24,10.7,24,24s-10.7,24-24,24S40,263.1,40,249.9z M312,505.9c-20.2,0-29.5-39.3-33.9-57.8
	c-5.2-21.7-10.6-44.1-25.4-58.9c-32.5-32.5-49.5-74-89.1-113.1c-2.3-2.3-3.6-5.3-3.6-8.5V53.8c0-6.5,5.2-11.9,11.8-12
	c15.8-0.3,36.7-9.1,52.7-16.2c31.8-14.1,71.3-31.7,119.6-31.7h2.8c42.8,0,93.4,0.4,113.8,29.7c8.4,12.1,10.4,27,6.1,44.6
	c16.3,17.1,25.1,48.9,16.4,74.8c17.5,23.4,19.1,56.1,9.3,79.5l0.1,0.1c11.9,11.9,19.5,31.3,19.4,49.2c-0.2,30.4-26.2,58.1-59.6,58.1
	H350.7C358,358.2,384,382,384,424.4C384,497.9,336,505.9,312,505.9z"/>
</svg>
