<?xml version="1.0" encoding="utf-8"?>
<svg version="1.1" id="Layer_1" xmlns="http://www.w3.org/2000/svg" xmlns:xlink="http://www.w3.org/1999/xlink" x="0px" y="0px"
	 viewBox="0 0 496 512" style="enable-background:new 0 0 496 512;" xml:space="preserve">
<path class="off" d="M168,205.4c12.3,0,23.8,7.9,31.5,21.6l9.5,17c2.1,3.7,6.2,4.7,9.3,3.7c3.6-1.1,6-4.5,5.7-8.3
	c-3.3-42.1-32.2-71.4-56-71.4s-52.7,29.3-56,71.4c-0.3,3.7,2.1,7.2,5.7,8.3c3.4,1.1,7.4-0.5,9.3-3.7l9.5-17
	C144.2,213.2,155.7,205.4,168,205.4z M248,8C111,8,0,119,0,256s111,248,248,248s248-111,248-248S385,8,248,8z M248,472
	c-119.1,0-216-96.9-216-216S128.9,40,248,40s216,96.9,216,216S367.1,472,248,472z M328,168c-23.8,0-52.7,29.3-56,71.4
	c-0.3,3.7,2.1,7.2,5.7,8.3c3.4,1.1,7.4-0.5,9.3-3.7l9.5-17c7.7-13.7,19.2-21.6,31.5-21.6s23.8,7.9,31.5,21.6l9.5,17
	c2.1,3.7,6.2,4.7,9.3,3.7c3.6-1.1,6-4.5,5.7-8.3C380.7,197.3,351.8,168,328,168z M338.2,325.8C315.8,352.6,282.9,368,248,368
	s-67.8-15.4-90.2-42.2c-5.7-6.8-15.8-7.7-22.5-2c-6.8,5.7-7.7,15.7-2,22.5C161.7,380.4,203.6,400,248,400s86.3-19.6,114.8-53.8
	c5.7-6.8,4.8-16.9-2-22.5C353.9,318.1,343.9,319,338.2,325.8L338.2,325.8z"/>
<path class="on" d="M248 8C111 8 0 119 0 256s111 248 248 248 248-111 248-248S385 8 248 8zM112 223.4c3.3-42.1 32.2-71.4 56-71.4s52.7 29.3 56 71.4c.7 8.6-10.8 11.9-14.9 4.5l-9.5-17c-7.7-13.7-19.2-21.6-31.5-21.6s-23.8 7.9-31.5 21.6l-9.5 17c-4.3 7.4-15.8 4-15.1-4.5zm250.8 122.8C334.3 380.4 292.5 400 248 400s-86.3-19.6-114.8-53.8c-13.5-16.3 11-36.7 24.6-20.5 22.4 26.9 55.2 42.2 90.2 42.2s67.8-15.4 90.2-42.2c13.6-16.2 38.1 4.3 24.6 20.5zm6.2-118.3l-9.5-17c-7.7-13.7-19.2-21.6-31.5-21.6s-23.8 7.9-31.5 21.6l-9.5 17c-4.1 7.3-15.6 4-14.9-4.5 3.3-42.1 32.2-71.4 56-71.4s52.7 29.3 56 71.4c.6 8.6-11 11.9-15.1 4.5z"/>
</svg>
