<?xml version="1.0" encoding="utf-8"?>
<!-- Generator: Adobe Illustrator 24.2.3, SVG Export Plug-In . SVG Version: 6.00 Build 0)  -->
<svg version="1.1" id="Layer_1" xmlns="http://www.w3.org/2000/svg" xmlns:xlink="http://www.w3.org/1999/xlink" x="0px" y="0px"
	 viewBox="0 0 211.2 176.6" style="enable-background:new 0 0 211.2 176.6;" xml:space="preserve">
<style type="text/css">
	.st0{fill:#37373C;}
	.st1{fill:#FFFFFF;}
	.st2{fill:#FF1E8C;}
</style>
<path class="st0" d="M167.3,176.6H6.4c-4.3,0-7.1-3.5-6.2-7.8L34.4,7.8C35.3,3.5,39.6,0,43.9,0h160.9c4.3,0,7.1,3.5,6.2,7.8
	l-34.2,160.9C175.9,173.1,171.6,176.6,167.3,176.6z"/>
<path class="st1" d="M135.8,65c-5.1-6.1-13.5-9.3-22.8-9.3c-9.7,0-19.2,3.3-26.8,9.3c-7.5,5.9-12.8,14.2-15,23.6
	c-1.8,8.3-0.5,17.1,4.8,23.5c5.1,6.1,13.5,9.3,22.8,9.3c9.7,0,19.2-3.3,26.8-9.3c1.6-1.3,3.1-2.7,4.5-4.2c2.1-9.7,6.4-29.2,8.5-38.4
	C137.9,67.9,136.9,66.4,135.8,65z M123.6,88.6c-1.2,4.8-3.9,9-7.7,12.1c-3.8,3.2-8.7,4.9-13.7,4.9c-5.5,0-9.3-2.1-11.7-5
	c-1.9-2.3-3.7-6.1-2.5-11.7c1.1-4.9,3.8-9.2,7.7-12.4c3.9-3.2,8.8-4.9,13.8-5c4.4-0.1,8.6,1.7,11.6,5
	C123.8,79.9,124.7,84.4,123.6,88.6z"/>
<path class="st2" d="M98,80.3h16.7l-3.5,16.5H94.5L98,80.3z">
<animateMotion  accumulate="none" additive="replace" calcMode="paced" dur="1s" fill="remove" path="M-27.2555-40.9127C.5252-59.4734,35.261-56.2369,50.329-33.6839s4.7622,55.8823-23.0185,74.443S-35.206,56.0833-50.274,33.53-55.0362-22.3521-27.2555-40.9127Z" repeatCount="indefinite" restart="always">
		</animateMotion>
</path>
</svg>
