<svg data-name="Layer 1" xmlns="http://www.w3.org/2000/svg" viewBox="-15 -10 140 125">
<path d="M31.2327-23.6068c-5.0914-6.13-13.454-9.3363-22.79-9.3363a43.7285,43.7285,0,0,0-26.8154,9.3363A41.8581,41.8581,0,0,0-33.3571-.03c-1.789,8.2993-.4729,17.07,4.8406,23.4826,5.0916,6.13,13.454,9.3366,22.7905,9.3366a43.7247,43.7247,0,0,0,26.8154-9.3366,43.2891,43.2891,0,0,0,4.5444-4.1692c2.1014-9.6781,6.3879-29.1621,8.5312-38.4063A22.2252,22.2252,0,0,0,31.2327-23.6068ZM19.078-.03a22.3643,22.3643,0,0,1-7.6946,12.0714A21.1626,21.1626,0,0,1-2.3109,16.9459c-5.47,0-9.2666-2.0748-11.6543-4.9985-1.87-2.2633-3.6769-6.13-2.4777-11.6943A22.1005,22.1005,0,0,1-8.7817-12.1011,22.1893,22.1893,0,0,1,5.0271-17.0993a15.1731,15.1731,0,0,1,11.56,4.9982A14.2253,14.2253,0,0,1,19.078-.03Z" transform="translate(57.2076 52.9651)" style="fill:#fff"/>
<path d="M-6.5582-8.3076H10.16L6.6132,8.154H-10.1054Z" transform="translate(57.2076 52.9651)" style="fill:#ff1e8c">
<animateMotion dur="1s" repeatCount="indefinite" path="M-27.2555-40.9127C.5252-59.4734,35.261-56.2369,50.329-33.6839s4.7622,55.8823-23.0185,74.443S-35.206,56.0833-50.274,33.53-55.0362-22.3521-27.2555-40.9127Z" />
</path>
</svg>