<?xml version="1.0" standalone="no"?>
<!DOCTYPE svg PUBLIC "-//W3C//DTD SVG 20010904//EN"
 "http://www.w3.org/TR/2001/REC-SVG-20010904/DTD/svg10.dtd">
<svg version="1.0" xmlns="http://www.w3.org/2000/svg"
 width="832.000000pt" height="832.000000pt" viewBox="0 0 832.000000 832.000000"
 preserveAspectRatio="xMidYMid meet">
<metadata>
Created by potrace 1.11, written by Peter Selinger 2001-2013
</metadata>
<g transform="translate(0.000000,832.000000) scale(0.100000,-0.100000)"
fill="#000000" stroke="none">
<path d="M2726 7773 c-3 -16 -10 -48 -16 -73 -5 -25 -12 -56 -15 -70 -4 -14
-8 -34 -9 -45 -2 -11 -4 -20 -5 -20 -1 0 -4 -11 -6 -25 -2 -14 -11 -56 -20
-95 -8 -38 -18 -81 -21 -95 -2 -14 -25 -119 -50 -235 -25 -115 -47 -217 -49
-225 -2 -8 -6 -26 -9 -40 -3 -14 -8 -36 -10 -50 -2 -14 -10 -47 -16 -75 -6
-27 -13 -57 -15 -65 -2 -8 -8 -35 -14 -60 -10 -44 -20 -95 -27 -135 -1 -11 -9
-42 -16 -70 l-13 -50 -732 0 c-402 0 -734 -3 -737 -6 -6 -6 -45 -165 -51 -209
-2 -14 -4 -25 -5 -25 -1 0 -3 -9 -5 -20 -4 -19 -17 -84 -20 -95 0 -3 -4 -21
-8 -40 -4 -19 -9 -44 -12 -55 -2 -11 -11 -54 -20 -95 -9 -41 -19 -84 -21 -95
-3 -11 -7 -31 -10 -45 -5 -27 -23 -113 -49 -225 -9 -38 -18 -81 -20 -95 -2
-14 -11 -59 -20 -100 -10 -41 -19 -84 -21 -95 -5 -35 -13 -65 -18 -73 -2 -4
-7 -26 -10 -48 -4 -23 -11 -56 -16 -75 -6 -19 -10 -40 -10 -47 0 -10 148 -12
744 -10 515 2 742 0 736 -7 -5 -6 -12 -26 -15 -45 -3 -18 -8 -36 -10 -40 -2
-4 -7 -22 -10 -41 -3 -19 -12 -66 -21 -105 -8 -39 -16 -77 -17 -85 -2 -8 -6
-20 -10 -26 -5 -7 -6 -13 -4 -13 4 0 -10 -72 -27 -141 -3 -9 -7 -33 -10 -54
-4 -20 -8 -41 -11 -45 -3 -4 -7 -25 -10 -46 -4 -22 -8 -47 -11 -56 -3 -9 -7
-25 -9 -35 -12 -59 -38 -180 -40 -193 -2 -8 -4 -15 -5 -15 -1 0 -3 -9 -5 -20
-3 -24 -6 -38 -38 -185 -14 -63 -33 -151 -43 -195 -9 -44 -20 -87 -24 -95 -7
-12 -109 -14 -742 -15 l-733 0 -17 -70 c-10 -38 -20 -86 -23 -105 -3 -19 -8
-44 -12 -55 -4 -11 -7 -24 -8 -30 -1 -5 -4 -26 -9 -45 -4 -19 -8 -46 -10 -60
-2 -14 -6 -32 -9 -40 -3 -8 -11 -44 -18 -80 -7 -36 -14 -68 -15 -72 -1 -5 -2
-9 -4 -10 -2 -3 -5 -18 -13 -63 -3 -16 -17 -82 -32 -145 -14 -63 -27 -124 -29
-135 -4 -26 -34 -164 -51 -240 -8 -33 -17 -75 -20 -93 -3 -19 -14 -70 -25
-115 -10 -45 -16 -85 -14 -89 3 -5 45 -7 93 -6 48 0 92 -1 97 -4 5 -3 18 -2
29 2 11 4 32 4 47 -1 15 -4 30 -4 33 1 3 4 20 4 39 0 19 -4 40 -4 47 1 7 4 17
5 21 3 5 -3 245 -6 533 -7 460 -2 525 -4 525 -17 0 -8 -5 -35 -11 -60 -6 -25
-13 -54 -15 -65 -1 -11 -5 -31 -8 -45 -3 -14 -8 -36 -11 -50 -3 -14 -8 -36
-11 -50 -3 -14 -10 -45 -16 -70 -5 -25 -11 -49 -12 -55 -3 -11 -16 -78 -22
-108 -2 -10 -5 -26 -8 -35 -3 -9 -8 -29 -11 -44 -9 -50 -16 -82 -46 -223 -17
-77 -33 -151 -35 -165 -3 -14 -18 -83 -34 -155 -16 -71 -32 -146 -35 -165 -4
-19 -8 -39 -9 -45 -2 -5 -6 -23 -10 -40 -4 -16 -10 -38 -13 -47 -4 -17 36 -18
735 -18 l739 0 17 78 c22 103 26 123 32 152 3 14 10 45 16 70 6 25 12 54 13
65 2 11 10 50 19 86 15 66 19 85 31 144 3 16 13 61 22 100 8 38 17 79 19 90 2
11 10 48 18 83 7 34 12 62 9 62 -2 0 1 8 6 17 5 10 12 36 15 58 4 22 8 47 11
55 2 8 6 26 9 40 3 14 8 36 11 50 3 14 8 36 10 50 5 32 9 50 30 135 15 61 21
88 24 117 1 3 334 6 741 6 680 0 740 -2 736 -17 -2 -9 -8 -32 -12 -51 -4 -19
-9 -39 -10 -45 -1 -5 -23 -107 -49 -225 -40 -186 -62 -284 -80 -365 -3 -10 -7
-37 -10 -58 -4 -22 -10 -49 -15 -61 -4 -13 -11 -39 -14 -59 -3 -20 -19 -96
-35 -169 -17 -73 -32 -147 -35 -165 -6 -34 -44 -197 -52 -225 -5 -17 35 -18
734 -18 l740 0 7 28 c4 15 8 39 10 54 2 15 8 44 14 65 8 31 72 324 87 398 4
22 5 26 29 135 9 41 18 84 21 95 2 11 11 56 20 100 9 44 18 87 21 95 3 8 7 22
8 30 1 8 12 60 24 115 23 102 26 113 38 175 4 19 8 37 8 40 2 7 19 84 20 90 5
27 18 49 26 44 18 -10 1440 -7 1451 4 5 5 11 20 13 33 3 26 49 240 63 299 10
39 12 47 13 58 9 59 22 118 27 127 4 6 7 19 8 30 1 11 16 85 34 165 18 80 34
154 36 165 2 11 5 27 7 35 4 18 28 129 32 150 2 8 4 15 5 15 1 0 3 9 5 20 5
37 16 88 19 94 2 3 7 22 10 41 3 19 15 73 25 120 10 47 18 87 16 90 -2 3 -326
4 -722 4 -395 -1 -726 0 -735 3 -13 3 -15 9 -9 26 10 26 29 107 37 162 3 22 9
45 12 50 4 6 7 15 7 20 3 42 19 116 26 121 5 3 7 9 5 13 -3 4 -1 24 5 44 5 21
12 49 14 65 3 15 11 57 19 93 8 36 17 77 20 90 2 13 10 47 16 74 6 28 14 59
16 70 2 11 6 31 9 45 4 14 8 36 11 50 2 14 7 36 10 50 3 14 8 36 10 50 3 14 9
41 14 60 5 19 12 47 15 63 11 55 20 100 52 247 3 14 6 31 6 37 0 7 7 15 16 17
9 2 339 3 734 2 396 0 722 1 726 4 6 4 17 47 37 143 1 4 3 10 4 15 1 4 3 12 4
17 1 6 5 24 9 40 3 17 9 45 12 64 3 19 8 38 11 43 3 4 6 23 8 41 2 18 6 42 9
53 4 10 9 30 11 44 3 14 10 45 16 70 14 61 101 460 106 485 2 11 6 31 9 45 4
14 8 36 11 50 3 14 12 54 20 90 8 36 17 76 19 90 3 14 11 54 19 90 8 36 13 67
11 69 -3 2 -333 4 -735 4 l-730 0 0 21 c0 11 4 37 10 56 5 19 12 47 15 63 3
15 7 39 10 55 3 15 10 43 15 62 5 19 12 51 15 70 3 19 11 55 16 80 17 70 21
94 23 110 1 9 6 21 10 28 4 7 5 16 2 19 -3 3 -1 13 4 22 9 18 23 90 24 129 1
12 4 22 9 22 4 0 7 9 7 19 0 10 14 79 30 152 17 74 32 148 35 164 2 17 5 30 6
30 1 0 3 9 5 20 2 11 11 52 19 90 21 95 24 111 29 138 2 12 6 29 9 37 3 8 8
27 11 43 l6 27 -739 0 -739 0 -8 -37 c-4 -21 -8 -40 -9 -43 0 -3 -4 -21 -8
-40 -4 -19 -9 -45 -12 -57 -8 -38 -23 -108 -29 -138 -5 -23 -35 -161 -42 -190
-3 -11 -9 -40 -14 -65 -5 -25 -11 -54 -14 -65 -2 -11 -16 -74 -31 -140 -14
-66 -27 -127 -29 -135 -7 -28 -20 -105 -21 -115 0 -5 -3 -14 -6 -20 -4 -5 -10
-28 -14 -50 -4 -22 -9 -51 -12 -65 -6 -33 -33 -161 -40 -185 -2 -11 -6 -27 -7
-35 -2 -8 -6 -29 -10 -46 l-7 -31 -738 0 -737 0 17 81 c10 45 20 92 23 106 9
45 15 71 20 88 3 9 7 28 10 42 2 14 7 36 10 50 3 14 8 36 10 50 10 55 48 236
53 250 4 8 7 24 8 35 1 11 5 30 9 42 8 24 12 43 20 98 4 20 8 41 11 45 3 5 7
21 9 37 3 15 7 39 10 53 4 14 9 39 12 55 3 17 9 48 15 70 18 74 19 80 24 110
2 17 9 48 15 70 5 22 13 56 16 75 3 19 9 50 14 68 l8 32 -738 0 -738 0 -6 -27z
m2324 -2897 c-1 -6 -10 -51 -21 -101 -10 -49 -21 -99 -23 -110 -3 -11 -7 -31
-10 -45 -9 -39 -16 -73 -21 -98 -2 -13 -6 -31 -9 -40 -3 -9 -8 -30 -11 -47 -6
-35 -11 -60 -19 -95 -3 -14 -8 -36 -11 -50 -2 -14 -14 -68 -26 -120 -11 -52
-22 -106 -25 -119 -3 -12 -11 -51 -19 -85 -8 -33 -16 -73 -19 -88 -10 -50 -17
-81 -32 -153 -9 -38 -18 -81 -21 -95 -3 -14 -6 -29 -7 -35 -3 -12 -17 -83 -22
-107 -1 -10 -7 -26 -13 -35 -9 -17 -52 -18 -741 -18 l-731 -1 4 31 c3 16 10
53 17 80 6 28 14 61 16 75 2 14 11 52 19 85 8 33 16 71 19 85 14 75 34 165 36
165 1 0 3 16 6 35 2 19 7 42 10 50 4 8 8 24 10 35 4 29 11 63 24 120 6 28 14
61 16 74 4 21 28 129 38 171 2 8 7 33 11 55 5 22 9 45 11 50 4 19 14 65 19 93
3 15 12 59 21 97 19 85 25 115 27 136 1 14 78 15 739 15 511 0 738 -3 738 -10z"/>
</g>
</svg>
