<svg id="a2e02919-23de-4e0d-9d4b-45a916393fc6" data-name="aff79a18-6986-44d0-8e71-6088051668f4" xmlns="http://www.w3.org/2000/svg" viewBox="0 0 384.2814 347.1547"><polygon points="303.128 138.757 313.871 69.379 243.461 69.379 173.051 69.379 162.308 138.757 232.718 138.757 303.128 138.757" style="fill:#f0a"/><polygon points="91.898 138.757 81.153 208.137 151.563 208.137 162.308 138.757 91.898 138.757" style="fill:#f0a"/><polygon points="211.23 277.516 281.64 277.516 292.383 208.137 221.973 208.137 151.563 208.137 140.82 277.516 211.23 277.516" style="fill:#f0a"/><polygon points="102.641 69.379 32.231 69.379 21.488 138.757 91.898 138.757 162.308 138.757 173.051 69.379 183.796 0 113.386 0 102.641 69.379" style="fill:#1d1d28"/><polyline points="140.82 277.516 151.563 208.137 81.153 208.137 10.744 208.137 0 277.516 70.43 277.776 59.686 347.155 130.096 347.155 140.84 277.776" style="fill:#1d1d28"/><path d="M70.41,277.5159" style="fill:#1d1d28"/><polygon points="254.206 0 243.461 69.379 313.871 69.379 324.616 0 254.206 0" style="fill:#1d1d28"/><polygon points="384.281 69.379 313.871 69.379 303.128 138.757 373.538 138.757 384.281 69.379" style="fill:#1d1d28"/><polygon points="232.718 138.757 221.973 208.137 292.383 208.137 303.128 138.757 232.718 138.757" style="fill:#1d1d28"/><polygon points="352.05 277.516 362.793 208.137 292.383 208.137 281.64 277.516 352.05 277.516" style="fill:#1d1d28"/><polygon points="200.506 347.155 270.916 347.155 281.66 277.776 211.25 277.776 200.506 347.155" style="fill:#1d1d28"/></svg>