<svg id="logo-icon" class="brand" xmlns="http://www.w3.org/2000/svg" viewBox="0 0 103.9122 90.8736">
	<style>.c1:{fill:#232326;} .c2{fill:#FF1D8E;}</style>	
	<polygon points="34.125 0 30.187 18.164 11.761 18.164 7.849 36.328 26.275 36.328 44.701 36.328 48.639 18.164 52.551 0 34.125 0" class="c1"/>
	<polygon points="3.912 54.467 0 72.631 18.421 72.709 14.509 90.874 32.935 90.874 36.847 72.709 36.852 72.631 40.79 54.467 22.364 54.467 3.912 54.467" class="c1"/>
	<polygon points="70.977 0 67.065 18.164 85.491 18.164 89.403 0 70.977 0" class="c1"/>
	<polygon points="59.216 54.467 77.642 54.467 81.553 36.328 63.127 36.328 59.216 54.467" class="c1"/>
	<polygon points="51.361 90.874 69.787 90.874 73.725 72.709 55.299 72.709 51.361 90.874" class="c1"/>
	<polygon points="99.974 36.368 103.912 18.203 67.065 18.203 48.639 18.203 44.701 36.368 63.127 36.368 99.974 36.368" class="c2"/>
	<polygon points="26.275 36.368 22.364 54.506 40.79 54.506 44.701 36.368 26.275 36.368" class="c2"/>
	<polygon points="55.278 72.67 92.094 72.67 96.032 54.506 59.216 54.506 40.79 54.506 36.852 72.67 55.278 72.67" class="c2"/>
</svg>