<?xml version="1.0" encoding="utf-8"?>
<!-- Generator: Adobe Illustrator 24.2.0, SVG Export Plug-In . SVG Version: 6.00 Build 0)  -->
<svg version="1.1" id="aff79a18-6986-44d0-8e71-6088051668f4"
	 xmlns="http://www.w3.org/2000/svg" xmlns:xlink="http://www.w3.org/1999/xlink" x="0px" y="0px" viewBox="0 0 1216.8 277"
	 style="enable-background:new 0 0 1216.8 277;" xml:space="preserve">
<style type="text/css">
	.st0{fill:#1D1D28;}
	.st1{fill:#FF00AA;}
</style>
<path class="st0" d="M219.3,276.5c2.5-3.6,4.9-7.4,7.2-11.4L170.8,237c-14.2,24.3-32.2,38.2-54,39.7L219.3,276.5z"/>
<path class="st0" d="M109.3,276.7c-11.4-0.9-21.9-6.4-29.1-15.1c-7.9-9.4-10.9-20-10.9-34c0-15.2,2.7-30.2,7.9-44.5
	c5.3-14.3,13.1-26.2,23.4-35.5c10.3-9.4,22.7-14,37.1-14c26,0,39.9,12.4,41.8,37.1h56.7L258,74.4h-56.7l-3.8,17.1
	c-17.7-12.9-39.1-19.7-61.1-19.5c-26-0.1-51.5,7.1-73.7,20.8c-10,6.1-19.3,13.3-27.7,21.5C30.2,136.6,0,277,0,277L109.3,276.7z"/>
<path class="st0" d="M508.6,276.6l45.9-202.1H442.7l-13,55.2h34.6l-26.7,117.3c-9.5,8.2-19.8,15.2-30.9,21.1
	c-8.6,4.6-16.4,7.4-23.4,8.5L508.6,276.6z"/>
<path class="st0" d="M281.7,276.5c0.5-11.7,2.8-26.3,6.9-43.8l23.6-103h-33.9L291,74.4h111.3l-39,170.5c-0.9,3.9-1.4,7.9-1.4,12
	c0,11.3,3.8,17.9,11.3,19.6L281.7,276.5z"/>
<path class="st0" d="M784.4,74.4c-7.1-1.4-14.4-2.3-21.6-2.4c-18,0-33.6,5.7-46.9,17.2c-13.3,11.5-27.4,31.8-42.3,60.9l-1-1
	l17.3-74.7H587l-12.3,55.2h34.4l-33.4,147h77.2l12-53c11.7-55.7,38.5-83.5,80.5-83.5c8,0.1,16,1.1,23.8,2.9L784.4,74.4z"/>
<polygon class="st0" points="816.5,74.4 804.3,129.6 838.2,129.6 804.8,276.6 882.2,276.6 927.9,74.4 "/>
<path class="st0" d="M1189.4,276.4c0,0,23.2-112,27.3-126.9c-2.2-9.6-5.8-18.9-10.5-27.6c-9-16.7-22.5-30.4-39.1-39.7
	c-16.8-9.4-35.6-14.2-56.6-14.2c-29.7,0-56.5,7.5-80.4,22.5c-23.6,14.6-42.7,35.3-55.4,59.9c-13,25-19.7,52.8-19.5,80.9
	c0,16.6,8.4,45.1,8.4,45.1s88.5,0,101.5,0c0-0.4-5.1-0.4-11.1-3.9c-3.8-2.2-7-5.1-9.6-8.6c-8.9-11.4-9.5-25.4-9.9-33.9
	c-0.2-6.5,0.2-13,1.2-19.4c1.1-8.3,3-16.4,5.5-24.4c3.7-11.5,9.1-28.1,23.4-43.1c9.5-9.9,17.4-13.3,19.3-14.1
	c6.2-2.6,12.8-3.8,19.5-3.7c4.6,0.1,11.9,0.4,19.3,5c3.5,2.2,6.6,5,9.1,8.3c9.2,11.6,9.7,25.4,10.1,34.3c0.2,6.3-0.2,12.5-1.2,18.7
	c-1.2,8.5-3.2,16.9-6,25c-3.5,10.2-9.5,27.5-24.4,42.7c-10.1,10.3-18.2,13.4-21.1,14.4c-6.7,2.3-10.3,1.8-10.4,2.6
	C1094.6,276.5,1189.4,276.4,1189.4,276.4z"/>
<polygon class="st1" points="932.5,55.2 855.5,55.2 867.2,0 944.3,0 "/>
</svg>
