<svg id="logo-text" class="brand" xmlns="http://www.w3.org/2000/svg" viewBox="0 0 376.6786 79.8641">
	<style>.c1:{fill:#232326;} .c2{fill:#FF1D8E;}</style>	
	<path d="M13.05,24.3167a44.67,44.67,0,0,0-5.1443,5.0624C6.36,36.6116,1.7564,57.7275,0,65.1544a23.5682,23.5682,0,0,0,3.11,5.2791c4.0893,5.0925,11.359,9.4306,22.2987,9.4306,4.0552,0,7.8017-.7545,14.8168-3.112l4.1671-19.3332c-7.1145,6.3185-13.2111,6.6016-15.6633,6.6016-4.6211,0-8.5729-1.7919-10.759-4.3383-2.63-3.112-3.3852-7.9219-2.45-12.26a22.5907,22.5907,0,0,1,8.2547-12.92,19.3717,19.3717,0,0,1,12.2114-4.15,13.9623,13.9623,0,0,1,12.7565,6.8848L52.95,17.7151a34.3183,34.3183,0,0,0-14.021-3.2064C29.1213,14.5087,19.8334,18.6582,13.05,24.3167Z" class="c1"/>
	<path d="M113.4055,51.3832c-.7522,3.4894-1.6539,8.11-6.1374,11.4112a14.4311,14.4311,0,0,1-8.1342,2.735,9.4924,9.4924,0,0,1-7.0829-3.0181c-2.4617-3.0177-1.6819-7.0731-1.1128-9.7135L98.9676,15.546H82.6524L74.867,51.666c-1.4432,6.6959-2.5109,14.712,1.6782,20.6535,2.9724,4.15,9.3136,7.5446,19.2162,7.5446,8.8646,0,15.9948-2.4521,22.4347-7.8277,8.2739-6.8844,10.041-13.7688,11.4639-20.37l7.7854-36.12H121.13Z" class="c1"/>
	<path d="M194.9727,15.546H169.51L155.9511,78.45h16.3152l5.204-24.1429L187.9215,78.45h20.2762L194.0366,52.7032a22.4762,22.4762,0,0,0,9.6114-4.338,23.1751,23.1751,0,0,0,7.8239-13.1087c1.0775-4.9983.4645-10.4682-2.3265-14.1462C205.5611,16.3005,199.688,15.546,194.9727,15.546Zm-.43,20.3706a10.0374,10.0374,0,0,1-3.2131,5.2811c-2.387,1.8862-6.019,2.5464-8.4709,2.5464h-3.1122l3.354-15.5606h3.1123c3.5836,0,6.1152.9428,7.299,2.4517A6.2664,6.2664,0,0,1,194.5429,35.9166Z" class="c1"/>
	<polygon points="233.944 78.449 250.259 78.449 263.818 15.546 247.503 15.546 233.944 78.449" class="c1"/>
	<path d="M350.8528,23.4678c-5.0914-6.13-13.4541-9.3363-22.7905-9.3363a43.7285,43.7285,0,0,0-26.8154,9.3363,41.8583,41.8583,0,0,0-14.984,23.5771c-1.7889,8.2993-.4729,17.07,4.8406,23.4826,5.0917,6.13,13.4541,9.3366,22.7905,9.3366a43.7245,43.7245,0,0,0,26.8154-9.3366,43.29,43.29,0,0,0,4.5445-4.1692c2.1014-9.6781,6.3879-29.1621,8.5312-38.4063A22.2338,22.2338,0,0,0,350.8528,23.4678ZM338.6981,47.0449a22.3653,22.3653,0,0,1-7.6947,12.0714,21.1622,21.1622,0,0,1-13.6943,4.9042c-5.47,0-9.2665-2.0748-11.6543-4.9985-1.87-2.2633-3.6768-6.13-2.4776-11.6943a22.2714,22.2714,0,0,1,21.47-17.3524,15.1731,15.1731,0,0,1,11.56,4.9982A14.2256,14.2256,0,0,1,338.6981,47.0449Z" class="c1"/>
	<polygon points="359.96 0 376.679 0 373.131 16.462 356.413 16.462 359.96 0" class="c2"/>
</svg>