<svg id="logo" class="brand" xmlns="http://www.w3.org/2000/svg" viewBox="0 0 499.818 92.4346">	
	<polygon points="34.125 1.561 30.187 19.725 11.761 19.725 7.849 37.889 26.275 37.889 44.701 37.889 48.639 19.725 52.551 1.561 34.125 1.561" class="c1"/>
	<polygon points="3.912 56.028 0 74.192 18.421 74.27 14.509 92.435 32.935 92.435 36.847 74.27 36.852 74.192 40.79 56.028 22.364 56.028 3.912 56.028" class="c1"/>
	<polygon points="70.977 1.561 67.065 19.725 85.491 19.725 89.403 1.561 70.977 1.561" class="c1"/>
	<polygon points="59.216 56.028 77.642 56.028 81.553 37.889 63.127 37.889 59.216 56.028" class="c1"/>
	<polygon points="51.361 92.435 69.787 92.435 73.725 74.27 55.299 74.27 51.361 92.435" class="c1"/>
	<polygon points="99.974 37.929 103.912 19.764 67.065 19.764 48.639 19.764 44.701 37.929 63.127 37.929 99.974 37.929" class="c2"/>
	<polygon points="26.275 37.929 22.364 56.067 40.79 56.067 44.701 37.929 26.275 37.929" class="c2"/>
	<polygon points="55.278 74.231 92.094 74.231 96.032 56.067 59.216 56.067 40.79 56.067 36.852 74.231 55.278 74.231" class="c2"/>
	<path d="M136.189,24.3167a44.67,44.67,0,0,0-5.1443,5.0624c-1.5458,7.2325-6.1489,28.3484-7.9053,35.7753a23.5682,23.5682,0,0,0,3.11,5.2791c4.0893,5.0925,11.359,9.4306,22.2987,9.4306,4.0552,0,7.8017-.7545,14.8168-3.112l4.1671-19.3332c-7.1145,6.3185-13.2111,6.6016-15.6633,6.6016-4.621,0-8.5729-1.7919-10.759-4.3383-2.63-3.112-3.3852-7.9219-2.45-12.26a22.5907,22.5907,0,0,1,8.2547-12.92,19.3717,19.3717,0,0,1,12.2114-4.15,13.9623,13.9623,0,0,1,12.7565,6.8848l4.2078-19.522a34.3183,34.3183,0,0,0-14.021-3.2064C152.2607,14.5087,142.9728,18.6582,136.189,24.3167Z" class="c1"/>
	<path d="M236.5449,51.3832c-.7522,3.4894-1.6538,8.11-6.1374,11.4112a14.4311,14.4311,0,0,1-8.1342,2.735,9.4924,9.4924,0,0,1-7.0829-3.0181c-2.4617-3.0177-1.6819-7.0731-1.1128-9.7135L222.107,15.546H205.7918l-7.7854,36.12c-1.4432,6.6959-2.5109,14.712,1.6782,20.6535,2.9724,4.15,9.3136,7.5446,19.2162,7.5446,8.8646,0,15.9948-2.4521,22.4347-7.8277,8.2739-6.8844,10.041-13.7688,11.4639-20.37l7.7854-36.12H244.2693Z" class="c1"/>
	<path d="M318.1121,15.546H292.649L279.0905,78.45h16.3152l5.204-24.1429L311.0609,78.45h20.2762L317.176,52.7032a22.4757,22.4757,0,0,0,9.6114-4.338,23.1751,23.1751,0,0,0,7.8239-13.1087c1.0775-4.9983.4645-10.4682-2.3264-14.1462C328.7005,16.3005,322.8275,15.546,318.1121,15.546Zm-.43,20.3706a10.0368,10.0368,0,0,1-3.2131,5.2811c-2.387,1.8862-6.019,2.5464-8.4708,2.5464h-3.1123l3.354-15.5606h3.1123c3.5836,0,6.1153.9428,7.299,2.4517A6.2664,6.2664,0,0,1,317.6823,35.9166Z" class="c1"/>
	<polygon points="357.083 78.449 373.399 78.449 386.957 15.546 370.642 15.546 357.083 78.449" class="c1"/>
	<path d="M473.9922,23.4678c-5.0914-6.13-13.4541-9.3363-22.7905-9.3363a43.7285,43.7285,0,0,0-26.8154,9.3363,41.8588,41.8588,0,0,0-14.984,23.5771c-1.7889,8.2993-.4729,17.07,4.8406,23.4826,5.0917,6.13,13.4541,9.3366,22.79,9.3366a43.7245,43.7245,0,0,0,26.8154-9.3366,43.29,43.29,0,0,0,4.5445-4.1692c2.1014-9.6781,6.3879-29.1621,8.5312-38.4063A22.2338,22.2338,0,0,0,473.9922,23.4678ZM461.8375,47.0449a22.3653,22.3653,0,0,1-7.6947,12.0714,21.1622,21.1622,0,0,1-13.6943,4.9042c-5.47,0-9.2665-2.0748-11.6542-4.9985-1.87-2.2633-3.6769-6.13-2.4777-11.6943a22.2714,22.2714,0,0,1,21.47-17.3524,15.1731,15.1731,0,0,1,11.56,4.9982A14.2256,14.2256,0,0,1,461.8375,47.0449Z" class="c1"/>
	<polygon points="483.099 0 499.818 0 496.271 16.462 479.552 16.462 483.099 0" class="c2"/>
</svg>