<?xml version="1.0" encoding="utf-8"?>
<svg version="1.1" xmlns="http://www.w3.org/2000/svg" xmlns:xlink="http://www.w3.org/1999/xlink" x="0px" y="0px"
	 viewBox="0 0 512 512" style="enable-background:new 0 0 512 512;" xml:space="preserve">
<g>
	<path class="c1" d="M489.9,122.5l-15.5,87.7h-82.9l-15,84.6h82.9l-15.5,87.8H361l-14.7,83h-87.7l14.7-83
		h-84.6l-14.7,83H86.1l14.7-83H22.3l15.5-87.8h78.5l15-84.6H52.8l15.5-87.7h78.5l13.9-78.4h87.8l-13.9,78.4h84.6l13.9-78.4h87.7
		L407,122.5H489.9z M219.1,210.3l-15,84.6h84.6l15-84.6L219.1,210.3L219.1,210.3z"/>
	<path class="c2" d="M391.5,210.3l-15,84.6L361,382.7H188.6l-102.5,83l14.7-83l15.5-87.8l15-84.6
		l15.5-87.7H407L391.5,210.3z M219.1,210.3l-15,84.6h84.6l15-84.6L219.1,210.3L219.1,210.3z"/>
</g>
</svg>
