<?xml version="1.0" encoding="utf-8"?>
<svg version="1.1" xmlns="http://www.w3.org/2000/svg" xmlns:xlink="http://www.w3.org/1999/xlink" x="0px" y="0px"
	 viewBox="0 0 189.5 28" style="enable-background:new 0 0 189.5 28;" xml:space="preserve">
<path class="c1" d="M15.7,19.2l2-10.5H16l-2,10.5H15.7z M1.8,28l1.4-7h10.5l0.3-1.8H3.5l2-10.5H16L16.3,7H4.1L0,28
	H1.8L1.8,28z M29,21l2.7-14h-5.3l-0.3,1.8h3.5L27.3,21H29L29,21z M32.7,1.8L33.1,0h-1.8L31,1.8H32.7z M53.2,21l2.4-12.2h-1.8
	L51.4,21H53.2z M40.9,21l2-10.5h1.8L45,8.8h-1.8L43.6,7h-1.8l-2.7,14H40.9L40.9,21z M53.8,8.8L54.1,7h-8.8L45,8.8H53.8L53.8,8.8z
	 M72.1,21l0.3-1.8h-7L65.1,21H72.1z M65.4,19.2l2-10.5h5.2L73,7h-5.3l1.4-7h-1.8L66,7h-5.2l-0.3,1.8h5.2l-2,10.5H65.4L65.4,19.2z
	 M89.2,21l0.3-1.8H79.1L78.7,21H89.2z M79.1,19.2l2-10.5h-1.8l-2,10.5H79.1z M91.3,19.2l2-10.5h-1.8l-2,10.5H91.3z M91.6,8.8L91.9,7
	H81.4l-0.3,1.8H91.6z M110.2,19.2l2-10.5h-1.8l-2,10.5H110.2z M108.1,21l0.3-1.8H98l2-10.5h10.5l0.3-1.8h-10.5l1.4-7h-1.8l-4.1,21
	H108.1z M127,21l0.3-1.8h-10.5l-0.3,1.8H127z M116.9,19.2l2-10.5h-1.8l-2,10.5H116.9z M129.1,19.2l2-10.5h-1.8l-2,10.5H129.1z
	 M129.4,8.8l0.3-1.8h-10.5l-0.3,1.8H129.4z M145.9,21l0.3-1.8h-10.5l-0.3,1.8H145.9z M149.4,21l0.3-1.8H148l-0.3,1.8H149.4z
	 M135.8,19.2l1-5.2H135l-1,5.2H135.8L135.8,19.2z M137.5,10.5l0.3-1.8H136l-0.3,1.8H137.5L137.5,10.5z M148,19.2l2-10.5h-1.8
	l-0.7,3.5h-10.5l-0.3,1.8h10.5l-1,5.2H148L148,19.2z M148.3,8.8l0.3-1.8h-10.5l-0.3,1.8H148.3z M166.5,12.2l0.7-3.5h-1.8l-0.7,3.5
	H166.5z M154.3,21l2-10.5h1.7l0.3-1.8h-1.8L157,7h-1.8l-2.7,14H154.3L154.3,21z M165.4,8.8l0.3-1.8h-7l-0.3,1.8H165.4z M173.6,19.2
	l2-10.5h-1.8l-2,10.5H173.6z M185.5,21l4.1-21h-1.7l-1.4,7h-10.5l-0.3,1.8h10.5l-2,10.5h-10.5l-0.3,1.8H185.5L185.5,21z"/>
</svg>
